<svg id="daily-mail" xmlns="http://www.w3.org/2000/svg" width="200.734" height="32.718" viewBox="0 0 200.734 32.718">
  <path id="Path_608" data-name="Path 608" d="M110.263,100.231l.447.335a8.311,8.311,0,0,1,.029-1.341,1.1,1.1,0,0,0-.419.642l-.475.056Zm18.306,3.631a.3.3,0,0,0-.281-.194.34.34,0,0,0,0,.669A.317.317,0,0,0,128.6,104c0-.055-.027-.085-.027-.141Zm-.011-1.311a.311.311,0,0,1,.011.082.344.344,0,0,1-.225.316v.412a.561.561,0,0,1,.393.22.7.7,0,0,1,.138.419.623.623,0,0,1-.421.62c.69-.054,1.122-.116,1.122-.116-.672-.141-.281-.531-.281-.531a3.52,3.52,0,0,1,.894-.449,1.7,1.7,0,0,1-1.259-.977h-.372Zm-.352,2.088a.665.665,0,0,1-.029-1.266v-.41a.367.367,0,0,1-.306-.3l0,0a2.1,2.1,0,0,1-.531.082.146.146,0,0,0,.056.2c.587.419.2.81.2.81-.279.252-.419.252-.419.252a4.778,4.778,0,0,0-.95.672c.747.023,1.431,0,1.985-.035Zm-7.658-2.592a.242.242,0,0,0,.141-.045l.557.241a.286.286,0,0,0,.252.308.245.245,0,0,0,.208-.136l.473.07a.265.265,0,0,0,.241.234.3.3,0,0,0,.276-.29l.4-.187a.238.238,0,0,0,.2.114.307.307,0,0,0,.279-.308l.252-.417a7.322,7.322,0,0,0,1.425-.029,12.527,12.527,0,0,1,1.369-.616,3.6,3.6,0,0,0-.589.475,4.253,4.253,0,0,0-.391.447.748.748,0,0,0-.308.644,1.078,1.078,0,0,0,.167.447,1.041,1.041,0,0,0,.337.252l.308.279a2.82,2.82,0,0,1-.812.335,1.122,1.122,0,0,1-.725-.082c-.979-.223-1.314.223-1.314.223a.944.944,0,0,1-.56.252l.167.252a.652.652,0,0,1-.557-.029,2.077,2.077,0,0,1,.223-.95c-.112-.754-1.678-.616-1.678-.616l-.389-.365-.085-.085-.894-.838a2.581,2.581,0,0,1-.25.924,4.458,4.458,0,0,1-.252.475l-.335-.169a.963.963,0,0,0,.138-.306,10.879,10.879,0,0,0,.475-1.622,1.717,1.717,0,0,1,.419.056,1.6,1.6,0,0,0,.141.085c.065.031.136.061.212.091l.308.437a.343.343,0,0,0-.045.169C120.323,101.936,120.407,102.048,120.547,102.048Zm3.12-.435-.163.232a.266.266,0,0,0-.218-.131c-.141,0-.252.138-.252.335a.288.288,0,0,0,.009.078l-.356.167a.321.321,0,0,0-.267-.246c-.138,0-.25.167-.25.335l-.426-.073a.315.315,0,0,0,.007-.065c0-.167-.114-.337-.252-.337a.269.269,0,0,0-.23.21l-.493-.223a.3.3,0,0,0,.024-.124.275.275,0,0,0-.252-.279.156.156,0,0,0-.065.011l-.131-.236h0a14.487,14.487,0,0,0,1.594.393h.616l.2-.308a2.541,2.541,0,0,0,.914.263Zm-3.312-4.772c.023.029.045.055.067.079l-.035.063a.124.124,0,0,0-.063-.021.217.217,0,0,0-.2.224l-.026-.027-.225-.252-.082-.083-.5-.531c-.587-.782-1.481,0-1.481,0l-.138-.112a.372.372,0,0,0,.056-.643l.922-2.376-.252-.307c.449-.923-.5-.95-.5-.95-.281-.838-.784-.447-.784-.447-.167-.811-.784-.392-.784-.392a.49.49,0,0,0-.754-.224l.026-1.314-.613.027-.672-.027.056,1.341a.489.489,0,0,0-.784.336c-.781-.448-.781.419-.781.419-.644-.2-.616.419-.616.419a.74.74,0,0,0-.754.838l.669,2.291a35.352,35.352,0,0,1-2.151,2.851l-.84-.251-.056-.139a.409.409,0,0,0,.336.056,2.4,2.4,0,0,1,.027-.838c.252-1.09-.2-1.481-.2-1.481a2.115,2.115,0,0,0-.28-.978c.419-.531-.2-1.062-.2-1.062l-.085-.14-.027-1.146c-.112,0-.168-.14-.168-.14-.168-.475-.475-.167-.475-.167a.329.329,0,0,0-.587-.112.357.357,0,0,0-.616,0l-.251-.811-.838.335.28.894c-.616-.14-.419.475-.419.475-.531.027-.28.5-.28.5-.5.056-.307.616-.307.616l.559.922c-.448.5-.027.838-.027.838.14.252.308.252.308.252a2.418,2.418,0,0,0,.083,1.537,4.809,4.809,0,0,1-1.369,1.005,8.624,8.624,0,0,1-1.314.5c-1.091.252-3.242.95-3.242.95-.755.194-1.957.557-1.957.557-1.509.449-1.9-.026-1.9-.026-.363-.225-.083-.812-.083-.812a1.793,1.793,0,0,1,1.118-.894,4.742,4.742,0,0,1,.726.531,1.369,1.369,0,0,0,.923.308l.027-.112a.8.8,0,0,0,.419-.056.557.557,0,0,1-.168-.363c0-.139-.2-.362-.2-.362l3.885-.168c.14-.026.251-.026.363-.056a3.553,3.553,0,0,0,1.649-.559,1.842,1.842,0,0,0,.531-1.929,1.869,1.869,0,0,0-1.481-1.23,3.219,3.219,0,0,0-1.314-.083,5.847,5.847,0,0,1-1.285-.2c-.029.167.335.7.335.7a.943.943,0,0,1-.7-.223,1.374,1.374,0,0,0-1.174-.224,5.053,5.053,0,0,0,.784.784,5.486,5.486,0,0,1-1.453-.419,2.491,2.491,0,0,0,3.6,1.537,6.436,6.436,0,0,1,1.062-.531.608.608,0,0,1,.838.392c-.056.95-.755.978-.755.978a18.417,18.417,0,0,1-4.7.139,2.109,2.109,0,0,0,.224-.894l-.224.056c-1.173-.112-1.481.14-1.481.14a1.709,1.709,0,0,0-.615.782,4.437,4.437,0,0,0-1.259.782,2.827,2.827,0,0,0-.866,1.593c-.056,1.006.5,1.147.5,1.147-.5.977.251,1.341.251,1.341a1.672,1.672,0,0,0,.475-.531,9.862,9.862,0,0,1,2.627-.922,2.834,2.834,0,0,0-.616,1.229,1.777,1.777,0,0,1-.894-.085c-.307-.026-.307.225-.307.225l-.14.335-.2.616c-1.2-.056-1.034.642-1.034.642l-.168,1.872c.28.7.726.587.726.587v-.7H96.4a1.7,1.7,0,0,0,.923.922h.168c.2-.056.28.225.28.225l.2.026.027-.475.223-.026c.14.056.224.279.224.279h.167a1.785,1.785,0,0,0,.085-.419c.224-.141.167-.642.167-.642a2.032,2.032,0,0,1,.923.085l-.027.417a1.291,1.291,0,0,0,.755.644,5.756,5.756,0,0,0,1.2.167c.867.056,1.957.026,2.963,0q1.638-.083,3.27-.252c.112.167.167.14.167.14.475.167,1.006-.337,1.006-.337l-.167.337a1.958,1.958,0,0,0,.755-.281.771.771,0,0,0,.391.281l.085-.085.112.167a1.059,1.059,0,0,0,.363-.5.831.831,0,0,0,.616.167l.112.167.082-.14a3.936,3.936,0,0,0,.475.252,1.349,1.349,0,0,0,.2-1.033l.085.138.082-.335a.713.713,0,0,0,.449.167c-.531.223-.225.616-.225.616a.624.624,0,0,0,.281.25.354.354,0,0,1,.391.281.535.535,0,0,0,.672-.252l.056-.335a1.563,1.563,0,0,1-.085-.5l.085.363.138.085.95.754.812-.672a2.127,2.127,0,0,0,1.062.308c.223,0,.056-.279.056-.279a2.7,2.7,0,0,0,1.816.447c.167-.138.056-.223.056-.223.2-.085.531.2.531.2a.843.843,0,0,0,.7.026.221.221,0,0,0-.167-.167c.2,0,.085-.279.085-.279a.688.688,0,0,1,.363.25.515.515,0,0,0,.475.169l.026-.14a1.6,1.6,0,0,0,.642.167.252.252,0,0,0,.029-.279,18.607,18.607,0,0,0,5,.5c3.886-.026,4.417-.781,4.417-.781a.367.367,0,0,0,.056-.363v-.223a.773.773,0,0,1,.5-.029l-.281.587-.082.2c.669.754,1.676-.085,1.676-.085v-.252a1.074,1.074,0,0,0,.363-.306l.449.112a.846.846,0,0,1-.112.531.794.794,0,0,0,.948-.531l-.361-1.874a1.991,1.991,0,0,0-1.566-.531l-.029-.475a.535.535,0,0,0-.419-.306l-.216-.078-.2.078c-.308.026-.756.026-.756.026v-.026l.056-.644v-.725l-.056-.252.589.085a5.256,5.256,0,0,0,1.481.194.541.541,0,0,1,.335.475l-.112.393c.95-.085.838-1.147.838-1.147.669-.56.5-2.068.5-2.068a1.474,1.474,0,0,0-.308-.672l-.026-.026a1.627,1.627,0,0,0-.95-1.371.619.619,0,0,0-.363-.141,1.541,1.541,0,0,1-.531-.419,1.212,1.212,0,0,0-.056,1.173,20.4,20.4,0,0,0-3.356.448,4.216,4.216,0,0,1-1.786-.2c-.7-.392-.587-.894-.587-.894.138-.811.81-.7.81-.7h.2a1.64,1.64,0,0,1,1.006.112,6.032,6.032,0,0,0,3.268,0,2.534,2.534,0,0,0,1.287-1.705,1.664,1.664,0,0,1-1.314.5,3.474,3.474,0,0,0-.419.112,1.183,1.183,0,0,1,.669-.7,1.775,1.775,0,0,0-1.508.224,2.631,2.631,0,0,1-1.259.559,2.1,2.1,0,0,0,.979-.95,2.456,2.456,0,0,1-1.173.2,3.505,3.505,0,0,0-2.4.81,1.955,1.955,0,0,0-.587,2.236,1.452,1.452,0,0,0,.838.726,3.732,3.732,0,0,0,1.089.308,22.757,22.757,0,0,0,3.663-.141,2.262,2.262,0,0,1,.475-.056,1.789,1.789,0,0,0-.531,1.091,2.468,2.468,0,0,1,.781-.167l-.026.112a3.158,3.158,0,0,1,.977,0,.3.3,0,0,0,.337-.223c.335.5-.337,1.062-.337,1.062-.391.391-1.256.082-1.256.082a7.112,7.112,0,0,0-1.706-.308,13.227,13.227,0,0,0-2.766-.781.3.3,0,0,0-.391-.14L127.028,99a.479.479,0,0,0-.725-.223,4.834,4.834,0,0,1-1.287-.587,1.032,1.032,0,0,1-.25-.167,4.609,4.609,0,0,0,1.256-3.074,2.743,2.743,0,0,0-2.039-2.656,1.442,1.442,0,0,0-1.173-.726l-.056.141.082.2c-.026.14.141.392.141.392l-.363.083-2.264-1.314c-.557-.139-.335.335-.335.335l.112.168,1.957,1.537a3.733,3.733,0,0,1-.866.894l-.252.056-.308.335.029.448a.905.905,0,0,1-.449.112l-.026.28c.194.28.754.28.754.28l.447.447a.209.209,0,0,0,.252-.027l.391-.447.531-.251a1.231,1.231,0,0,0,.393.112,2.334,2.334,0,0,0-.754.67,2.156,2.156,0,0,0-.812.027l-.056.307-.016.074-.122-.074a.468.468,0,0,0-.812-.307.634.634,0,0,0-.05.8Zm.013.585a.264.264,0,0,0,.122-.241.224.224,0,0,0-.021-.094l.038-.094a.486.486,0,0,0,.31.108c.288-.009.4-.425.4-.425h.07l-.07.335a2.007,2.007,0,0,0-.531.726l-.318-.316Zm.175-.8a.324.324,0,0,1,.171-.449c.391-.056.308.447.308.447-.105.131-.19.18-.259.186C120.611,96.823,120.545,96.629,120.543,96.627Zm-15.256,5.9a1.9,1.9,0,0,1-1.118.5l-.224.361.531.141.112.056.475.14a.3.3,0,0,1,.392-.252s.251-.672,1.258-.447a.545.545,0,0,1,.391.056,1.567,1.567,0,0,1,.251.194l-.112-.363a.369.369,0,0,1,.391-.112,1.182,1.182,0,0,1-.2-.279,1.036,1.036,0,0,1-.2-.56,1.393,1.393,0,0,1,.67-.082v-.308h.2l-.363-.223a2.589,2.589,0,0,1-2.656.531,4.123,4.123,0,0,1-.978-.419,1.431,1.431,0,0,0,1.4.81,2.29,2.29,0,0,1-.223.252Zm-4.5,0a10.094,10.094,0,0,0,1.537.252,1.988,1.988,0,0,1-.251.223,1.5,1.5,0,0,1-.559.308,1.417,1.417,0,0,0-.083.784,1.478,1.478,0,0,0,.559.279c.28.112.559.2.559.2a2.593,2.593,0,0,1-1.034,0,1.761,1.761,0,0,1-.5-.114l.139-.279c-.112-.728-1.2-.81-1.2-.81l.056-.335a2.275,2.275,0,0,0,.336-.5.738.738,0,0,0,.083-.167,1.193,1.193,0,0,0,.336.167h.026Zm19.9,2.32a.248.248,0,0,0-.14.223s.056.167.419.279a1.687,1.687,0,0,0-.029-.642,1.2,1.2,0,0,0-.25.14Zm-12.746-.5.2-.056a.843.843,0,0,1-.223-.279.582.582,0,0,0-.251-.419l.027.2v.279l.083.085v.223Zm.894.98.029.419.363-.393a.154.154,0,0,1-.14-.082.952.952,0,0,1-.223-.279Zm1.263-2.785a.534.534,0,0,1,.491.112.371.371,0,0,1,.342-.4,8.085,8.085,0,0,1-1.118-.308,1.705,1.705,0,0,1-.782-.419l-.251.085-.2.082v.085a2.071,2.071,0,0,1,.811.308v-.114a1.029,1.029,0,0,1,.7.572Zm1.475,1.107c0-.056.029-.112.029-.2l.419.449a.5.5,0,0,1-.085.447.837.837,0,0,0-.194-.138.522.522,0,0,0-.225-.056l-.026-.363a.4.4,0,0,0,.082-.142ZM77.591,88.38s4.164,2.124,4.667,2.544c.531.419.251.7.251.7a1.162,1.162,0,0,1-.67.391c-.476.083-.335.475-.335.475l-.056,9.922a3.226,3.226,0,0,0,3.8.894.8.8,0,0,0,.616-.838s.14-9.334.083-9.642a.359.359,0,0,0-.335-.335S83.881,91.4,83.6,91.2c-.308-.2.027-.5.027-.5s2.934-2.04,3.355-2.432a.627.627,0,0,1,.755-.141s4.835,2.712,5.393,3.131.28.559.28.559l-1.369,1.369a.451.451,0,0,0-.14.531l-.056,9.167c-.363,2.347-4.052,2.684-4.052,2.684-4.444.056-6.512-1.845-6.512-1.845a4.75,4.75,0,0,0-3.8-.337c-2.6.894-2.795,2.572-2.795,2.572-.085,1.2,1.258,1.789,1.258,1.789a5.717,5.717,0,0,0,4.052.391c2.04-.7,5.2-1.76,5.2-1.76a9.392,9.392,0,0,1,3.549-.085,4.609,4.609,0,0,1,2.488,1.231,3.864,3.864,0,0,1,1.062,2.682c.083,3.3-3.969,4.417-3.969,4.417-1.816.363-2.319-.056-2.319-.056-1.286-.281.083-.419.083-.419s-2.348.138.2.026c2.544-.082,2.823-1.311,2.823-1.311.923-1.65-.5-1.929-.5-1.929-1.957-.279-4.08,1.314-4.08,1.314a10.4,10.4,0,0,1-8.356.363c-3.689-1.425-3.214-4.164-3.214-4.164a5.961,5.961,0,0,1,2.32-4.946l-.139-10.984a.661.661,0,0,0-.392-.363,7.581,7.581,0,0,1-1.789-.95.3.3,0,0,1,.139-.475l3.55-2.348c.417-.588.948,0,.948,0ZM8.727,86.7c-.531-.363.056-.559.056-.559l5.339-3.913H28.234c3.046.279,2.795,4.192,2.795,4.192l-.056,14.42a11.522,11.522,0,0,0-7.323,5.144c-4.612-1.314-12.521-.141-12.521-.141-.7.056-.224-.475-.224-.475a9.447,9.447,0,0,1,7.993-4.667c.339-.007.672,0,.995.023l.027-13.879L8.727,86.7Zm7.043.782c1.034-.475.838.224.838.224v8.02a6.982,6.982,0,0,1-2.739,5.228c-.782,1.062-3.773,2.291-3.773,2.291-1.034.391-.419-.616-.419-.616a4.953,4.953,0,0,0,.978-2.488V90.5a.567.567,0,0,1,.112-.392l5-2.627Zm4.6,13.282A13.924,13.924,0,0,1,24.6,101.88l-.037-6.2-.038.029a2.463,2.463,0,0,0-4.152.095Zm4.194-5.718-.015-2.6c-.748.7-2.492,1.878-4.164-.3l-.006,2.945A2.722,2.722,0,0,1,24.561,95.05Zm-.019-3.279-.025-4.341c.2-.726-.81-.531-.81-.531l-3.313-.043-.008,4.453c1.874,3.107,3.965.7,4.156.463Zm38.571-6.8s6.148-1.984,6.931-2.179c.81-.2.755.2.755.2s-.167,17.495-.027,18.11.419.449.419.449,1.425,1.006,1.733,1.144a.336.336,0,0,1,.168.475l-3.465,2.684s-5.646-2.488-6.092-2.766c-.559-.393-.2-.616-.2-.616l1.006-1.006s.167-14.309-.112-15.064a2.076,2.076,0,0,0-1.174-1.062c-.2-.308.055-.364.055-.364Zm-6.9,2.963a.652.652,0,0,0,.7.392,6.14,6.14,0,0,0,3.131-3.019c.559-2.1-.755-2.654-.755-2.654a1.977,1.977,0,0,0-2.04-.14,3.7,3.7,0,0,0-1.705,2.124,4.782,4.782,0,0,0,.672,3.3Zm-1.006.95a39.117,39.117,0,0,0-3.913,2.656c-.28.419-.055.616-.055.616s1.565.978,1.984,1.146c.447.139.279.363.279.363l.112,7.267a2.783,2.783,0,0,1,0,.7s-.616.5-.95.784a.451.451,0,0,0-.085.672l5.618,2.822s3.8-2.739,4.136-2.878,0-.419,0-.419-1.649-.95-1.928-1.091a.329.329,0,0,1-.167-.419s-.224-7.184-.056-7.8c.139-.587.335-.392.335-.392a4.112,4.112,0,0,0,.95-.419c.419-.28.029-.531.029-.531s-5.227-2.738-5.617-3.074A.449.449,0,0,0,55.2,88.884Zm-23.155,12.1c-.014-.056.433,4.22,5.911,4.919l3.633-2.933a.283.283,0,0,1,.475-.058l6.148,2.991,3.745-2.933a.636.636,0,0,0-.112-.672l-2.6-1.734V93.439s-.027-.335.2-.391l1.006-.81s.168-.28-.167-.643c-.308-.391-6.428-3.409-6.428-3.409s-.224-.335-.784.056c0,0-6.679,2.683-9.306,6.12,0,0-2.095,1.341-1.718,6.624Zm5.24-2.291a6.217,6.217,0,0,1-.5-4.137,3.785,3.785,0,0,1,2.459-3.074l3.214,2.1-.056,8.272s-.419.7-1.453.225A9.061,9.061,0,0,1,37.289,98.694Zm154.022-9.587a34.876,34.876,0,0,0-3.913,2.656c-.279.419-.056.614-.056.614a20.354,20.354,0,0,0,1.985,1.118c.447.141.279.391.279.391l.112,7.267a2.782,2.782,0,0,1,0,.7s-.616.475-.95.756a.447.447,0,0,0-.082.669l5.617,2.851s3.8-2.739,4.136-2.907c.335-.138,0-.419,0-.419s-1.622-.95-1.928-1.088a.328.328,0,0,1-.169-.419s-.223-7.183-.056-7.8c.14-.559.337-.391.337-.391a4.194,4.194,0,0,0,.95-.419c.419-.28.026-.5.026-.5s-5.227-2.739-5.617-3.075a.457.457,0,0,0-.67,0ZM135.75,86.731c-.866-.475-.25-.7-.25-.7l4.359-2.795c.223-.2.419.085.419.085l3.969,2.32s5.365-2.851,5.729-3.074a.348.348,0,0,1,.419.056l4.529,2.515,4.555-2.851c.5-.419.642-.14.642-.14l5.339,3.131c.447.28.25.363.25.363v14.478a3.235,3.235,0,0,0,1.706,2.488c.419.335.223.587.223.587l-4.11,2.933a5.361,5.361,0,0,1-3.883-4.08V88.212a.722.722,0,0,0-.419-.587l-2.744-1.4.021,6.148h2.947L156.517,96.6l.018,5.09,2.05,1.388c.279.335-.167.391-.167.391l-4.25,2.654-6.315-3.353c-.587-.393-.14-.616-.14-.616l1.369-.866V96.847h-3.007l.011,5.705,1.013.641a.34.34,0,0,1-.056.557l-4.22,2.376-5.505-2.907c-.475-.308.026-.557.026-.557l1.566-.894v-12.8l-3.019-2.179-.142-.057Zm20.354-.676c-.834-.259-.7.258-.7.258l.056,5.617v.448h.672l-.023-6.323Zm.037,10.794h-.685v4.11c.026.112.363.25.363.25l.337.23-.015-4.589Zm-10.066-.795,2.476-3.677h.531V88.212a1.3,1.3,0,0,0-.391-.447L146.058,86.4l.016,9.657Zm-.394-9.747c-.772.017-.817.538-.817.538l-.058,14.925c0,.082.252.138.252.138l.649.41-.026-16.011Zm22.482,14.679c-.014-.056.433,4.22,5.912,4.919l3.632-2.933a.284.284,0,0,1,.475-.058l6.148,2.991,3.745-2.933a.639.639,0,0,0-.112-.672l-2.6-1.734V93.439s-.026-.335.2-.391l1.006-.81s.167-.28-.167-.643c-.308-.391-6.429-3.409-6.429-3.409s-.223-.335-.784.056c0,0-6.679,2.683-9.306,6.12,0,0-2.1,1.341-1.719,6.624Zm5.24-2.291a6.205,6.205,0,0,1-.5-4.137,3.78,3.78,0,0,1,2.458-3.074l3.214,2.1-.056,8.272s-.419.7-1.454.225A9.061,9.061,0,0,1,173.4,98.694Zm25.819-13.723s6.119-1.984,6.931-2.179c.781-.2.754.2.754.2s-.167,17.691-.029,18.307.419.475.419.475,1.425,1.006,1.734,1.144a.336.336,0,0,1,.167.475l-3.464,2.684s-5.646-2.488-6.092-2.795c-.56-.363-.2-.613-.2-.613l1.006-.979s.167-14.561-.112-15.316a1.976,1.976,0,0,0-1.173-1.034C198.969,85,199.221,84.971,199.221,84.971Zm-6.9,3.187a.651.651,0,0,0,.7.391,6.253,6.253,0,0,0,3.132-3.046c.557-2.068-.756-2.627-.756-2.627a1.9,1.9,0,0,0-2.039-.14,3.691,3.691,0,0,0-1.7,2.124,4.778,4.778,0,0,0,.669,3.3Z" transform="translate(-8.504 -82.057)" fill="#3d5065" fill-rule="evenodd"/>
  <path id="Path_609" data-name="Path 609" d="M93.854,90.138l.392-.2v.28l.139-.139.167.391-.223.029.141.139c.307.224.112.419.112.419l-.14.112c-.448.167-.307-.531-.307-.531l-.14.139-.167-.419h.224l-.2-.224Z" transform="translate(3.627 -80.935)" fill="#3d5065" fill-rule="evenodd"/>
  <path id="Path_610" data-name="Path 610" d="M94.716,91.8a.351.351,0,0,1,.363.28c.027-.475.391-.056.391-.056a.7.7,0,0,0-.307.2c0,.28.419.28.419.28.363-.2.307-.419.307-.419.056-.308-.307-.14-.307-.14l-.14-.307.224-.027v-.112l-.2-.112.616-.307L96,91.326l.056.056.139-.168.112.448c-.28-.056-.168.2-.168.2.159.171.286.187.378.151a.388.388,0,0,0,.18-.179c.168-.2-.027-.28-.027-.28-.223.083-.251.168-.251.168-.112-.587.2-.476.2-.476a.553.553,0,0,1,0-.419.467.467,0,0,1,.251.335c.335-.363.391.027.391.027-.447.085-.251.336-.251.336.105.166.187.192.252.151.142-.093.194-.517.194-.517a1.149,1.149,0,0,0-.894-.392l-.027.227-.336.056-.056-.168-.083-.027v-.14a1.629,1.629,0,0,1,1.537.363l.027,1.118a8.2,8.2,0,0,0-2.683,1.146l-.587-1.006a2.248,2.248,0,0,1,.95-1.257l.112.112-.14.168.056.2-.335.28-.28-.141a.985.985,0,0,0-.2.643l.2.419c.392.168.252-.307.252-.307-.112-.14-.252.167-.252.167-.251-.475.085-.448.085-.448a.408.408,0,0,1-.082-.359ZM85.634,102.03a4.958,4.958,0,0,0-.168,2.179h-.224v-1.537c-.643-.141-.363-.391-.363-.391a.844.844,0,0,1,.755-.251Zm1.229,2.822a.97.97,0,0,1,.112.531.258.258,0,0,0-.28-.2C86.584,104.853,86.863,104.853,86.863,104.853Zm.531,0a.348.348,0,0,0,.14-.279c.308.138.112.587.112.587A.591.591,0,0,0,87.394,104.853Zm-.363-1.088a.471.471,0,0,1,.56.335c.2.2.2-.085.2-.085-.252-.784-.755-.25-.755-.25Zm.614.531a.145.145,0,0,0,.2-.056.469.469,0,0,1-.029.447c-.027-.223-.167-.223-.167-.223V104.3Z" transform="translate(2.346 -80.838)" fill="#3d5065" fill-rule="evenodd"/>
  <path id="Path_611" data-name="Path 611" d="M87.721,102.828c-.28-1.033-1.006-.335-1.006-.335a1.581,1.581,0,0,1,.085-1.147,5.117,5.117,0,0,0,.978,0c.139,0,.083.085.083.085.112.5-.2.5-.2.5.224.2.28.112.28.112.448.056.838-.836.838-.836a1.767,1.767,0,0,1,.923.335c.28.252,0,.335,0,.335a3.638,3.638,0,0,0-1.091.056c-.083.056-.056.225-.056.225a4.751,4.751,0,0,1,.085.725A4.252,4.252,0,0,0,87.721,102.828Zm1.845-3.075c.112-.419.95-.866.95-.866a8.767,8.767,0,0,1,1.034-.308,1.814,1.814,0,0,1,1.23.81l-.28.223.112.085a.375.375,0,0,1,.531.029,9.218,9.218,0,0,0,.866.363c-.28.417-1.146.25-1.146.25.027.449-.475.754-.475.754a5.834,5.834,0,0,0,1.621.533c.475-.672.978-.2.978-.2a2.759,2.759,0,0,1,.252.223c-.28.141-.2.5-.2.5a17.587,17.587,0,0,1-2.123.112,8.383,8.383,0,0,1-2.32-.616.129.129,0,0,1-.055-.2l-.029-.167c-.027-.2.141-.167.141-.167a1.992,1.992,0,0,0,1.034-.7c.14-.335-.168-.279-.168-.279A8.77,8.77,0,0,1,89.566,99.753Z" transform="translate(2.606 -79.707)" fill="#3d5065" fill-rule="evenodd"/>
  <path id="Path_612" data-name="Path 612" d="M93.558,101.82a.624.624,0,0,1,.866-.167,1.084,1.084,0,0,1,.224.335.286.286,0,0,0-.28.2c-.2-.394-.81-.364-.81-.364Zm.67.977a.257.257,0,0,1,.14-.306,1.09,1.09,0,0,1,.223.279A2.216,2.216,0,0,1,94.228,102.8Zm.2-.473a.54.54,0,0,1,.28.417l.2-.026a.781.781,0,0,0-.168-.642A.353.353,0,0,0,94.424,102.323Zm.28-.756c.14.085.112.363.112.363a.762.762,0,0,1,.251.419.669.669,0,0,1,.363-.056c-.112-.782-.726-.726-.726-.726Zm.419.894.027.223.307-.026a.388.388,0,0,0-.056-.279.334.334,0,0,0-.279.082Zm1.957-6.036a2.1,2.1,0,0,1,0,.616c-.085.167-.307.5-.307.5l.391.393.951.026a3.583,3.583,0,0,1,.669-.894,4.157,4.157,0,0,1,1.285-2.376v-.139a.344.344,0,0,1-.25-.28.537.537,0,0,1,.223-.447c.112.112.112-.085.112-.085a.22.22,0,0,0-.14-.056l-.056.112-.25.391a10.57,10.57,0,0,1-.812,1.425c-.223.224-.95,1.034-.95,1.034l-.112-.056A2.259,2.259,0,0,1,97.079,96.425Zm1.622,4.723.194-.335.14.029a1.4,1.4,0,0,0,.308.669l-.029.56a.317.317,0,0,0-.279-.2.627.627,0,0,0-.336-.726Zm-1.26,2.6h-.2l-.475.531c-.029.308-.419.449-.419.449.755-.056.867-.335.867-.335a1.853,1.853,0,0,1-.168.417c.474-.25.363-.361.363-.361.085-.281.056-.308.056-.308a.393.393,0,0,1,.055-.167C97.583,103.746,97.441,103.746,97.441,103.746Zm.336.225a1.488,1.488,0,0,0,.475.026c.393.363-.026.894-.026.894-.112-.252-.056-.363-.056-.363a.391.391,0,0,0-.056-.308.826.826,0,0,0-.058.616.752.752,0,0,1-.417-.475.677.677,0,0,1,.138-.39Zm3.13-3.243.252-.194a.651.651,0,0,1-.082.557A1.1,1.1,0,0,0,100.907,100.729Zm-.391.363a1.991,1.991,0,0,0,.2-.25.823.823,0,0,1,.082.587c-.138-.085-.082-.029-.082-.029Z" transform="translate(3.589 -80.403)" fill="#3d5065" fill-rule="evenodd"/>
  <path id="Path_613" data-name="Path 613" d="M99.655,97.908v.95c.812-.085.728.531.728.531.335.112.112.7.112.7a1.059,1.059,0,0,1-.026.728,2.853,2.853,0,0,0,1.676,1.341l-.056-4.276Zm-.167-1.678.029.56a4.2,4.2,0,0,0-.2,2.235.3.3,0,0,0-.223.167,4.144,4.144,0,0,1,.391-2.962Zm1.789,5.647-.029,2.1.894.725.756-.669v-1.9l-.308.026v1.622l-.448.5-.5-.363v-1.786Z" transform="translate(4.365 -80.041)" fill="#3d5065" fill-rule="evenodd"/>
  <path id="Path_614" data-name="Path 614" d="M102.238,103.918c.082,0,.141-.056.141-.167s-.058-.194-.141-.194c-.056,0-.112.082-.112.194S102.183,103.918,102.238,103.918Zm.252.449c.056,0,.112-.085.112-.167,0-.112-.056-.2-.112-.2-.085,0-.141.085-.141.2A.157.157,0,0,0,102.49,104.367Zm-.225.335c.056,0,.114-.082.114-.167s-.058-.167-.114-.167a.17.17,0,0,0,0,.334Zm-.223-.364c.085,0,.14-.082.14-.194a.142.142,0,1,0-.279,0C101.9,104.255,101.959,104.337,102.043,104.337Zm-2.4-2.262c-.029-.225.082-.252.082-.252a1.148,1.148,0,0,0,.337.447v-.026a1.277,1.277,0,0,0,.335.391.162.162,0,0,1-.167.2A2.709,2.709,0,0,1,99.639,102.076Zm.557.167a.394.394,0,0,0,.112-.308c.085.141.141.141.141.141l.085-.056.167.25a.488.488,0,0,0-.308.252A.406.406,0,0,1,100.2,102.242Zm-1.033.25.194.281a.391.391,0,0,1,.056-.2l.225-.223-.112-.2-.225.252A1.313,1.313,0,0,0,99.164,102.493Zm-.307-.5.167.223c.029-.112.084-.138.084-.138l.279-.252-.167-.112Zm-.7-3.1V99.2l.082-.027.42-.029-.5.586.335.224h.475v-.224h-.5l.5-.557v-.252l-.085.027H98.24l-.082-.056Zm.056-.7-.029.279.055-.056.643.085.085.112.056-.335h-.112l-.586-.085-.112-.083Zm.5-1.509.2.139-.14.056c-.223.2-.082.307-.082.307.138.085.167-.083.167-.083.223-.307.391-.141.391-.141a.368.368,0,0,1,.085.5l-.085.112-.026.083L99,97.575l.112-.083a.232.232,0,0,0,.082-.223c-.056-.252-.194,0-.194,0-.337.335-.5-.029-.5-.029C98.352,96.987,98.715,96.681,98.715,96.681Zm.812-.923v.224a.226.226,0,0,0-.308.251c.082.391.363.335.363.335v.168a.5.5,0,0,1-.531-.308.507.507,0,0,1,.476-.669Zm.25,3.074h2.432V95.256l-2.542-.029Zm-.194-7.126a4.946,4.946,0,0,1,2.262-1.118v.559A5.558,5.558,0,0,0,99.583,91.706Zm3.019-1.09v.5a3.671,3.671,0,0,1,2.544.7A3.382,3.382,0,0,0,102.6,90.616Zm-.616-.029v.56h.475v-.56Zm-3.1,1.481c-.167-.782.419-.475.419-.475Zm.616-.614c-.056-.81.475-.363.475-.363Zm.754-.531c-.026-.81.5-.335.5-.335Zm.728-.391c.112-1.062.56-.224.56-.224Zm.866-.532h.756c.112.168-.112.419-.112.419a.771.771,0,0,1-.5-.027c-.391-.083-.141-.392-.141-.392Zm.029-1.258h.728l-.223.336.138.14.167-.225.029.7-.363-.279.168.419-.643-.029.279-.336-.082-.083-.281.251-.027-.67.28.252.085-.085-.252-.392ZM105,91.231l.419.392C105.565,90.756,105,91.231,105,91.231Zm-.223-.168-.5-.28C104.864,90.2,104.782,91.063,104.782,91.063Zm-1.229-.7.5.224C104.054,89.722,103.553,90.365,103.553,90.365Zm-.2-.029c-.056-.392-.279-.392-.279-.392-.252-.056-.281.363-.281.363Zm-3.717,4.276a13.833,13.833,0,0,1,5.086,0c.335.056.2.307.2.307a.516.516,0,0,1-.363.027,15.484,15.484,0,0,0-4.836.085c-.419.027-.335-.168-.335-.168C99.473,94.557,99.639,94.613,99.639,94.613Zm2.71.643v3.606h2.32l.083-3.606Zm2.32,3.717h-2.32l.029,4.276a2.156,2.156,0,0,0,1.648-1.006c.056-.393.642-2.013.642-2.013V98.972h0Zm-1.454,4.166v.419a4.4,4.4,0,0,0,1.118.5.213.213,0,0,0,.141-.308.71.71,0,0,0-.279-.138A1.955,1.955,0,0,1,103.216,103.138Zm.868-.812.138.14-.5.728-.085-.2Zm.249.225-.473.669c.725.475,1.144-.642,1.144-.642A.963.963,0,0,1,104.333,102.551Zm.477-5.479v.672a4.312,4.312,0,0,1,.306,1.4l.225-.391a3.294,3.294,0,0,0-.531-1.678Zm-1.622,7.741v.308a2.519,2.519,0,0,0,.81.335c.14-.056,0-.25,0-.25A1.77,1.77,0,0,1,103.188,104.812Z" transform="translate(4.243 -81.106)" fill="#3d5065" fill-rule="evenodd"/>
  <path id="Path_615" data-name="Path 615" d="M103.369,103.031l.14-.5c.475-.029.308-.56.308-.56.391-.112.836-.838.836-.838l.114.281.167.335c.082.167.138.252.112.252l-.252.223v-.14l-.475.419.167-.922-.447,1.033A1.775,1.775,0,0,1,103.369,103.031Zm.085.252c.391.587,1.678.587,1.678.587a.982.982,0,0,0-.5-.475,1.084,1.084,0,0,1,1.062.279,1.04,1.04,0,0,0,.642.281,1.617,1.617,0,0,0-.279-.308.481.481,0,0,0,.335.026,2.369,2.369,0,0,0-.754-.642c.587-.308,1.091.393,1.091.393a1.2,1.2,0,0,0,.475.447l-.169-.56c.169.5.838.644.838.644.085-.085,0-.252,0-.252-.194,0-.363-.279-.363-.279l-.026-.56c-.616-.085-.616-.419-.616-.419a.65.65,0,0,1,.531-.557l-.056-.644c.363-.335,1.062-.138,1.062-.138-.056-.393-.363-.281-.363-.281,0-.306-.361-.335-.361-.335v.085l-1.009.784c.14.781-.223,1.033-.223,1.033a.9.9,0,0,1-1.2-.167l-.393.252a.967.967,0,0,1,.616.363l-.056.056a1.588,1.588,0,0,0-.616-.308l-.335.138-.167.141-.842.418Z" transform="translate(4.984 -79.436)" fill="#3d5065" fill-rule="evenodd"/>
  <path id="Path_616" data-name="Path 616" d="M106.275,101.948a3.711,3.711,0,0,0,.447-1.175l.114.14-.167.531.112.112.194-.447.14.167-.223.363.167.138.223-.306.141.112-.308.308.138.194.252-.391.2.14-.335.335.138.112.337-.279.112.082-.812.672A1.6,1.6,0,0,0,106.275,101.948Zm2.878.669c.7-.167.114-.531.114-.531-.616-.223-.7-.112-.7-.112.225.085.2.223.2.223C109.071,102.227,109.153,102.618,109.153,102.618Zm.029.672.252-.616a1.05,1.05,0,0,1-.642.056.922.922,0,0,0-.589.056c-.25.14-.054.169-.054.169a1.906,1.906,0,0,0,1.032.335Zm.81-.086.14.17.672-.225-.393.281.728.056-.335-.5-.812.223ZM107.98,90.852a1.111,1.111,0,0,0-.335-.726c-.308-.2-.335-.027-.335-.027a.359.359,0,0,0,.194.335Zm.642.391a1.136,1.136,0,0,0-.082-.335,3.2,3.2,0,0,0-.2-.307l-.363-.251a1.683,1.683,0,0,1,.14.5Zm.029-.447a.871.871,0,0,1,.14.5l.447.448a1.24,1.24,0,0,0-.223-.726l-.363-.28V90.8Zm-.865,3.1a.412.412,0,0,1-.337.056c0,.28.5.28.5.28a.57.57,0,0,0,.363-.2v-.112a.991.991,0,0,1-.363.141l-.167-.169Zm.613,1.928.056-.2c.531-.14.141-.531.141-.531.2-.083.252-.027.252-.027.25-.14.335.167.335.167.2-.167.335-.056.335-.056-.419.392.085.531.085.531a.324.324,0,0,0,.308-.251.6.6,0,0,1-.14-.2.682.682,0,0,1,.223.139.137.137,0,0,1,.14-.168.368.368,0,0,1,.056.251c.085-.083.252,0,.252,0-.252.28.082.531.082.531.393.223.337-.419.337-.419a.225.225,0,0,1,.25.251l.169-.139a.98.98,0,0,1,.056.28.21.21,0,0,1,.279-.027c-.449.279-.14.531-.14.531a.2.2,0,0,0,.252.027l-.026-.2.361.056-.361.419A6.281,6.281,0,0,0,108.4,95.826Zm.868-4.667.361.224a.994.994,0,0,1-.223.447A1.522,1.522,0,0,0,109.267,91.159Zm1.73.224c.756-.2,1.259.81,1.259.81l-.557-.223A5.334,5.334,0,0,0,111,91.383Zm.756.754a1.872,1.872,0,0,1,.25.587,4.44,4.44,0,0,0,.756.56,1.437,1.437,0,0,0-1.006-1.147Zm.362.923a1.13,1.13,0,0,1,.672,1.4.857.857,0,0,0-.391-.475A1.57,1.57,0,0,1,112.116,93.06Zm.169,1.09a2.545,2.545,0,0,1-.056.614,3.1,3.1,0,0,1,.25.67,3.084,3.084,0,0,0,.252-.782A1,1,0,0,0,112.285,94.15Zm-.112.894a3.858,3.858,0,0,1-.393.866l.14.168.167.112a.953.953,0,0,0,.086-1.146Zm5.757,9.084-.25-.95a.357.357,0,0,0-.5-.112.631.631,0,0,1-.56.082c-.335-.056-.056-.279-.056-.279a4.439,4.439,0,0,1,.894-.419,2.839,2.839,0,0,0,.95.112c.531-.082.419.363.419.363a5.949,5.949,0,0,1-.112,1.147A7.72,7.72,0,0,0,117.929,104.128Zm.894.2.14.138-.419.754-.2-.112A2.131,2.131,0,0,0,118.824,104.324Zm.251.194-.335.728a1.324,1.324,0,0,0,1.062-.308l-.085-.447a.988.988,0,0,1-.643.027Zm1.259-.308a3.653,3.653,0,0,1,.419.141,2.227,2.227,0,0,0-.14-1.118c.475.167.475-.029.475-.029.141-.391-.335-.5-.335-.5a2.679,2.679,0,0,0-1.091-.2.914.914,0,0,1,.029.363,1.223,1.223,0,0,1,.026.279.928.928,0,0,1,.617,1.062Zm-15.651-8.662v.223l.279-.2-.279.643-.027.392.447-.951-.14-.251Zm.085,1.2h.112l.586-.448.056-.112.138.308h-.082l-.531.419.082.224.142.139-.2.083-.306-.615Zm.5,1.23.085.335.138-.085.225-.082.194.138h.279l-.335-.224.252-.279L106,97.448l-.056.138-.251.337-.335.083Zm.448,1.984c-.14.029-.085.112-.085.112.279.363.447.056.447.056a.432.432,0,0,0,.056-.279l-.082-.026c0,.335-.167.25-.167.25A.213.213,0,0,1,105.717,99.963Zm-.307.53-.056.364.111.2.056-.337.279.14-.141.279-.082.029.2.112.194-.449.085-.111h-.085l-.557-.279ZM99.9,103.568a.234.234,0,0,1-.252.2l-.308-.363c-.2-.308-.026-.391-.026-.391l.391-.56a.514.514,0,0,1,.2.223l-.281.363c-.082.2.056.252.056.252Z" transform="translate(4.398 -80.923)" fill="#3d5065" fill-rule="evenodd"/>
  <path id="Path_617" data-name="Path 617" d="M101.838,102.313c.112.475-.363.363-.363.363-.167.335.085.335.085.335a.551.551,0,0,0,.531-.363.377.377,0,0,0-.252-.335Zm8.272-7.741-.335-.307a.59.59,0,0,0,.223-.5s.2-.027-.194-.027l-.14.083s-.14-.056-.167-.14l-.056-.335.252-.307.223.027a7.578,7.578,0,0,1,.948-.911l.114.129c-.141.307.026.391.026.391.223.141.308-.139.308-.139.223.112.141-.027.141-.027a1.236,1.236,0,0,1-.522-.408c.288-.244.522-.431.522-.431a1.077,1.077,0,0,1,.363-.448,2.1,2.1,0,0,1-.252-.614.848.848,0,0,1,.81.726c2.153,1.705.812,4.388.812,4.388a6.578,6.578,0,0,0-2.1-.867,1.788,1.788,0,0,1,.669-.643c.924.029.784-1.09.784-1.09-.194-.392-.138.2-.138.2-.393,1.285-1.4.14-1.4.14-.112-.085,0,.2,0,.2.056.139.112.112.112.112l.085.083-.7.28c-.112.168-.308.448-.308.448h-.085ZM97.115,92.364a6.7,6.7,0,0,0-2.6,1.146c-.168.112-.2.083-.2.083-.28.5.307.726.307.726a2.048,2.048,0,0,0,.224,1.341,2.58,2.58,0,0,1,.307,1.091.8.8,0,0,0,.251-.448,1.491,1.491,0,0,0,.95,1.146.677.677,0,0,1,.448.335,1.635,1.635,0,0,0,.056-.557.963.963,0,0,0,.419.557,4.11,4.11,0,0,1,.168-.642,1.5,1.5,0,0,0,.056-1.061.614.614,0,0,0,.363.251,1.453,1.453,0,0,1,0-.923,1.332,1.332,0,0,0-.112-.838l-.054-.2a2.558,2.558,0,0,0-.059.9,1.828,1.828,0,0,1-.28-.083,2.371,2.371,0,0,1-.251,1.173,1.445,1.445,0,0,0-.224.531,2.512,2.512,0,0,0-1.034-.559,3.476,3.476,0,0,1-.335-.5c-.112.2-.224.14-.224.14a2.47,2.47,0,0,0-.335-.616,1.473,1.473,0,0,1-.2-.67,5.865,5.865,0,0,0,.336.587c.2.113.2.5.2.5a.4.4,0,0,0,.2-.279,1.594,1.594,0,0,0,.923.755,1.879,1.879,0,0,1,.419.307,1.13,1.13,0,0,1,.2-.642,1.43,1.43,0,0,0,.139-1.118.54.54,0,0,0,.392.307,1.542,1.542,0,0,1-.027-.475A3.54,3.54,0,0,0,97.612,94l-.075-.292a2.195,2.195,0,0,1-.2-.614A.5.5,0,0,0,97.115,92.364Zm-1.146,2.487a1.263,1.263,0,0,0,.531.419,1.142,1.142,0,0,0,.112-.642.538.538,0,0,1-.363-.056c-.085.307-.28.279-.28.279Zm-1.091-1.229c.392.112.531-.056.531-.056a.327.327,0,0,1,.475.28.7.7,0,0,0,.085.335.624.624,0,0,0,.419-.112c.112-.141-.056-.28-.056-.28a1.965,1.965,0,0,0-.112-.307c0-.448.308-.419.308-.419a.4.4,0,0,0,.335-.168.5.5,0,0,1-.307.531.285.285,0,0,0-.141.308c.2.335.027.363.027.363a.314.314,0,0,1-.217.185.3.3,0,0,0,.3.207.606.606,0,0,0,.307-.5c.139.391,0,.5,0,.5a.246.246,0,0,1-.085.363.956.956,0,0,1-.251.7c-.95-.559-.978-1.2-.978-1.2.307.531.615.28.615.28.061-.062.048-.24.037-.333a.791.791,0,0,1-.26,0,.555.555,0,0,1-.139-.391c-.14-.308-.224-.056-.224-.056a.421.421,0,0,1-.67-.226Zm-6.456,9.613c.782.475,3.662.475,3.662.475a18.143,18.143,0,0,0,4.276-.361,2.972,2.972,0,0,0,.894-.252c.112-.029.055.2.055.2a3.126,3.126,0,0,0-.027,1.285c0,.447-.475.419-.475.419a36.534,36.534,0,0,1-7.294.279c-.95-.167-.979-.672-.979-.672a1.514,1.514,0,0,0-.083-1.229C88.338,103.293,88.423,103.234,88.423,103.234Zm.894,1.65.085-.085v-.81l-.056-.14c.614-.026.81.223.81.223a.525.525,0,0,1-.308.868A.912.912,0,0,1,89.317,104.885Zm1.4-.923.419.029c-.112.056-.083.223-.083.223l-.027.754.112.167-.448-.026c.112-.085.112-.141.112-.141v-.81A.31.31,0,0,0,90.714,103.962Zm-1.034.029-.027.784a.317.317,0,0,0,.363-.225.47.47,0,0,0-.056-.335.346.346,0,0,0-.28-.224Zm1.9.056h.81l.027.2a.623.623,0,0,0-.251-.058H92v.308h.085l.2-.056-.027.252-.139-.029H92V105h.2a.306.306,0,0,0,.2-.085v.223l-.615-.026h-.168c-.027-.029,0-.029,0-.029a.2.2,0,0,0,.112-.056v-.866c-.027-.057-.139-.113-.139-.113Zm1.258-.029.419.029a.464.464,0,0,0-.056.138v.56c.027.223.2.2.2.2.2-.029.168-.281.168-.281V104.1l-.056-.056h.307a.133.133,0,0,0-.027.082v.587a.45.45,0,0,1-.419.393.425.425,0,0,1-.419-.419v-.56a.384.384,0,0,0-.112-.112Zm2.04-.112.67-.056.083.2a.718.718,0,0,0-.2-.029H95.27v.281h.167a.365.365,0,0,1,.085-.056l.027.25a.173.173,0,0,0-.112-.056H95.27v.308h.2c.056,0,.14-.085.14-.085v.2l-.643.085.056-.056-.027-.894c0-.057-.113-.086-.113-.086Zm1.2-.112.027.223c.056-.112.251-.112.251-.112l.027.81-.056.058.335-.058-.056-.026-.027-.81a.247.247,0,0,1,.251.026l-.027-.223-.029.026-.642.058H96.08v.027h0Zm1.62-.894a.661.661,0,0,1-.056-.613.62.62,0,0,1,.643-.449c.279.167.252-.056.252-.056a.438.438,0,0,1,.613-.167.635.635,0,0,0,.363.223c.2.252.085.391.085.391a.343.343,0,0,0,.056.252.308.308,0,0,1,.223.337,1.97,1.97,0,0,1-.14.81.326.326,0,0,1-.361.026c-.14.029-.085.085-.085.085.141.223,0,.335,0,.335a.68.68,0,0,1-.531.225c-.447,0-.475-.225-.475-.225-.056-.194-.307-.194-.307-.194a.566.566,0,0,1-.392-.475.28.28,0,0,1,.112-.281C97.841,103.04,97.7,102.9,97.7,102.9Zm.755.252a.517.517,0,0,1-.138.587c-.225.029-.252-.14-.252-.14a.186.186,0,0,0-.14-.194c-.083-.337.085-.337.085-.337a.455.455,0,0,1,.447.085Zm.531-.168c.056.279.449.5.449.5.194,0,.112-.279.112-.279-.112-.14-.056-.223-.056-.223.279-.056.082-.308.082-.308-.531-.139-.587.308-.587.308Zm-.391-.448c0-.531-.337-.5-.337-.5a.2.2,0,0,0-.167.194c.056.281-.056.281-.056.281-.251.056-.083.335-.083.335.083.112.139.085.139.085a.851.851,0,0,0,.448-.14C98.678,102.761,98.6,102.536,98.6,102.536Zm.364-.587a.216.216,0,0,0,.223.14c.308,0,.112.308.112.308a.63.63,0,0,1-.391.25c-.308-.361-.281-.557-.281-.557C98.624,101.642,98.961,101.949,98.961,101.949Zm-.2,1.343a.466.466,0,0,1,.391.5c-.112.2-.223.112-.223.112-.141-.138-.223-.026-.223-.026,0,.25-.2.082-.2.082-.113-.587.251-.669.251-.669Z" transform="translate(2.854 -80.841)" fill="#3d5065" fill-rule="evenodd"/>
  <path id="Path_618" data-name="Path 618" d="M98.207,104.354a.541.541,0,0,0,.419-.5.412.412,0,0,0,.1-.045.875.875,0,0,1,.379.437,1.24,1.24,0,0,1,.281.335c-.029-.363-.2-.449-.2-.449a1.219,1.219,0,0,0-.3-.466,1.235,1.235,0,0,0,.215-.678c.308-.112.587.279.587.279a.354.354,0,0,1-.223.029c.449.194.363.894.363.894a.4.4,0,0,1-.279-.085c.335.391,0,1.147,0,1.147a.723.723,0,0,1-.393-.531c.056.279-.056.361-.056.361-.279-.056-.391-.419-.391-.419-.029.337-.2.2-.2.2-.082-.056-.082-.252-.082-.252C98.293,104.578,98.207,104.354,98.207,104.354Zm3.494-.307a1.938,1.938,0,0,1-.337-.11,3.168,3.168,0,0,1-.473.892,8.834,8.834,0,0,0,.393-.927,2.775,2.775,0,0,1-.672-.442c-.029.419-.475.194-.475.194a.339.339,0,0,0,.194.533.77.77,0,0,0,.5-.225c.391-.082.112.225.112.225a1.043,1.043,0,0,1-.447.194.3.3,0,0,0-.2.475c.223.308.447.2.447.2.2.026.2.167.2.167.141.335.363.141.363.141a.512.512,0,0,0,.112-.56c-.14-.363-.056-.5-.056-.5-.085-.5.14-.14.14-.14a1.436,1.436,0,0,1,.112.308c.082.194.112.056.112.056Zm-4.359-2.405.167-.306a.763.763,0,0,0-.363-.531.344.344,0,0,0,0,.25,1.6,1.6,0,0,0-.67-.419.992.992,0,0,0,0,.419,1,1,0,0,0-.784-.5.622.622,0,0,0,.112.363,1.266,1.266,0,0,0-.755-.141,1.524,1.524,0,0,0,.5.838l-.056.141c-.307-.225-.391-.056-.391-.056-.027.026,0,.082,0,.082a2.086,2.086,0,0,0,.782.531.376.376,0,0,0-.224.2c.224.447.894.419.894.419a1.58,1.58,0,0,1,.017-.93,4.747,4.747,0,0,1-.576-.412,3.136,3.136,0,0,0-.335-.335l-.392-.308a2.354,2.354,0,0,1,.531.281,6.041,6.041,0,0,0,.864.613.832.832,0,0,1,.674-.2Zm11.4,1.455a5.5,5.5,0,0,1,.054,1.622c3.132,1.2,8.5.473,8.5.473.894-.112.924-.25.924-.25.335-.029.279-.531.279-.531a4.185,4.185,0,0,1-.308-1.259c-.728.419-4.834.531-4.834.531C110.031,103.768,108.746,103.1,108.746,103.1Zm.391.419.308.056.167.616.335-.475.279.026-.026.085v.894l.056.112-.391-.056.056-.085v-.475l-.363.475-.252-.587v.531l-.223-.112.026-.056.029-.812Zm1.481.419a.665.665,0,0,0,0,.95.548.548,0,0,0,.642,0,.666.666,0,0,0-.029-.95C110.812,103.712,110.618,103.935,110.618,103.935Zm.307.027c-.475.225-.141.728-.141.728.112.252.279.056.279.056.225-.223.056-.587.056-.587C111.064,103.906,110.925,103.962,110.925,103.962Zm.725-.056h.225l.363.5-.029-.393-.029-.082.363.026-.056.085V105l.029.082h-.2l-.391-.587v.393l.026.112-.279-.029.026-.138.029-.812Zm1.762.056h.391c.419,0,.5.56.5.56a.556.556,0,0,1-.589.587l-.306-.029.112-.082-.029-.95-.082-.086Zm.335.141V105a.5.5,0,0,0,.279-.56C113.944,104.1,113.748,104.1,113.748,104.1Zm.754-.141.167-.026a.779.779,0,0,1,.5-.029.407.407,0,0,1-.029.587l.252.393a.185.185,0,0,1,.112.082.247.247,0,0,1-.223,0,.734.734,0,0,1-.308-.391h-.138V105l.026.082h-.279l.026-.082-.026-.979-.085-.057Zm.337.5v-.449a.117.117,0,0,1,.194.029.286.286,0,0,1,0,.363c-.056.083-.194.057-.194.057Zm1.229-.7c.531-.029.531.669.531.669a.577.577,0,0,1-.56.56c-.475-.056-.5-.642-.5-.642.082-.643.53-.587.53-.587Zm0,.167c.279.026.252.447.252.447a.422.422,0,0,1-.252.475c-.141.029-.2-.167-.2-.167-.167-.531.056-.7.056-.7.03-.057.141-.057.141-.057Zm.7-.2.391-.026-.056.112.029.977.056.056-.335.029.026-.056-.026-1.006-.085-.085Zm.672-.085.026.281.085-.085.141-.026v.894l-.029.082.279-.056-.026-.085v-.922h.194l-.026-.223-.056.026-.5.112h-.083Zm-11.43-1.255a1.509,1.509,0,0,0,.033.2l.038-.021c.089-.248.04-.348.04-.348l.082-.058a.7.7,0,0,1-.029.368.582.582,0,0,1,.234-.024,1.281,1.281,0,0,0,.047-.4l-.4-.049A.479.479,0,0,0,106.007,102.4Zm.069.328a1.306,1.306,0,0,0,.3.506c.129-.1.1-.475.085-.616a.53.53,0,0,0-.384.11Zm.362.569a1.491,1.491,0,0,0,.379.252.96.96,0,0,0,.063-.455,1.392,1.392,0,0,0-.4.075A.906.906,0,0,1,106.438,103.3Zm.471.29a1.029,1.029,0,0,0,.131.042.814.814,0,0,0,.248,0l-.021-.255a.791.791,0,0,0-.321.117l-.038.1Zm.468.019a.419.419,0,0,0,.27-.328.494.494,0,0,0-.265-.023Zm.279-.44a1.252,1.252,0,0,0-.3-.83,1.152,1.152,0,0,1,.047.5l.138-.051.026.085-.194.024a.937.937,0,0,1-.007.274.407.407,0,0,1,.287,0Zm-.368-.9a1.3,1.3,0,0,0-.355-.23.586.586,0,0,1,.082.344A.575.575,0,0,1,107.287,102.262Zm-.517-.291a1.6,1.6,0,0,0-.4-.075.45.45,0,0,0-.265.11l.41.029Zm-.241.16a.246.246,0,1,0,.4.283.658.658,0,0,0-.082-.346Zm.508.381a.594.594,0,0,1-.016.384.429.429,0,0,1,.3-.049.781.781,0,0,0-.058-.428.333.333,0,0,0-.227.094Zm-.054.5a.762.762,0,0,1-.009.384.424.424,0,0,1,.31-.161.644.644,0,0,0,.04-.283A1.039,1.039,0,0,0,106.984,103.012Zm-.042-.451a.612.612,0,0,0-.424.029,1.486,1.486,0,0,1-.007.464.7.7,0,0,1,.4-.075.762.762,0,0,0,.029-.417ZM100.025,94.1l-.475-1.509.25-.67.281,1.09-.252-.112a.555.555,0,0,0,.894.419c.308-.335.026-.447.026-.447-.361-.2-.419.027-.419.027-.25-.95.393-.587.393-.587-.029-.616.223-.67.223-.67.335.112.335.643.335.643.363-.587.589.027.589.027a.571.571,0,0,1-.029.251.352.352,0,0,0-.5.308c-.058.307.5.391.5.391a.983.983,0,0,0,.672-.923,1.57,1.57,0,0,0-.531.335V91.412a1.3,1.3,0,0,0,.587.475,1.64,1.64,0,0,0-.393-.866l1.175-.027a1.229,1.229,0,0,0-.363.894.765.765,0,0,0,.5-.391l.029,1.09c-.252-.391-.5-.223-.5-.223a.678.678,0,0,0,.616.866.479.479,0,0,0,.531-.419c-.112-.5-.449-.224-.449-.224-.138-.838.475-.475.475-.475-.223-.559.167-.755.167-.755a.58.58,0,0,1,.252.755c.644-.335.531.475.531.475-.613-.28-.531.363-.531.363.281.67.838.167.838.167a.957.957,0,0,0,.14-.335l-.252.056.252-.866.223.448.167-.475.141.167-.812,2.04a15.436,15.436,0,0,0-5.278-.056Zm4.163-.391c-.138-.027-.279-.085-.25-.141,0-.083.112-.112.279-.083.138.027.279.083.252.139C104.47,93.706,104.355,93.733,104.189,93.706Zm-3.019.027c.141-.027.252-.083.252-.167,0-.056-.14-.083-.279-.056-.167,0-.279.083-.279.139S101,93.761,101.17,93.733Zm1.537-.559.393.336-.393.251-.361-.251Zm5.255,4.387a2.642,2.642,0,0,1,.25-.837l-.326-.35-.112.2a.315.315,0,0,1-.078.517l-.026.119ZM107.8,96.28l-.814-.869c-.557-.811-.95-.419-.95-.419l-.391.14a1.492,1.492,0,0,1,.475.531c.335-.056.363.112.363.112l.866,1.047v-.014a.284.284,0,0,1,.252-.307.223.223,0,0,1,.094.021Z" transform="translate(3.801 -80.786)" fill="#3d5065" fill-rule="evenodd"/>
  <path id="Path_619" data-name="Path 619" d="M105.257,95.562c-.2-.223-.335-.391-.419-.307a7.681,7.681,0,0,1,.447,1.061,3.655,3.655,0,0,1,.225,1.341l.417.029.11.014L106,97.484a.3.3,0,0,1-.21-.3c0-.2.112-.337.252-.337a.077.077,0,0,1,.023,0l.051-.241c-.07-.082-.14-.171-.215-.263-.112-.14-.252-.281-.363-.42-.083-.138-.2-.25-.28-.362Zm.892,2.151.449.058a.93.93,0,0,1-.056-.644l-.3-.356-.033.152a.361.361,0,0,1,.107.263.316.316,0,0,1-.192.288l.022.24Z" transform="translate(5.193 -80.183)" fill="#3d5065" fill-rule="evenodd"/>
  <path id="Path_620" data-name="Path 620" d="M103.467,101.276c.2.279.784.2.784.2.085-.056.056-.391.056-.391a.636.636,0,0,1-.026-.308c.138.026.167.194.167.194a2.917,2.917,0,0,1-.085.337c.616-.393.085-1.147.085-1.147a2.019,2.019,0,0,1,.335-.977c.642-.56.979-.363.979-.363a6.252,6.252,0,0,1,1.481.308c.361.112,1.648.335,1.648.335a.444.444,0,0,1,.112-.223c.363-.252.613-1.454.613-1.454,0-.194.085-.112.085-.112a.646.646,0,0,1,.029.308,3.029,3.029,0,0,1-.281,1.173,3.853,3.853,0,0,0,1.818.308,2.939,2.939,0,0,0,1.452-.419,4,4,0,0,1,1.7-.252l-.026-.167c-.7-.308-.223-.672-.223-.672l-.281-.391a15.5,15.5,0,0,1-3.1-1.285,5.209,5.209,0,0,0-3.074-.923,3.557,3.557,0,0,0-.728,2.46l.5.056a2.154,2.154,0,0,1,.616-1.622c.2-.083.056.14.056.14a2.032,2.032,0,0,0-.419,1.76,14.3,14.3,0,0,0-2.153-.223,1.119,1.119,0,0,0-.892.138,1.734,1.734,0,0,0-.475.728l-.363,1.259a3.843,3.843,0,0,0-.393,1.226Zm7.8-3.27a4.848,4.848,0,0,1-.475,1.231c.056.194.279-.112.279-.112a3.486,3.486,0,0,0,.335-1.065C111.348,97.589,111.266,98.006,111.266,98.006Zm-.924-.391a3.5,3.5,0,0,1-.557,1.425c-.085.223.167.056.167.056a3.747,3.747,0,0,0,.475-1.425c-.029-.252-.085-.056-.085-.056Zm.449.252a2.663,2.663,0,0,1-.531,1.229c-.112.2.138.085.138.085a2.414,2.414,0,0,0,.531-1.343C110.873,97.531,110.791,97.868,110.791,97.868Zm3.074,1.144a1.256,1.256,0,0,1,.616-.051l.061.3a.374.374,0,0,0-.2.342.341.341,0,0,0,.308.361h.026v.435a5.542,5.542,0,0,1-.922.21c-.475.112-.14.391-.14.391a1,1,0,0,1,.308.419c.223.252-.141.447-.141.447a4.169,4.169,0,0,0-1.593.894,9.6,9.6,0,0,1-1.452-.026,1.656,1.656,0,0,1-.393-.56.4.4,0,0,1,.587.056,1.523,1.523,0,0,0,.728.085c.419-.223,1.035-.5,1.035-.5a.423.423,0,0,1,.279-.056c.167-.056-.029-.2-.029-.2a3.827,3.827,0,0,1-.754-.7c-.223-.363,0-.531,0-.531A14.323,14.323,0,0,1,113.864,99.012Zm.788,0a.933.933,0,0,1,.442.363c.167.363.112.449.112.449a.637.637,0,0,0,0,.335,2.252,2.252,0,0,1-.391.19V99.9a.388.388,0,0,0,.138-.3.348.348,0,0,0-.286-.363Z" transform="translate(4.998 -80.168)" fill="#3d5065" fill-rule="evenodd"/>
  <path id="Path_621" data-name="Path 621" d="M123.484,98.5a3.489,3.489,0,0,0,.029-1.229c-.2-.419-.393-.5-.393-.5,0-1.2-.725-1.368-.725-1.368a1.637,1.637,0,0,0,.138.531c.056.112-.138-.029-.138-.029a.794.794,0,0,0-.393-.587,1.491,1.491,0,0,1-.419-.363c-.308.5.5,1.035.5,1.035a18.758,18.758,0,0,0-3.438.391,3.349,3.349,0,0,1-2.4-.167.948.948,0,0,1-.557-1.23,1.417,1.417,0,0,1,1.341-.755,4.987,4.987,0,0,1,1.343.224,5.78,5.78,0,0,0,2.766-.056,1.9,1.9,0,0,0,.922-1.034,1.641,1.641,0,0,1-1.006.251,3.451,3.451,0,0,1-1.537.392c.784-.307.756-.616.756-.616a1.329,1.329,0,0,1,.361-.448,2.912,2.912,0,0,0-1.033.531,2.709,2.709,0,0,1-1.2.252.743.743,0,0,1-.391-.027c.557-.168.587-.392.587-.392a3.186,3.186,0,0,0-2.46.448,1.729,1.729,0,0,0-.781,1.845c.194.894,1.786,1.173,1.786,1.173a19.412,19.412,0,0,0,3.244-.167,3.416,3.416,0,0,1,1.7.029c.167.112,0,.138,0,.138-.812-.112-1.062.838-1.062.838a1.45,1.45,0,0,1,1.314-.447c.138.026,0,.056,0,.056a.887.887,0,0,0-.672.2,1.121,1.121,0,0,0,.922.194.578.578,0,0,0,.337-.279,1.115,1.115,0,0,1,.167,1.173,1.239,1.239,0,0,1-.56.475,4.171,4.171,0,0,1-1.957-.223,2.35,2.35,0,0,0-.922-.14c-.085-.026-.223-.082-.335-.112a21.87,21.87,0,0,0-2.4-.475l.141.2c.223.056.335.167.363.279a.373.373,0,0,1-.029.223.7.7,0,0,1-.141.223l.114.225a.925.925,0,0,1,.725,1.062,1.38,1.38,0,0,0,.5.977,2.579,2.579,0,0,0,1.928.7c.337,0,.393.085.393.085.335.2.279,1.091.279,1.091a2.251,2.251,0,0,1-.167.754c.112.279.669.14.669.14a.218.218,0,0,0,.114-.14.4.4,0,0,0-.085-.335c-.056-.085,0-.056,0-.056a.624.624,0,0,1,.335.587.767.767,0,0,0-.223-1.175c-.112-.026-.2-.056-.2-.056a8.34,8.34,0,0,1-.112-1.089v-.2l-.279-.308a2.076,2.076,0,0,1-1.341-.082,2.749,2.749,0,0,0,.026-.363,10.882,10.882,0,0,0-.112-1.734,12.887,12.887,0,0,0,1.51.335,2.657,2.657,0,0,0,.922.114c.728.167.5.669.5.669.587-.475.082-.81.082-.81a1.043,1.043,0,0,0,.644-.838Zm-39.042.279a1.833,1.833,0,0,1,.139-1.341,3.344,3.344,0,0,1,1.733-1.425,1.724,1.724,0,0,1,1.342-.81,1.866,1.866,0,0,1-.308.419,2.4,2.4,0,0,0,.95-.531,1.014,1.014,0,0,1-.587.894,25.633,25.633,0,0,0,5.086-.056,1.284,1.284,0,0,0,1.146-1.314c-.251-1.006-1.509-.419-1.509-.419-2.656,1.537-3.941-.5-3.941-.5a6.957,6.957,0,0,0,1.9.251,4.134,4.134,0,0,1-1.09-.894,1.213,1.213,0,0,1,.587.224,2.714,2.714,0,0,0,1.425.28c-.224-.251-.587-.67-.587-.67a2.5,2.5,0,0,0,.894.2c.28.027.5.056.5.056a1.627,1.627,0,0,0,.726,0,1.735,1.735,0,0,1,1.593,1.453c.139,1.677-1.789,1.816-1.789,1.816a43.277,43.277,0,0,1-5.115.168,1.019,1.019,0,0,1,.56.615,1.606,1.606,0,0,0,.2.337c-.448.026-.894-.56-.894-.56a4.67,4.67,0,0,0,.5.7c-.251.112-.782-.531-.782-.531a1.142,1.142,0,0,0-1.565.029c-.784.613-.643,1.144-.643,1.144a.628.628,0,0,0,.2.475.967.967,0,0,0,.782.281,5.138,5.138,0,0,0,1.509-.281,4.533,4.533,0,0,0,.867-.335,1.131,1.131,0,0,1,.251.029,1.108,1.108,0,0,1,.616-.14,32.983,32.983,0,0,0,4.75-1.4,7.277,7.277,0,0,0,1.342-1.117c.307.2.5.923.5.923a.521.521,0,0,0,.2-.252c.168.614,1.006.95,1.006.95a.777.777,0,0,1,.448.279l.083-.252a12.133,12.133,0,0,0,1.817,1.314q.883.6,1.789,1.175c.754-.838,1.285-.337,1.285-.337a.3.3,0,0,1-.252.085.925.925,0,0,0-.642.194c.924-.138,1.091.169,1.091.169.194.447-.449.669-.449.669a.554.554,0,0,0-.587-.587.772.772,0,0,1,.419.642c-.2.531-.672.114-.672.114a2.735,2.735,0,0,1-.419-.308,5.988,5.988,0,0,1-2.682-1.035l-.7.308a3,3,0,0,1-.894-1.091c-.083-.138-.139-.25-.139-.25v.25a2.137,2.137,0,0,0,.335.728c-1.2,1.369-3.353.141-3.353.141-.251-.085-1.035-.5-1.035-.5a3.843,3.843,0,0,0-3.27,1.985l-.168.279c-.167,1.259-.559,1.259-.559,1.259a.54.54,0,0,0-.279-.7,8.245,8.245,0,0,1-1.118.026,1.519,1.519,0,0,0-.085,1.537c.978-.026.559.754.559.754a.341.341,0,0,1-.307.252.669.669,0,0,0-.726-.754c.642.252.5.642.5.642-.167-.029-.335.252-.335.252a1.833,1.833,0,0,1-.81-1.7c.112-1.929.531-2.293.531-2.293.141-.056.2.029.2.029a1.583,1.583,0,0,0,.978.026c.224-.056.28-.5.28-.5a3.318,3.318,0,0,1,.67-1.4c-.363.169-2.4.7-2.4.7a1.662,1.662,0,0,0-1.2,1.033c-.614-.754.363-1.173.363-1.173a.964.964,0,0,1-.753-.612Zm10.927-.642a5.085,5.085,0,0,0,1.006,1.147,1.457,1.457,0,0,0,.224.167.343.343,0,0,1-.2.056,3.288,3.288,0,0,1-1.062-1.118c-.14-.279.027-.251.027-.251Zm-.923.586a4.761,4.761,0,0,0,.531.587,2.052,2.052,0,0,0,.643.5A1.575,1.575,0,0,1,94.446,99c-.112-.225-.083-.308-.083-.308Zm.475-.363a3.092,3.092,0,0,0,1.034,1.119c.2.056.14.194.14.194-.168.029-.224-.056-.224-.056a1.766,1.766,0,0,1-1.005-1.089c-.14-.307.055-.169.055-.169Z" transform="translate(2.281 -80.518)" fill="#3d5065" fill-rule="evenodd"/>
</svg>
