<svg id="Group_106" data-name="Group 106" xmlns="http://www.w3.org/2000/svg" xmlns:xlink="http://www.w3.org/1999/xlink" width="162.488" height="32.21" viewBox="0 0 162.488 32.21">
  <defs>
    <clipPath id="clip-path">
      <rect id="Rectangle_1686" data-name="Rectangle 1686" width="162.488" height="32.21" fill="#3d5065"/>
    </clipPath>
  </defs>
  <g id="Group_91" data-name="Group 91" transform="translate(0 0)" clip-path="url(#clip-path)">
    <path id="Path_426" data-name="Path 426" d="M236.546,53.135l-.27,0-.005-.807a.466.466,0,0,1,.435.131.459.459,0,0,1-.16.681m.623-.871a4.532,4.532,0,0,0-1.625-.159c0,.059-.013.116.016.159a.842.842,0,0,1,.176.037v.829a.661.661,0,0,0-.176.019c0,.058-.016.116.014.159a5.571,5.571,0,0,0,1.48-.014.708.708,0,0,0,.333-.594.512.512,0,0,0-.218-.436" transform="translate(-174.62 -38.628)" fill="#3d5065"/>
    <path id="Path_427" data-name="Path 427" d="M244.6,26.483l.16.058s-.063.124-.026.188.122.16.2.117a.266.266,0,0,0,.146-.3h.115l.017.1c-.016.188-.073.324-.328.31-.234-.013-.318-.26-.284-.472m.506.7s.2.063.2.063l.062.082.1-1.112-.1-.078a.587.587,0,0,1-.473.2c-.179,0-.37-.038-.527-.044.057.189-.025.41.092.63a.625.625,0,0,0,.647.255" transform="translate(-181.162 -19.38)" fill="#3d5065"/>
    <path id="Path_428" data-name="Path 428" d="M251.328,26.348h.115a.269.269,0,0,0,.144.306c.08.042.156-.04.2-.118s-.027-.188-.027-.188l.161-.057c.034.211-.051.458-.285.471-.254.014-.311-.122-.326-.31Zm.4.574c.368-.053.394-.558.38-.907a1.152,1.152,0,0,1-.565.17.628.628,0,0,1-.426-.213l-.083.043.218,1.146a.677.677,0,0,1,.476-.239" transform="translate(-186.108 -19.255)" fill="#3d5065"/>
    <path id="Path_429" data-name="Path 429" d="M223.909,20.274a.567.567,0,0,0-.3-.522.415.415,0,0,0-.393.015c-.188.1-.175.3-.145.463.044.073.1.16.2.131.189-.116-.146-.333.13-.406.13-.015.2.145.248.232a.512.512,0,0,1-.262.508.8.8,0,0,1-.58-.043.826.826,0,0,1-.348-.595.841.841,0,0,1,.493-.8c.668-.319,1.147.277,1.624.7a.871.871,0,0,0-.667.318m-2.684-1.74a.75.75,0,0,1,.016-.681.938.938,0,0,1,.595-.465,1.111,1.111,0,0,1,.914.275A11.326,11.326,0,0,1,223.678,19a1.175,1.175,0,0,0-1.19.247,1.5,1.5,0,0,0-.232.536,9.9,9.9,0,0,0-1.03-1.247m-3.2,1.335a5.653,5.653,0,0,0-2.438.3,7.794,7.794,0,0,0,.059-1.538c.42-.536,1.146-.478,1.8-.521a13.418,13.418,0,0,1,3.264.42c.233.668.986,1.117,1.247,1.77a28.207,28.207,0,0,1-3.93-.435m-.377.754a5.086,5.086,0,0,1-1.887-.175,3.787,3.787,0,0,1,1.769-.334l.145.015c-.042.16,0,.333-.027.493m-4.44,0-4.947-.885a7.031,7.031,0,0,0-2.132.014,4.031,4.031,0,0,0,.115-1.378c.073-.246.363-.231.551-.347a7.026,7.026,0,0,1,2.466.088,49.448,49.448,0,0,0,6.092.956,11.05,11.05,0,0,1-.03,1.407c.146.232.406.218.624.276a14.382,14.382,0,0,1-2.741-.13m-5.135-.189a6.47,6.47,0,0,1-1.915-.247l-.072-.087a3.341,3.341,0,0,1,2-.1Zm-8.341.014a14.672,14.672,0,0,0,1.871-.74,13.448,13.448,0,0,1-1.871-.972,49.4,49.4,0,0,0,6.252.175c.015.464-.173.9-.129,1.319.232.29.579.261.884.349a37.621,37.621,0,0,1-7.006-.131m4.28-3.365a8.365,8.365,0,0,0,1.827-.377,9.129,9.129,0,0,0,1.684-.159c.028.289.188.565.072.87l-.8.087a1.33,1.33,0,0,0-.871.58c-.071-.1.058-.348-.159-.348a.169.169,0,0,0-.16.1c.014.059.057.131.029.189a.23.23,0,0,0-.145.363c-.029.029-.087.014-.116.014-.145-.1-.088-.3-.246-.392-.058-.116.1-.189,0-.276a.218.218,0,0,0-.261,0c-.087.16.043.392-.218.435l.058.262c-.188.087-.2-.146-.262-.233-.028-.145-.2-.231-.072-.377.043-.072-.058-.131-.116-.131a.165.165,0,0,0-.174.1c.1.175-.1.248-.217.29l.029.348c-.145,0-.188-.159-.232-.262.029-.145-.16-.116-.174-.247.1-.318.131-.754.522-.841m2.872-3.51c.146-.986,1.161-1.48,1.755-2.162.015.42-.318.711-.595.986ZM208.2,10.8c-.015.579-.638.884-1.044,1.2a2.083,2.083,0,0,1,1.044-1.2m.3-.494a1.422,1.422,0,0,1,1.191.378c.034-.057.115-.088.144-.147a.087.087,0,0,0-.014-.057,3.9,3.9,0,0,1,.883-.188,4.622,4.622,0,0,1,1.1.086c.015.059.072.145.145.145.188-.1.289-.319.494-.407a1.638,1.638,0,0,1,.58-.086,1.213,1.213,0,0,1-.3.74c-.088.116-.275.043-.3.188a2.321,2.321,0,0,1,.174,1.741.537.537,0,0,1-.349.3.857.857,0,0,1-.213.03l-.018.087.292.185-.026.168L212,13.346l-.04.147.286.185-.03.141-.291-.116-.057.175.293.177-.058.26-.887-.343s0-.393,0-.4a.634.634,0,0,0,.333-.363c.015-.087.043-.232-.043-.3a1.027,1.027,0,0,1-.541.194.839.839,0,0,1-.547-.121.362.362,0,0,0,.057.42.734.734,0,0,0,.314.186V14l-.836.4-.076-.229.268-.167-.059-.2-.277.161-.057-.136.3-.193-.068-.184-.308.165-.035-.107.3-.226s-.017-.108-.019-.117c-.248-.03-.551-.087-.638-.377a4.2,4.2,0,0,1-.131-1.48c.014-.072.188-.116.072-.189-.42.016-.595-.464-.726-.754Zm.61-1.131a.215.215,0,0,1-.142-.173,2.775,2.775,0,0,1,.663-.393c.015,0-.015.291,0,.293-.024.066-.081.019-.175.138a.194.194,0,0,0,.145.289,1.469,1.469,0,0,1,.159-.01c.059.175-.069.255-.2.319-.19.092-.275-.159-.275-.159l.145-.072-.189-.362s-.063.155-.131.13m2.974.667a.326.326,0,0,1-.087.1,5.3,5.3,0,0,0-2.481.144A.348.348,0,0,1,209.4,10a4.662,4.662,0,0,1,2.684-.159m-.537-1.378s-.155.262-.16.275c-.088.015-.233-.033-.246.112-.073.2.073.352.233.294a.278.278,0,0,1-.175.246.261.261,0,0,1-.323-.139l0-.092.148.005,0-.453-.158,0,.014-.175a.881.881,0,0,0-.229-.031c-.08.009-.188.033-.188.033v.2h-.133l0,.439.178,0s.006.226-.13.261c-.224.057-.294.025-.338-.119l-.012-.1s.206.005.2-.166c0-.106-.014-.224-.138-.238-.085-.01-.1.038-.19.038-.012-.013-.087-.3-.09-.315a2.85,2.85,0,0,1,1.74-.072m.131.7a.2.2,0,0,0,.3-.16c.009-.123-.139-.2-.24-.211l-.021-.282.623.275-.043.19-.189-.088L212,9.235l.13.058a.285.285,0,0,1-.363.175c-.121-.027-.13-.189-.087-.3m3.206,3.7c-.611-.609-1.742-.841-1.814-1.813.536.71,1.609.856,1.814,1.813m-.233-1.262c-.421-.29-1.2-.463-1.234-1.147a2.216,2.216,0,0,1,1.234,1.147m-.885,4.613c-.363-.1-.87-.1-1.118-.524a1.213,1.213,0,0,1-.114-1.116c.014.725.768,1.174,1.232,1.639m.523-.045c-.523-.782-1.712-1.29-1.567-2.393.261.914,1.739,1.291,1.567,2.393m-1.161-4.148c.55.71,1.712,1.088,1.654,2.118-.493-.74-1.654-1.117-1.654-2.118m1.464,3.162c-.508-.812-1.813-1.2-1.6-2.292.377.841,1.625,1.247,1.6,2.292m-4.09.3.175-.014a.968.968,0,0,0-.291.624l-.363.014c.1-.2.189-.537.479-.624m.957.508-.61.057a.8.8,0,0,1,.263-.609c.246.073.3.334.348.552m.87-.029-.42-.043a1.116,1.116,0,0,0-.3-.494c.348-.058.566.291.725.537m-.595-.958-1.306.072a.153.153,0,0,1-.072-.245,1.338,1.338,0,0,1,.726-.377,1.3,1.3,0,0,1,.768.347.153.153,0,0,1-.116.2m-2.958,2.06-.015.464L208.5,17.5a.693.693,0,0,1,.277-.435m-.248-.319c.175-.638,1.162-1.1,1.074-1.93a1.055,1.055,0,0,1,.115.885c-.173.522-.813.7-1.189,1.045m-.333.724-.275-.028a.707.707,0,0,1,.145-.175c.087.014.087.131.13.2m-.16-.927c-.245-.783.624-1.291.957-1.929a2.425,2.425,0,0,0,.291-.7c.347,1.1-.842,1.741-1.248,2.626m-.813-1.829c-.159-1.059,1.017-1.653,1.45-2.407-.043.986-1.058,1.582-1.45,2.407m1.669-1.537c.291,1.118-1.117,1.683-1.292,2.684-.189-1.131.9-1.769,1.292-2.684m6.615,2.177c.115-.16,0-.363-.028-.537l-.218-.725c1.479.275,2.785,1.117,4.323,1.334a.891.891,0,0,0,.536.494l.522.043a2.161,2.161,0,0,0,.493,1.247,3.7,3.7,0,0,0-.493.755,15.047,15.047,0,0,0-3.9-.349,1.407,1.407,0,0,0,0-1.161c-.217-.159-.291-.522-.61-.551-.217.247.233.435.233.71a1.2,1.2,0,0,1-.189,1.089c-.318.159-.884.334-.87.826a15.074,15.074,0,0,1-2.017-.218c-.3-.261-.508-.7-.957-.624a.337.337,0,0,0-.289-.029c.057.261-.393.19-.2.465-.246.1-.158-.3-.333-.392.03-.13.188-.333-.029-.391-.1-.016-.175.086-.188.159.145.276-.362.232-.159.508-.087.043-.2-.072-.218-.159.028-.16-.218-.247-.087-.422a.109.109,0,0,0,0-.173c-.044-.1-.161-.029-.218,0-.116.13.1.45-.218.42l-.014.189c-.291.073-.145-.3-.363-.377.014-.145.246-.319.029-.421a.228.228,0,0,0-.217.16c0,.13-.059.275-.218.275l-.014.232c-.291.044-.131-.333-.348-.421a.918.918,0,0,1,.45-.74c1.188.116,2.45-.55,3.51.175.478-.261,1.247.3,1.494-.407l.1-.435a4.848,4.848,0,0,0,.464.377c.13-.116,0-.246-.014-.362a4.418,4.418,0,0,1-.276-1.088c.218.1.319.391.536.522m4.526-.8a.964.964,0,0,1,.754-.377.85.85,0,0,1,.7.348c.42.6-.233,1.618.623,2.394-.2-.059-.362.057-.551.043a2.076,2.076,0,0,1-.392-1.871.542.542,0,0,0-.261-.363.44.44,0,0,0-.507.189c-.015.116.014.3.158.334.059,0,.1-.058.131-.1a.251.251,0,0,1-.043-.175.2.2,0,0,1,.218-.028c.116.1.073.231.029.363a.56.56,0,0,1-.551.159.707.707,0,0,1-.348-.334.727.727,0,0,1,.043-.581m.043-1.755c-1.131.145-2.742,1.219-3.6-.116a1.354,1.354,0,0,1,.131-1.435c1.031-1.089,2.393.116,3.583-.218a.728.728,0,0,0,.348-.565l-.013-.29a.834.834,0,0,1,.043.783.762.762,0,0,1-.45.42c-1.03.161-1.973-.623-2.974-.159a1.029,1.029,0,0,0-.42.813.8.8,0,0,0,.217.594c.856.726,1.857-.087,2.756-.174a1.316,1.316,0,0,1,1.277.436,1.27,1.27,0,0,1-.188.2,1.2,1.2,0,0,0-.711-.29m-.842-.435c-.565.086-1.1.42-1.682.246-.16-.073-.145-.275-.087-.407.16-.216.435-.086.668-.1Zm1.364-.624a1.224,1.224,0,0,1-.957.189c-.856.014-1.712-.711-2.495-.116l-.087.13a.423.423,0,0,1,.246-.48c1.133-.536,3.162,1.262,3.512-.754a.91.91,0,0,1-.218,1.03m1.315.829a.6.6,0,0,1,.522-.043.671.671,0,0,1,.42.522c-.014.886-.391,1.542-.333,2.539a5.383,5.383,0,0,0,.276,1.566c-.826-.593-.876-1.212-.856-2.307a1.024,1.024,0,0,0-.573-.8,1.2,1.2,0,0,0-.674-.1,9.9,9.9,0,0,0,1.219-1.378m1.146-1.735a1.091,1.091,0,0,0,.962.693c-.333.3-.435.871-.944.958a.735.735,0,0,1-.725-.508c-.175-.609.446-.692.707-1.142m-.133,4.6a5.469,5.469,0,0,1,.736-2.78,3.7,3.7,0,0,1,.5-.661l0-.7a1.058,1.058,0,0,1-.748-.348.889.889,0,0,1-.253-.694.87.87,0,0,1,.6-.8.9.9,0,0,1,.936.218.831.831,0,0,1,.218.629.494.494,0,0,1-.444.535.443.443,0,0,1-.426-.218c-.074-.137-.079-.391.075-.391.21,0,.026.149.152.207a.149.149,0,0,0,.2-.05.247.247,0,0,0-.047-.273.341.341,0,0,0-.39-.087.43.43,0,0,0-.241.535.552.552,0,0,0,.519.448l.879,0,.494-.334.611-.3a.919.919,0,0,0-.16-.385l-.753.4a1.679,1.679,0,0,0-.524-1.153,1.35,1.35,0,0,0-2.175,1.219c-.392.494-1.2.915-.856,1.655-.348.014-.523.42-.754.609l-.464-.377.377-.261a1.465,1.465,0,0,0,.306-1.465,1.6,1.6,0,0,0-1.191-1.132.79.79,0,0,0-.7.159.62.62,0,0,0-.145.494.4.4,0,0,0,.391.3c.234-.072-.086-.189,0-.334.03-.116.174-.131.292-.116a.383.383,0,0,1,.231.434.5.5,0,0,1-.363.276c-1.03-.043-2.132-.783-3.089-.1a1.664,1.664,0,0,0-.871,1.364,1.761,1.761,0,0,0,.609,1.436c1,.826,2.393.189,3.451-.1.188-.044.436-.044.524.145a2.389,2.389,0,0,0-.973,1.48c-1.478-.3-2.727-1-4.206-1.32-.175.014-.218-.2-.263-.3l.552.189.029-.044c-.232-.435-.42-.9-.608-1.334.188.014.333.188.522.159V12.18c-.667-.725-.928-1.958-2.032-2.146-.027-.218.1-.406.088-.609h-.131l-1.073.3-.043-.043a2.93,2.93,0,0,1,.435-.813c-.088-.131.131-.2.058-.363-.043-.189-.276-.174-.406-.145.029-.493-.479.043-.552-.362a.285.285,0,0,0-.333.043l-.13-.175a.5.5,0,0,0-.333.043c-.044-.261-.363-.421-.248-.711a1.24,1.24,0,0,1,.32.03,2.284,2.284,0,0,0,0-.45l-.377.014V6.393c-.161-.015-.292.042-.465.028,0,.131.072.291.072.436h-.392a2.185,2.185,0,0,0,.043.435c.13.014.246-.117.378-.029.087.3-.145.479-.188.725l-.03-.043c-.116-.014-.218-.043-.306.043-.027.392-.318-.116-.463.175.029.391-.348-.059-.45.232.073.348-.275.087-.377.29-.13.159.115.3.043.45a1.564,1.564,0,0,1,.551.783,11,11,0,0,1-1.233-.175c.015.232.188.42.174.638a1.973,1.973,0,0,0-1.276,1.494c-.1.349-.421.624-.406,1,.144.015.261-.189.391-.131a10.7,10.7,0,0,0-.479,1.509c.145.1.334-.218.523-.218a8.673,8.673,0,0,1-.174,1.64c.13.247.318-.2.493-.174a2.79,2.79,0,0,1,0,.595,35.1,35.1,0,0,0-3.524.637c-.451.174-.465.712-.624,1.089-.088.334.406.3.318.623a54.135,54.135,0,0,1-5.613-.435,18.261,18.261,0,0,0,2.611,1.64v.043a19.936,19.936,0,0,1-3.034.957,45.887,45.887,0,0,0,7.922.521,16.443,16.443,0,0,0,2.958-.289c.218-.145.059-.449.16-.624,3.032.392,6.049,1.479,9.27.813.435,0,.188-.508.29-.7,1.479.029,2.844.653,4.352.377a.966.966,0,0,0,1.016.435c.7-.1,1.073-1.146,1.9-.754a6.091,6.091,0,0,0,2.83.953l-.42-.444a5.577,5.577,0,0,1-4.652-5.508" transform="translate(-146.274 -4.738)" fill="#3d5065"/>
    <path id="Path_430" data-name="Path 430" d="M256.4,55.416v-.158l-.791-.131v.188l.076.012,0,.7c-.058.117-.2.117-.333.117-.3,0-.189-1.074-.189-1.074l-.71-.1v.171a1.121,1.121,0,0,1,.131.046c.028.363-.087.783.247,1.015a.941.941,0,0,0,.89.07.735.735,0,0,1,.1.1l.549.074,0-.177-.1-.027.005-.841Z" transform="translate(-188.644 -40.751)" fill="#3d5065"/>
    <path id="Path_431" data-name="Path 431" d="M248.882,54.79a1.491,1.491,0,0,1-.425-.006v-.364a.381.381,0,0,1,.17.066c.063.072.112.166.236.123-.018,0,.005-.408-.005-.415-.043-.028-.156-.021-.169.053a.454.454,0,0,1-.245,0V53.93s.422-.009.552.175a.747.747,0,0,1,.088.238l.2.013-.058-.445-1.461-.271V53.8l.155.05-.005.842-.163-.025v.175l1.416.269.159-.434-.188-.072a.443.443,0,0,1-.257.182" transform="translate(-183.674 -39.767)" fill="#3d5065"/>
    <path id="Path_432" data-name="Path 432" d="M279.85,52.865l-.005.5.094-.007a.622.622,0,0,1,.176-.194.706.706,0,0,1,.246,0v.854l-.176,0v.145l.826.145,0-.115-.148-.088,0-.856s.159.024.2.078a2.869,2.869,0,0,1,.175.277l.138,0,0-.49Z" transform="translate(-207.465 -39.192)" fill="#3d5065"/>
    <path id="Path_433" data-name="Path 433" d="M274.254,53.729a.637.637,0,0,1-.477.015l.005-.286s.264-.049.264.076l.123.006,0-.372h-.128a.242.242,0,0,1-.287.128v-.339a.439.439,0,0,1,.412,0,.7.7,0,0,1,.2.26h.143l-.087-.45-1.407,0v.192l.161.029V53.8l-.146.059.005.135,1.4.01.115-.363-.19-.026a.5.5,0,0,1-.114.114" transform="translate(-202.406 -39.12)" fill="#3d5065"/>
    <path id="Path_434" data-name="Path 434" d="M243.36,52.964l.168.087-.005.829c-.043.029-.169-.012-.169-.012l-.019.151s.88.175.88.164v-.164l-.135-.04v-.864l.16-.007v-.13l-.879-.166Z" transform="translate(-180.398 -39.153)" fill="#3d5065"/>
    <path id="Path_435" data-name="Path 435" d="M280.964,45.3l-.1-.2-2.177-.392.088.13a15.842,15.842,0,0,0,2.19.465" transform="translate(-206.606 -33.141)" fill="#3d5065"/>
    <path id="Path_436" data-name="Path 436" d="M279.579,46.662l.131-.175c-.987-.159-1.973-.334-2.931-.552l.088.116a16.96,16.96,0,0,0,2.712.61" transform="translate(-205.193 -34.054)" fill="#3d5065"/>
    <path id="Path_437" data-name="Path 437" d="M282.05,44c-.014-.071.016-.189-.071-.216-.537-.074-1.118-.131-1.611-.2l.073.087A10.257,10.257,0,0,0,282.05,44" transform="translate(-207.853 -32.311)" fill="#3d5065"/>
    <path id="Path_438" data-name="Path 438" d="M313.288,19.472a7.113,7.113,0,0,1-3.407.007l0-.309a5.443,5.443,0,0,1,3.4-.05Zm-3.717-.628-.094.033c.261.232,0,.608.3.812a6.757,6.757,0,0,0,3.525-.015c.392-.159.017-.632.308-.863a5.975,5.975,0,0,0-4.044.033" transform="translate(-229.433 -13.696)" fill="#3d5065"/>
    <path id="Path_439" data-name="Path 439" d="M307.347,3.03c-.193.109-.182.193-.193.268-.015.1.126.268.126.268s-.2-.052-.264,0c-.147.129-.1.236-.087.392.006.09.072.131.131.189.085-.083.127-.108.32-.116a.39.39,0,0,1-.26.494c-.268.084-.376-.05-.467-.233a.41.41,0,0,1,.257-.093l-.243-.515-.275.23-.092-.151-.034-.167a4.009,4.009,0,0,1,1.08-.57m2.711,0c-.318.009-.352.251-.3.453-.072-.044-.227-.15-.347-.057-.165.125-.12.366-.063.525a.315.315,0,0,1,.344-.041.393.393,0,0,1-.418.394.317.317,0,0,1-.344-.386.5.5,0,0,1,.252.042,1.1,1.1,0,0,1,.008-.62h-.252L309,3.014h-.67l.058.334c-.106,0-.18,0-.261,0a.688.688,0,0,1,.058.6.924.924,0,0,0,.252-.03.361.361,0,1,1-.717.059A.284.284,0,0,1,308,3.969a.233.233,0,0,0,.085-.184c-.023-.148-.017-.291-.168-.345a.365.365,0,0,0-.267.06.789.789,0,0,0-.018-.294.337.337,0,0,0-.268-.175,4.191,4.191,0,0,1,2.7,0m.99.511-.085.293a1.973,1.973,0,0,1-.22-.19l-.261.492c.079.015.2.021.255.108a.4.4,0,0,1-.5.234c-.251-.1-.218-.293-.177-.5.151,0,.211.034.261.11.076-.076.242-.227.167-.427-.039-.1-.24-.13-.327-.1a.336.336,0,0,0-.074-.511,3.789,3.789,0,0,1,.963.494m-5.251.125-.059.063a3.278,3.278,0,0,1,.8,1.219,6.633,6.633,0,0,1,4.337-.029,3.562,3.562,0,0,1,.363-.754,3.679,3.679,0,0,1,.391-.479l-.079-.062a.39.39,0,0,0,.123-.186c.018-.175.058-.348-.059-.45a.584.584,0,0,0-.464-.029.434.434,0,0,0-.115-.319c-.146-.159-.378-.029-.509.014a.378.378,0,0,0-.159-.3.432.432,0,0,0-.45.087.838.838,0,0,0-.188-.275c-.145-.116-.363-.016-.463.058l-.091-.283-.162-.381-.058-.377.513.126V.6l-.513.132.1-.727h-.778l.1.728L307.824.6v.71l.552-.126-.062.418-.137.364-.073.287a.485.485,0,0,0-.349-.116c-.174,0-.232.189-.29.3a.444.444,0,0,0-.378-.116c-.174.044-.232.233-.289.363l-.1-.073c-.16-.029-.363-.029-.435.145-.088.058.057.32-.117.247a.345.345,0,0,0-.45.13.386.386,0,0,0,.1.532" transform="translate(-226.58 -0.001)" fill="#3d5065"/>
    <path id="Path_440" data-name="Path 440" d="M312.787,21.867l.478.071.088-.056a5.718,5.718,0,0,1,1.4-.011l.058.076.436-.085a4.379,4.379,0,0,0-2.462.005" transform="translate(-231.887 -16.078)" fill="#3d5065"/>
    <path id="Path_441" data-name="Path 441" d="M261.186,47.617a11.477,11.477,0,0,0,1.582-.1c.378-.174.362-.725.275-1.073a.293.293,0,0,0-.115.043c-.087.276.043.668-.248.827l-1.464.174Z" transform="translate(-193.632 -34.431)" fill="#3d5065"/>
    <path id="Path_442" data-name="Path 442" d="M279.348,48.331c.059-.057.043-.145.073-.2a27.1,27.1,0,0,1-2.7-.508.147.147,0,0,0,.073.116,16.269,16.269,0,0,0,2.552.595" transform="translate(-205.151 -35.304)" fill="#3d5065"/>
    <path id="Path_443" data-name="Path 443" d="M361.062,53.564s.348.011.439,0v-.137h-.113v-.578l.737.814.2,0V52.6h.1v-.164l-.4-.012v.151h.111V52.9l-.524-.5-.71-.015.018.162h.251l.007.854-.108.012Z" transform="translate(-267.561 -38.837)" fill="#3d5065"/>
    <path id="Path_444" data-name="Path 444" d="M355.5,53.49c-.169.031-.27-.144-.294-.421s-.156-.586.163-.609c.239-.017.233.255.265.472.037.264.05.523-.134.558m-.043-1.16a.885.885,0,0,0-.624.246.57.57,0,0,0-.16.58.71.71,0,0,0,.348.421,1.151,1.151,0,0,0,.826-.043.662.662,0,0,0,.291-.842.706.706,0,0,0-.681-.362" transform="translate(-262.926 -38.794)" fill="#3d5065"/>
    <path id="Path_445" data-name="Path 445" d="M371.106,49.7c-.072,0-.145,0-.16.071.057.233-.058.595.16.769a5.29,5.29,0,0,1,1.7.536c.044.029.19.074.175-.043a3.621,3.621,0,0,0-1.61-.668c-.3-.087-.073-.493-.262-.666" transform="translate(-275.004 -36.845)" fill="#3d5065"/>
    <path id="Path_446" data-name="Path 446" d="M343.54,23.356c.219-.072.581-.116.77-.362-.013-.435-.174-.856-.159-1.306,1.218-.029,2.437-.145,3.64-.246a10.825,10.825,0,0,1-1.972.987,10.616,10.616,0,0,0,1.9.754,22.157,22.157,0,0,1-4.178.173m-1.421-.1c-.014-.175-.145-.422-.028-.522a4.6,4.6,0,0,1,1.9.13c-.043.189-.29.131-.42.218-.465.072-.957.146-1.451.175m-4.293.13c0-.48.667-.246.813-.682a.85.85,0,0,0-.116-.7c-.436-.464-1.074-.058-1.6-.043l-.262-.175c2.234-.261,4.221-1.218,6.6-1.044a.854.854,0,0,1,.595.348A8.308,8.308,0,0,0,344,22.559c-2.19-.406-4.163.421-6.179.827m-.276-1.32a.437.437,0,0,1,.42.059c.2.174.3.666-.015.8,0,0-.39-.852-.406-.856m-.784-.8h.087v.015h-.087Zm.392,2.422c-.377.2-.784-.014-1.175-.028a2.728,2.728,0,0,0-1.567.072,5.027,5.027,0,0,1-1.088-.594c.174-.334.594-.349.957-.378.509.16.929.581,1.567.422a.314.314,0,0,0,.348-.175c-.173-.275-.521-.261-.784-.348-1-.218-1.813-.871-2.915-.827-.334-.378-.087-.958-.13-1.437.072-.1.3-.218.188-.363-.043-.087-.161-.057-.218-.028l-.478.3a2.191,2.191,0,0,1,.029.435,5.967,5.967,0,0,0-1.074-.174c-.1-.3.335-.059.306-.334l.087-1.1c-.015-.216-.363-.159-.188-.4.1.014.245.1.333,0l.623-1.017a.251.251,0,0,0-.13-.261l.145-.159c.159.275.464.014.7.014.232-.159.8.03.739-.434v-.058l.262-.043c-.014.2-.031.492-.189.609-.376.136-.959.032-1.315.21l-.309.545c.8-.2,1.725-.189,2.51-.45a15.4,15.4,0,0,1,2.422,1.045c-.29.391-.131.87-.072,1.333a1.987,1.987,0,0,1-.7,1.306c-.333-.318.233-.551.261-.87.073-.189.145-.508-.043-.667-.289.014-.073.377-.2.522a5.313,5.313,0,0,0-.347.682.948.948,0,0,1-.45-.377c-.087-.189.247-.406-.015-.536a3.37,3.37,0,0,1-.855.652c-.044.043-.073.1-.044.145.2.232.45-.1.652.16a12.445,12.445,0,0,0,2.307,1.654c.261.319-.014.667-.145.957m-4.729-1.247c0-.145.16-.175.261-.2a2.4,2.4,0,0,1,1.2.319,1.819,1.819,0,0,0-.812.377,1.047,1.047,0,0,1-.652-.493m-.378,1.262c.1-.072.276-.131.335-.276l-.015-.348a.753.753,0,0,0,.521.232c0,.16.189.29.291.349Zm-1.769-.131-.058-.463a3.861,3.861,0,0,1,1.827.275l-.015.058a4.668,4.668,0,0,1-1.754.13m-4.6-.391a4.9,4.9,0,0,1,.812-1.058,1.071,1.071,0,0,1,.118.121v.566l-.109.013-.009.141.433,0,0-.128-.115-.022v-.339l.436.464.42-.627.062.4a.825.825,0,0,1-.134.037.473.473,0,0,0,.008.165l.792-.139-.026-.214a.937.937,0,0,1-.136.028l-.115-.769.139-.036-.024-.21-.507.087-.319.652-.531-.568-.137,0,.088-.218c1.581-.173,3.249-.725,4.887-.261a.494.494,0,0,1,.272.256c.159.358-.082.921.062,1.311a.523.523,0,0,1,.028.218c-2.16-.768-4.207.508-6.4.131m-.334-.392a1.322,1.322,0,0,0-.61-.754,1.137,1.137,0,0,0-.9.029c.477-.667.841-1.943,1.958-1.639a.816.816,0,0,1,.522.624c.159.783-.813,1.1-.972,1.74m-.421.726a.659.659,0,0,1-.638.217.616.616,0,0,1-.362-.378.3.3,0,0,1,.146-.348c.086-.014.188.014.2.1s-.146.218.013.275c.1.014.19-.1.2-.189a.4.4,0,0,0-.247-.435.444.444,0,0,0-.436.1c-.143.1-.13.276-.143.42a1.123,1.123,0,0,0-.74-.275c.478-.421.957-.929,1.639-.768a.823.823,0,0,1,.506.609,1.026,1.026,0,0,1-.145.668m-.385-7.2a.775.775,0,0,1,.268-.662.564.564,0,0,1,.611-.13l1.421,1.465a1.058,1.058,0,0,0-1.116.392c-.509.639.1,1.668-.45,2.306l-.509.493a5.8,5.8,0,0,0-.225-3.863m-.181-.85c-.42-.146-.555-.473-.889-.891a1.078,1.078,0,0,0,.816-.618c0-.058.045-.087.045-.144.377.377,1.159.841.651,1.45a.637.637,0,0,1-.624.2m6.035.087a.9.9,0,0,0,.363-.885c.03-.289-.29-.478-.45-.637-1.016-.408-1.974.362-3.018.189a.676.676,0,0,1-.392-.581v-.043a.723.723,0,0,0,.609.377c1.131-.073,2.727-1,3.554.232a1.3,1.3,0,0,1-.522,1.741c-1.363.668-2.67-.914-3.946.087l-.174-.145c1.132-1.233,2.641.333,3.975-.334m-.159-.348c.014.131-.146.261-.261.275a5.086,5.086,0,0,1-1.813-.232,4.732,4.732,0,0,1,1.9-.261.3.3,0,0,1,.174.218m-3.99-.726v-.043c1.191.915,2.495-.145,3.772-.028a.586.586,0,0,1,.434.711.6.6,0,0,0-.419-.392c-1.277-.159-2.858,1.131-3.787-.247m.913,2.858a1.009,1.009,0,0,1,.334.479.628.628,0,0,1-.217.565.489.489,0,0,1-.508.116.469.469,0,0,1-.261-.29.233.233,0,0,1,.145-.261c.275-.072.043.435.333.233a.368.368,0,0,0-.043-.363.4.4,0,0,0-.435-.087c-.465.318-.044.884-.146,1.363a1.3,1.3,0,0,1-.465.885.832.832,0,0,0-.535,0,2.755,2.755,0,0,0,.406-2.017,1,1,0,0,1,.377-.624,1.137,1.137,0,0,1,1.015,0m3.381,1.943.29.015-.059.739-.289-.028Zm.406-1.145c.145-.175.2-.392.348-.566l.233.145a3.518,3.518,0,0,1-.363.638c-.073-.058-.32-.087-.218-.217m2-1.553c.088.029.058.174.088.261a2.844,2.844,0,0,1-.711.188.51.51,0,0,1-.044-.291Zm2.162.45c.116.059.246.029.276-.1-.059-.436.333-.783.42-1.2a.845.845,0,0,0,.77-1.146c-.043-.043-.118-.117-.161-.03-.043.247-.144.567-.434.639a2.9,2.9,0,0,1-1.407-.073c-.421.1-.885.087-1.19.45a.372.372,0,0,1-.436-.029c-.072-.058-.16-.174-.043-.231.145-.1.406.014.522-.175a.326.326,0,0,0-.232-.348c-.29-.175-.725.492-.711-.117l.058-.405a.571.571,0,0,0,.479.086c.088-.029.175-.13.131-.217-.131-.246-.3.015-.479,0,.029-.189.275-.2.421-.275a2.385,2.385,0,0,0,1.508-.74c.378-.116.812.188,1.161-.073a1.526,1.526,0,0,1,.695-.754c.044.363.219.827-.086,1.131a.2.2,0,0,0,.26.058c.1-.058.1-.175.146-.276a2.692,2.692,0,0,1,1.189,2.872,5.925,5.925,0,0,1-.579,1.553c-.015,0-.1-.159-.2-.145a.357.357,0,0,0-.058-.391c-.219,0-.289.318-.537.216a.331.331,0,0,0-.115.233c.043.057.115.028.158.1.015.131-.1.2-.2.232a.335.335,0,0,1-.363-.232c-.016-.072-.043-.2.015-.246.1.029.275.232.3,0,0-.145.275-.3.044-.406l-.175-.043c.029-.087.145-.131.131-.246a1.209,1.209,0,0,0-.493-.189c-.072.058-.044.145-.044.231-.1.043-.145-.116-.248-.086a2.81,2.81,0,0,0-.172.479l.26.087a.431.431,0,0,1-.435.2c-.087-.059-.217-.1-.247-.218a.138.138,0,0,1,.1-.174m.7-5.324a2.13,2.13,0,0,1,.826-.622,1.565,1.565,0,0,1-.856,1.2c-.144-.159-.029-.406.03-.581m2.045-.333c0,.551-.594.856-.755,1.349-.115-.028-.13-.173-.173-.261-.073-.58.521-.855.928-1.088m1.016.7c-.117.652-.87.7-1.191,1.19-.13,0-.116-.145-.159-.218.116-.652.856-.754,1.35-.972m.927,1.1a3.627,3.627,0,0,1-1.725.61c-.087-.043-.044-.175-.03-.247.436-.434,1.132-.319,1.755-.363m.362,1.118a2.7,2.7,0,0,1-1.74.188c-.116-.043-.087-.174,0-.246.537-.348,1.189-.029,1.74.058m.074,1.06a1.811,1.811,0,0,1-1.727-.218c-.015-.1.088-.145.158-.189a4.383,4.383,0,0,1,1.568.407m-.233,1a1.4,1.4,0,0,1-1.522-.45.146.146,0,0,1,.13-.16,5.686,5.686,0,0,1,1.392.61m-1.654.434c-.028-.043,0-.116-.013-.173a.287.287,0,0,1,.3-.015l.927.7a1.4,1.4,0,0,1-1.219-.508m-.274.784a.413.413,0,0,1-.015-.348.419.419,0,0,1,.19,0l.71.914a1.378,1.378,0,0,1-.884-.566m-.393.725c-.043-.1-.013-.247.088-.261.333.1.449.522.725.725a.873.873,0,0,1-.813-.464m-.58-.131c-.058-.028-.13-.028-.173-.1a.182.182,0,0,1,.1-.2c.071-.014.159,0,.159.087.029.088-.043.16-.088.217m1.929,2.278a.83.83,0,0,1,.625.16,20.855,20.855,0,0,1-2.743.623c.7-.159,1.393-.55,2.118-.783m8.052,1.973a16.842,16.842,0,0,0,2.612-1.712,35.751,35.751,0,0,1-5.484.435c-.146-.043-.03-.275-.117-.377-.506-.739-1.652-.522-2.495-.492-.581-.059-1.276.609-1.682-.1a1.613,1.613,0,0,0-.986-.218c-.625.145-1.189.522-1.814.624a2.88,2.88,0,0,0,0-1.364c.015-.1.03-.218.131-.261a1.168,1.168,0,0,0,1.1.61c.015-.16-.231-.276-.261-.435.393.174.929.013,1.305.217-.013-.319-.435-.594-.609-.812a6,6,0,0,1,.927.058,2.3,2.3,0,0,0-.637-.957l.668.014c.2-.029.449,0,.638-.029a1.615,1.615,0,0,0-.813-.8l.638-.087c.189-.087.48.013.653-.087a2.831,2.831,0,0,0-1.087-.814l.957-.26c.13,0,.32.029.391-.029a2.205,2.205,0,0,0-1.089-.7v-.029c.218-.043.377-.231.567-.348.13-.086.332-.072.418-.2a2.781,2.781,0,0,0-1.275-.493v-.044c.289-.174.521-.45.812-.623v-.058a2.854,2.854,0,0,0-1.611-.275,1.267,1.267,0,0,0,.275-.566c.074-.189.233-.348.306-.507a2.483,2.483,0,0,0-1.379.218l.247-.987-.044-.028a2.61,2.61,0,0,0-1.319.521,2.636,2.636,0,0,1,.159-.87,2.678,2.678,0,0,0-1.059.349c-.436.232-.9.623-.842,1.161-.028.028-.115.014-.1.087a.848.848,0,0,1,.246.493.615.615,0,0,1-.261-.377.421.421,0,0,0-.523-.232.8.8,0,0,1,.2.45c-.26-.13-.247-.42-.45-.594a.362.362,0,0,0-.362-.029l.188.32-.03.043c-.276-.131-.231-.435-.478-.581a.33.33,0,0,0-.363,0c.072.131.218.261.2.406-.333-.13-.435-.841-.9-.595.1.1.231.2.231.334-.29-.073-.3-.392-.521-.536-.116-.043-.262-.1-.35-.029a.371.371,0,0,1,.145.291c-.2-.03-.189-.248-.347-.349a.367.367,0,0,0-.435-.159c.043.088.146.188.131.275-.189-.087-.174-.376-.421-.421a.179.179,0,0,0-.145.218.543.543,0,0,0,.247.232c.435-.071.639.422,1.088.319a.864.864,0,0,0,.71.291.888.888,0,0,0,.683.246c.2.349.667.029.869.406.16.145.523-.029.567.218h-.044c-.536-.275-.928.175-1.334.42-.494.218-1.133.189-1.509.624-.073.45-.291.986-.029,1.421.058.043.19.059.131.175l.493.536c.159.131.406.087.608.072a1.8,1.8,0,0,1,1.856-.261c-.043.2-.1.45-.347.522-.088.058-.045.261-.219.188-.16,0-.217.175-.217.3l.159.059a.139.139,0,0,1,0,.2.338.338,0,0,1-.347.072.3.3,0,0,1-.189-.363c.071-.014.115.1.189.059-.015-.173.087-.29.087-.435l-.2-.029c0-.1.131-.189.1-.29a1.007,1.007,0,0,0-.508-.015l-.057.334-.406.043c-.074-.058-.043-.188-.16-.217l-.972.2c-.175.015-.405.145-.29.363-.189.159-.406.7-.711.363-.247.275-.421.652-.652.956a.247.247,0,0,0,.116.393.922.922,0,0,1-.145.435.268.268,0,0,0-.289.1l-.088,1.205c.043.13.19.1.275.159-.014.057.03.145-.027.188-1.262-.029-2.366.363-3.569.391a1.655,1.655,0,0,0-.479-.783,2.045,2.045,0,0,0,.523-1.233,1.089,1.089,0,0,0,1-.436,10.011,10.011,0,0,0,2.551-.071l-.043-.043c-.144-.131.029-.247.043-.363a13.644,13.644,0,0,1-2.437,0c.1-.754-.638-1.161-1.058-1.654a1.341,1.341,0,0,1,.289-.2c1.031-.087,1.873.508,2.931.377a1.758,1.758,0,0,0,1.494-1.174,1.8,1.8,0,0,0-.26-1.61,2.751,2.751,0,0,0-2.784-.479c-.436.057-1.074.391-1.407-.088a.905.905,0,0,1-.016-.725c-.2-.029-.318.16-.45.262a1.616,1.616,0,0,0-.071,1.48,1.081,1.081,0,0,1-.6-.712h-.029a1.377,1.377,0,0,0,.044,1.074,1.588,1.588,0,0,0,.87.71,2.59,2.59,0,0,0-.681.363c-.115-.072-.188-.247-.3-.363-.1-.159-.45-.1-.362-.3.218-.668-.421-1.059-.842-1.465a1.71,1.71,0,0,0-1.116-1.48,1.263,1.263,0,0,0-1.408.363,1.139,1.139,0,0,0-.261.929,3.885,3.885,0,0,0-.856-.348.556.556,0,0,0-.019.409,4.625,4.625,0,0,1,1.171.636h.77a.585.585,0,0,0,.414-.2.48.48,0,0,0,.086-.536.393.393,0,0,0-.422-.276c-.22,0-.26.162-.26.32,0,.136.066.159.146.145s.036-.125.086-.189c.033-.042.068-.1.116-.073a.271.271,0,0,1,.146.2.363.363,0,0,1-.247.392.464.464,0,0,1-.537-.131.609.609,0,0,1-.1-.681.729.729,0,0,1,.45-.493.836.836,0,0,1,.886.145.936.936,0,0,1,.318,1.2.846.846,0,0,1-.827.492V15a5.222,5.222,0,0,1,1.312,3.508,5.535,5.535,0,0,1-4.763,5.541l-.4.436a6.037,6.037,0,0,0,3.027-1.028c.957-.377,1.305,1.031,2.263.754a1.31,1.31,0,0,0,.7-.566,6.553,6.553,0,0,0,1.7.088c1-.044,1.915-.392,2.886-.363.014.2-.03.45.116.594a11.455,11.455,0,0,0,3.859.174,1.133,1.133,0,0,0,.972-.014,9.6,9.6,0,0,1,1.929.13.678.678,0,0,0,.7-.289,40.485,40.485,0,0,1,4.164-.943c.189.015.072.319.13.464.159.261.493.232.755.3a30.973,30.973,0,0,0,7.615-.406,28.52,28.52,0,0,1-3.148-.972" transform="translate(-236.806 -7.82)" fill="#3d5065"/>
    <path id="Path_447" data-name="Path 447" d="M348.065,45.145l1.827-.377c.16-.087.45-.029.508-.232-.725.13-1.436.29-2.176.362-.13.015-.1.161-.159.247" transform="translate(-258.041 -33.017)" fill="#3d5065"/>
    <path id="Path_448" data-name="Path 448" d="M347.65,46.508c.841-.159,1.668-.3,2.466-.536.1-.044.26-.044.246-.2-.913.29-1.93.349-2.857.567Z" transform="translate(-257.626 -33.93)" fill="#3d5065"/>
    <path id="Path_449" data-name="Path 449" d="M351.053,47.723l.058-.1c-.856.189-1.785.319-2.656.479l.073.175a20.665,20.665,0,0,0,2.525-.552" transform="translate(-258.33 -35.304)" fill="#3d5065"/>
    <path id="Path_450" data-name="Path 450" d="M348.751,43.62l-.014.173a11.064,11.064,0,0,0,1.567-.334l.058-.1Z" transform="translate(-258.539 -32.145)" fill="#3d5065"/>
    <path id="Path_451" data-name="Path 451" d="M409.368,50.968l.187.026v.879l-.129.017.005.121.75.083,0-.132-.163-.051L410,51.031a.718.718,0,0,1,.15.076.177.177,0,0,1,.046.147l.118.042s0-.3,0-.3a2.77,2.77,0,0,0-1.1-.177l-.01.42.111-.017Z" transform="translate(-303.359 -37.673)" fill="#3d5065"/>
    <path id="Path_452" data-name="Path 452" d="M406.548,51.836l-.117,0-.1-.837.154-.018-.044-.161-.782.088.014.145.116-.016.116.856-.116.043.015.145.753-.092Z" transform="translate(-300.741 -37.673)" fill="#3d5065"/>
    <path id="Path_453" data-name="Path 453" d="M394.454,53.39c.014.017-.1-.378-.1-.378a.214.214,0,0,1,.32.115c.066.176-.121.245-.224.263m.64-.414c-.05-.246-.383-.242-.7-.179.014,0-.62.186-.62.186l.031.119.088-.025.214.835-.074.106.046.11.609-.144-.068-.168-.05.013-.063-.3s.167-.014.215.036a1.777,1.777,0,0,1,.212.375l.465-.136-.375-.428s.151-.02.073-.4" transform="translate(-291.925 -39.115)" fill="#3d5065"/>
    <path id="Path_454" data-name="Path 454" d="M400.717,52.636c-.186.059-.234-.1-.322-.387-.081-.265-.186-.528.025-.59s.308.236.369.455c.083.3.121.462-.072.522m.188-1.088a.979.979,0,0,0-.783.1c-.261.13-.291.406-.261.682a.658.658,0,0,0,.348.42,1.038,1.038,0,0,0,.753-.057.66.66,0,0,0-.057-1.146" transform="translate(-296.434 -38.188)" fill="#3d5065"/>
    <path id="Path_455" data-name="Path 455" d="M321.531,52.452l-.116-.029c.057-.073.218-.087.174-.216-.276-.234-.624-.131-.972-.16L320.558,52c.145-.16.406-.073.595-.073.087.015.189-.073.131-.16a3.346,3.346,0,0,0-.826.16c-.058.058-.03.131.014.189.3.043.725-.1.956.131l-.071.029c-.378-.159-.812.1-1.175-.087l.058-.116a.8.8,0,0,0-.551-.13c-.073.087.057.217-.029.319-.175,0-.087-.175-.131-.261l-.2-.014c-.116.058-.014.159-.043.232.174.072.245.275.377.391-.057.074-.175.218-.247.074-.087.028-.2.057-.232.144.173.349.493.016.71-.028l.06.028c.13-.188.362-.188.521-.231.116.145-.131.13-.188.218-.074.072-.189-.073-.232.057,0,.059-.058.1,0,.16.232.087.407-.174.652-.16.174-.014,0-.174.13-.246.1-.087.247-.145.334,0l-.1.1c-.072-.014-.088-.13-.174-.087a.109.109,0,0,0-.043.1c-.016.159.159.13.232.175a1.546,1.546,0,0,0,.45-.465" transform="translate(-236.627 -38.38)" fill="#3d5065"/>
    <path id="Path_456" data-name="Path 456" d="M319.284,27.606H321.9v2.9h-2.611Zm-.218,3.133h3.106V27.374h-3.106Z" transform="translate(-236.542 -20.294)" fill="#3d5065"/>
    <path id="Path_457" data-name="Path 457" d="M319.714,48.291c.117-.014.234-.145.32-.1.058.015.043-.057.086-.073.277-.057.523-.246.842-.173-.014.029,0,.1-.057.1-.131.13-.45,0-.464.246.058.016.1.1.188.072.115-.145.3-.1.478-.116.3.087.058-.247.3-.275.16.028.392-.073.508.087a.084.084,0,0,1-.044.087c-.043.043-.1.015-.13-.029a.091.091,0,0,0-.145.044c.015.174.175.146.275.2a.747.747,0,0,0,.307-.493c-.117-.029-.232,0-.32-.086.088,0,.218-.073.188-.189-.289-.334-.841-.1-1.262-.145l-.057-.044c.188-.189.595.015.7-.246-.014-.043-.071-.043-.1-.043-.218.174-.61.014-.74.289.3.349.783-.014,1.19.1.057-.014.16.072.117.116a8.407,8.407,0,0,1-1.6-.043.6.6,0,0,0,.073-.145,1.363,1.363,0,0,0-.624-.145c0,.131.044.232-.029.333-.042.058-.1-.014-.129-.043-.059-.072,0-.116.015-.174-.03-.144-.161-.028-.248-.087-.087.029-.042.145-.087.218.246.043.2.376.421.435a.543.543,0,0,1-.175.144c-.057-.028-.043-.1-.1-.087-.087.059-.246.043-.232.189.115.319.319,0,.535.072" transform="translate(-236.625 -34.931)" fill="#3d5065"/>
    <path id="Path_458" data-name="Path 458" d="M319.269,43.744c.072.043.145-.014.218-.029.2.029.362-.2.536-.144a1.678,1.678,0,0,1,1.03-.261l-.072.144c-.161.058-.436-.028-.493.145,0,.145.159.088.246.131.161-.188.464,0,.625-.159-.131-.131.1-.16.145-.247.174.1.45-.131.536.13-.072.161-.188-.116-.289.029-.029.175.146.189.261.247a.543.543,0,0,0,.29-.508c-.1-.029-.217,0-.29-.086.058-.088.233-.043.2-.189-.363-.363-.943-.029-1.408-.174,0-.029,0-.043.014-.058.2-.16.595.13.669-.188-.031-.059-.088-.029-.131-.029-.189.189-.625-.044-.7.29.028.087.131.1.2.115.392.029.87-.188,1.189.059a5.732,5.732,0,0,1-1.8-.029l.028-.116a.646.646,0,0,0-.581-.129c-.014.072.044.129.029.2-.029.043-.014.145-.115.131-.13-.043-.072-.159-.058-.261-.028-.1-.145-.029-.2-.072-.13.014-.087.159-.13.245.174.1.261.306.42.45-.159.233-.347-.1-.478.174-.03.087.087.116.1.189" transform="translate(-236.614 -31.5)" fill="#3d5065"/>
    <path id="Path_459" data-name="Path 459" d="M303.528,33.43V28.383h3.6c.069,1.664.015,3.09-1.45,3.757a6.4,6.4,0,0,0-2.147,1.29m0-9.109h3.539v3.787h-3.539Zm-.275,3.787h-3.511V24.321h3.511s.013,2.539,0,3.787m0,5.309c-.812-.885-1.833-.9-2.8-1.755-.82-.725-.712-2.212-.712-3.278h3.511Zm-3.961-2.974a4.618,4.618,0,0,1,0-4.525Zm8.284-4.555a4.53,4.53,0,0,1,.587,2.3,4.669,4.669,0,0,1-.587,2.294Zm-1.327,6.466a5.209,5.209,0,0,0,1.876-2.361,5.028,5.028,0,0,0,.083-3.4,4.324,4.324,0,0,0-.676-1.323V23.828h-1.607l-.547-.3-.319.1.353.2H301.44l.391-.173-.353-.1a4.7,4.7,0,0,1-.6.273h-1.624v1.523a5.209,5.209,0,0,0-.618,4.323,5.136,5.136,0,0,0,1.992,2.679,6.213,6.213,0,0,1,2.813,1.942c.519-1.005,1.573-1.374,2.812-1.942" transform="translate(-221.221 -17.444)" fill="#3d5065"/>
    <path id="Path_460" data-name="Path 460" d="M304.436,28.2a1.1,1.1,0,0,0,.653-.247c.057.131.1-.014.175-.028.3-.044.565-.276.884-.16l-.016.015c-.043.2-.347.16-.522.188-.058.175.088.218.218.218.188-.144.508-.014.667-.174-.13-.116.088-.116.117-.232.174.1.45-.131.536.13l-.043.029a.409.409,0,0,1-.175-.059.071.071,0,0,0-.043.087c-.058.175.145.189.246.218.218-.087.247-.319.277-.521-.1-.058-.2.028-.277-.072.073-.029.233-.073.175-.2-.26-.275-.769-.145-1.117-.13-.073.014-.174.014-.174-.087.058-.087.19-.03.291-.043.144.013.333-.014.275-.175l-.088-.028c-.159.173-.434.043-.609.173-.016.073-.029.175.043.218.378.087.827-.13,1.219.044a.055.055,0,0,1-.016.087,7.745,7.745,0,0,1-1.739-.059l.043-.116c-.173-.087-.392-.247-.623-.131-.015.1.115.276-.058.335-.218-.073,0-.2-.1-.319-.058.014-.189-.029-.26.029-.16.3.26.407.363.638l-.043.043c-.059.043-.146.087-.161-.015-.115-.042-.159.088-.245.1-.088.117.087.2.13.247" transform="translate(-225.582 -19.963)" fill="#3d5065"/>
    <path id="Path_461" data-name="Path 461" d="M306.156,44.609l1.1.7-.043.276-1.306-.812-.1-.2c.072-.145.246-.029.347.043m.074-.522c.362.232.739.436,1.073.7l-.028.247a5.882,5.882,0,0,1-1.146-.725Zm.275-.363.841.493-.028.247a7.3,7.3,0,0,1-.958-.566Zm.885-.159-.029.377a2.218,2.218,0,0,1-.61-.377Zm-.217,2.6c-.407-.218-.972-.508-1.1-1.016.393.218.769.465,1.131.71-.043.088,0,.218-.027.306m-.291.275c.291.159.508.464.828.536a38.619,38.619,0,0,0,.115-3.887h-1.7c-.378.029-.146.522-.406.7-.059.043-.2.087-.247-.029a.336.336,0,0,1,.161-.29c.043-.116.1-.29,0-.391a.521.521,0,0,0-.436-.088.452.452,0,0,0-.2.261.428.428,0,0,0,.145.479.5.5,0,0,1-.188.319.251.251,0,0,0,.072.319,2.67,2.67,0,0,0,1.857,2.075" transform="translate(-226.055 -31.857)" fill="#3d5065"/>
    <path id="Path_462" data-name="Path 462" d="M322.7,29.066a.2.2,0,0,0-.245-.131.951.951,0,0,0-.174,1.03c0,.218.523.435.2.58a1.837,1.837,0,0,1-.552-.45.853.853,0,0,1,.088-.652c.073-.175-.029-.334.1-.479-.087-.029-.13-.1-.2-.145a.619.619,0,0,0-.551.16c-.029.145.115.116.2.131.015.116-.2.014-.159.159l.159.073a.6.6,0,0,1-.333.188.622.622,0,0,1-.421-.363l.088-.073c.014-.174-.19-.116-.277-.174-.014.1-.174.116-.16.246.218.188.363.508.609.668a1.152,1.152,0,0,1-.145.1c-.071.043-.217.043-.217-.088-.188-.071-.1.16-.247.174.045.116-.029.161.014.275l.131.015c.2-.218.463-.13.711-.276l.159.276-.217.058c-.174.13.16.246,0,.377-.1.1-.217-.029-.246-.116-.175-.059-.088.173-.232.173-.1.131.117.117.057.261a.234.234,0,0,0,.131.073c.1-.2.348-.145.523-.232.1-.014.245-.174.13-.261.086.014.159-.058.217.014-.087.319.363.233.347.479-.044-.014-.057-.086-.13-.057-.1.13-.131.26,0,.377.16-.073.378-.218.421-.407.015-.174-.146-.2-.246-.29a1.107,1.107,0,0,1,.044-.218c.087.058.159.145.275.131a.2.2,0,0,0,.145-.29,1.081,1.081,0,0,1-.347-1.118c.027-.072.058-.232.188-.188.159.159-.086.289-.073.45,0,.116.116.159.189.232.057.016.173.059.189-.043-.2-.145-.174-.42-.146-.652" transform="translate(-237.58 -21.362)" fill="#3d5065"/>
    <path id="Path_463" data-name="Path 463" d="M306.995,32.286c-.058,0-.043.074-.043.116.028.131.175.117.262.16a.685.685,0,0,0,.289-.508c-.087-.043-.232.03-.289-.072.072-.014.173-.087.173-.174-.29-.406-.856-.088-1.291-.2.117-.217.464-.014.625-.174.043-.043,0-.115-.043-.13-.218.116-.494.072-.7.174a.15.15,0,0,0,.058.246c.406.088.885-.173,1.2.088l-.043.058c-.55-.146-1.131.088-1.652-.043-.16-.029.028-.1,0-.189h-.087c-.13-.175-.378-.087-.523-.131-.115.1.087.16,0,.276a.088.088,0,0,1-.159.043c-.1-.073.014-.145,0-.232-.059-.116-.146.014-.233-.059-.072.029-.087.116-.1.175-.014.087.088.116.146.145.043.16.26.246.217.392-.043.029-.145.131-.189,0-.115-.043-.159.1-.245.131-.016.116.057.145.13.218a2.276,2.276,0,0,0,.7-.2c.073.058.073-.043.131-.073a2.8,2.8,0,0,1,.913-.189c-.044.029.015.131-.072.131-.131.014-.234.144-.363.072-.087-.015-.131.072-.116.145-.015.13.131.071.2.1.16-.159.48-.116.7-.1-.16.159-.45.028-.638.173a.161.161,0,0,0,.057.2c.392.1.827-.116,1.219.057.03.016.014.072-.013.087-.595-.13-1.176.1-1.755-.071a.11.11,0,0,0,.028-.146h-.072c-.117-.188-.363-.072-.524-.1-.027.131.088.247-.027.334-.188-.03-.087-.189-.146-.29-.072.014-.159-.058-.245.014a.676.676,0,0,0,0,.246c.173.059.216.276.391.363l-.073.087c-.058.072-.16.014-.2-.043-.087.057-.26.087-.2.232.073.16.232.072.348.072.2.014.348-.189.508-.13a2.27,2.27,0,0,1,.956-.3c.118,0,.016.1.016.16a3.174,3.174,0,0,1-.493.057c0,.059-.088.131,0,.174.2.1.45-.072.7-.015.319.03.015-.26.306-.332.173.057.362-.044.506.086,0,.2-.145,0-.232.043-.043.014-.029.058-.029.1-.029.159.161.116.248.173a.746.746,0,0,0,.275-.522c-.1.015-.2.03-.275-.057.072-.029.231-.087.173-.218-.318-.29-.827-.1-1.218-.13l-.073-.058.057-.043c.161-.1.494.072.552-.175,0-.087-.116-.043-.146-.043,0-.058.016-.116-.014-.145.116-.289.435-.1.652-.1.029.043.073.087.016.13-.1.043-.131-.072-.218-.059" transform="translate(-225.645 -23.205)" fill="#3d5065"/>
    <path id="Path_464" data-name="Path 464" d="M388.208,26.807c0,.059.073.073.114.088a2.731,2.731,0,0,0,.423-1.653,1.628,1.628,0,0,0-.493-1.176c-.06,0-.088.057-.088.116a2.933,2.933,0,0,1,.044,2.625" transform="translate(-287.769 -17.842)" fill="#3d5065"/>
    <path id="Path_465" data-name="Path 465" d="M378.084,21.364l.2.145c-.059.087-.175.087-.276.1,0-.058.073-.145.073-.247m-.494.145c.029-.073.043-.159.131-.2l.028.233Zm.131-.436c-.247,0-.29.261-.435.377a.546.546,0,0,0,.435.261.876.876,0,0,0,.884-.2c-.291-.145-.509-.493-.884-.436" transform="translate(-279.704 -15.618)" fill="#3d5065"/>
    <path id="Path_466" data-name="Path 466" d="M8.87,89.8v-.5c-1.2,0-1.951-.278-1.951-1.543V79.223c2.374,0,2.937.426,3.158,2.3h.558V78.113H0v3.408H.556c.221-1.872.785-2.3,3.158-2.3v8.529c0,1.265-.75,1.543-1.951,1.543v.5Z" transform="translate(0 -57.91)" fill="#3d5065"/>
    <path id="Path_467" data-name="Path 467" d="M49.287,84.19v3.559c0,1.133-.612,1.511-1.6,1.543V89.8h6.233v-.506c-1.132,0-1.575-.279-1.575-1.543V80.16c0-1.265.443-1.543,1.575-1.543v-.5H47.689v.5c.985.033,1.6.409,1.6,1.543v3.088H45.272V80.16c0-1.134.612-1.51,1.6-1.543v-.5h-5.75v.5c.774.162,1.092.278,1.092,1.543v7.589c0,1.264-.443,1.543-1.575,1.543V89.8H46.87v-.506c-.985-.032-1.6-.41-1.6-1.543V84.19Z" transform="translate(-30.126 -57.91)" fill="#3d5065"/>
    <path id="Path_468" data-name="Path 468" d="M104.027,89.8V86.33h-.409c-.657,2.5-1.444,2.646-2.528,2.646H99.646c-.69,0-.822-.231-.822-.854v-3.95c1.746.029,2.963-.193,3.074,1.468h.441V81.915H101.9c-.11,1.456-1.4,1.315-3.074,1.315v-4.3h1.838c1.872,0,2.676.723,2.857,2.5h.361V78.113H94.231v.5c1.133,0,1.576.279,1.576,1.543v7.589c0,1.265-.443,1.543-1.576,1.543V89.8Z" transform="translate(-69.859 -57.91)" fill="#3d5065"/>
    <path id="Path_469" data-name="Path 469" d="M154.362,89l.331.007a.7.7,0,0,1,.645-.565c.655,0,1.208.786,3.724.786a3.715,3.715,0,0,0,3.678-3.954c0-4.01-6.416-3.319-6.416-6.023,0-1,.924-1.477,1.953-1.477a3.379,3.379,0,0,1,3.086,2.66h.354V77.252h-.5c-.082.252-.138.419-.386.419-.581,0-1.05-.719-2.733-.719-2.052,0-4.181.885-4.181,3.458,0,4.3,6.5,3.705,6.5,6.4,0,.875-1.007,1.6-2.212,1.6a3.7,3.7,0,0,1-3.513-2.97h-.464Z" transform="translate(-114.109 -57.048)" fill="#3d5065"/>
    <path id="Path_470" data-name="Path 470" d="M470.35,89.8v-.473c-.97,0-1.353-.61-1.353-1.874V80.392c0-1.263.27-1.764,1.183-1.764v-.515h-5.459v.515c.926,0,1.2.5,1.2,1.764v7.059c0,1.263-.385,1.874-1.367,1.874V89.8Z" transform="translate(-344.399 -57.91)" fill="#3d5065"/>
    <path id="Path_471" data-name="Path 471" d="M497.273,89.8l3.624-9.387v7.04c0,1.4-.25,1.727-1.577,1.874V89.8h6.15v-.473c-1.476-.147-1.577-.61-1.577-1.874V80.5c0-1.567.267-1.65,1.577-1.874v-.515h-4.794L497.8,85.721l-2.827-7.608h-4.78v.515c1.116,0,1.559.61,1.559,1.874v7.129c0,1.263-.229,1.492-1.559,1.694V89.8h4.178v-.473c-1.522-.23-1.577-.431-1.577-1.694V80.91l3.568,8.887Z" transform="translate(-363.408 -57.91)" fill="#3d5065"/>
    <path id="Path_472" data-name="Path 472" d="M562.2,89.8V86.33h-.409c-.658,2.5-1.444,2.646-2.528,2.646h-1.444c-.69,0-.821-.231-.821-.854v-3.95c1.746.029,2.961-.193,3.074,1.468h.441V81.915h-.441c-.11,1.456-1.4,1.315-3.074,1.315v-4.3h1.838c1.872,0,2.676.723,2.856,2.5h.362V78.113H552.4v.5c1.132,0,1.577.279,1.577,1.543v7.634c0,1.263-.445,1.543-1.577,1.543V89.8Z" transform="translate(-409.528 -57.91)" fill="#3d5065"/>
    <path id="Path_473" data-name="Path 473" d="M594.574,89h.331a.692.692,0,0,1,.644-.558,14.29,14.29,0,0,0,3.725.786,3.715,3.715,0,0,0,3.677-3.954c0-4.01-6.416-3.319-6.416-6.023,0-1,.924-1.477,1.952-1.477a3.378,3.378,0,0,1,3.086,2.66h.355V77.252h-.5c-.084.252-.139.419-.388.419-.581,0-1.052-.719-2.733-.719-2.051,0-4.18.885-4.18,3.458,0,4.3,6.5,3.705,6.5,6.4,0,.875-1.006,1.6-2.213,1.6a3.7,3.7,0,0,1-3.511-2.97h-.464Z" transform="translate(-440.465 -57.048)" fill="#3d5065"/>
    <path id="Path_474" data-name="Path 474" d="M430.9,89.8v-.5c-1.2,0-1.952-.278-1.952-1.543V79.223c2.375,0,2.938.426,3.158,2.3h.557V78.113H422.032v3.408h.556c.221-1.872.785-2.3,3.158-2.3v8.529c0,1.265-.748,1.543-1.951,1.543v.5Z" transform="translate(-312.877 -57.91)" fill="#3d5065"/>
    <path id="Path_475" data-name="Path 475" d="M201.266,78.628c.657,0,.878.164,1.452.853v8.258c0,1.263-.58,1.542-1.783,1.542V89.8h4.714v-.517c-1.3,0-1.871-.279-1.871-1.542V81.215h.033l6.61,8.583H211.8V80.429c0-1.265.415-1.715,1.575-1.8v-.515h-4.037v.515c1.162.224,1.41.536,1.41,1.8v4.906h-.032l-5.388-7.222H196.9v.515c1.051.033,1.554.526,1.554,1.543v5.718c0,2.166-.7,2.986-2.474,2.986a2.2,2.2,0,0,1-2.461-2.265V80.171c0-1.264.444-1.543,1.576-1.543v-.515h-6.15v.515c1.133,0,1.575.278,1.575,1.543v6.22c0,2.79,1.936,3.729,4.6,3.729,2.912,0,4.452-1.021,4.452-3.762V80.171c0-1.264.534-1.543,1.7-1.543" transform="translate(-140.078 -57.91)" fill="#3d5065"/>
    <path id="Path_476" data-name="Path 476" d="M290.274,78.947c3.07-.359,4.314,2.055,4.314,4.712,0,3.86-1.021,5.244-3.236,5.244-.726,0-1.078-.261-1.078-1.212Zm-3.042,8.793c0,1.263-.442,1.543-1.574,1.543V89.8h5.83c3.676,0,6.171-1.532,6.171-5.827,0-4.332-2.5-5.857-6.171-5.857h-5.83v.515c1.132,0,1.574.278,1.574,1.543Z" transform="translate(-211.775 -57.91)" fill="#3d5065"/>
    <path id="Path_477" data-name="Path 477" d="M333.6,84.082h-2.876l1.438-4.246Zm5.809,4.109a1.541,1.541,0,0,1-1.522-1.087l-3.734-10.477-2.13.554-3.308,9.45a2.066,2.066,0,0,1-2.112,1.559V88.7h4.647v-.506c-1,0-1.662-.311-1.662-.738a2.551,2.551,0,0,1,.214-.918l.6-1.443h3.478l.76,1.705a2.482,2.482,0,0,1,.18.787.6.6,0,0,1-.673.607h-.9V88.7h12.528v-.516c-1.131,0-1.8-.279-1.8-1.543V83.183l2.765-4.408a2.22,2.22,0,0,1,2.1-1.247v-.515H344.6v.515c.658,0,1.12.18,1.12.64a2.27,2.27,0,0,1-.345,1.034l-1.88,2.82-1.659-2.835a3.27,3.27,0,0,1-.461-1.149c0-.3.262-.509.919-.509v-.515h-6.211v.515c.64.115,1.382.031,1.934.885l2.971,4.77v3.455c0,1.263-.722,1.549-1.587,1.553" transform="translate(-242.128 -56.809)" fill="#3d5065"/>
  </g>
</svg>
