<svg xmlns="http://www.w3.org/2000/svg" width="145.647" height="145.647" viewBox="0 0 145.647 145.647">
  <g id="Layer_1-2" transform="translate(0 0)">
    <path id="Path_791" data-name="Path 791" d="M72.823,0A72.823,72.823,0,1,1,0,72.823,72.823,72.823,0,0,1,72.823,0Z" transform="translate(0 0)" fill="#e0fbfd"/>
    <g id="Group_606" data-name="Group 606" transform="translate(21.801 28.278)">
      <path id="Path_761" data-name="Path 761" d="M117.263,77.294c-.8,1.866-2.239,2.5-4.22,2.411-2.354-.115-4.708-.029-7.19-.029.588,1.923,1.148,3.76,1.708,5.6,1.32,4.306-.617,7.621-4.995,8.6-2.368.517-4.722,1.076-7.09,1.593a1.083,1.083,0,0,0-.962.947c-.517,2.4-1.076,4.794-1.593,7.19-.933,4.22-4.32,6.2-8.482,4.937-2.354-.718-4.708-1.407-7.033-2.167a1.119,1.119,0,0,0-1.378.373c-1.737,1.923-3.516,3.8-5.3,5.7a6,6,0,0,1-8.941.115c-1.794-1.837-3.531-3.7-5.224-5.626a1.515,1.515,0,0,0-1.88-.488c-2.368.775-4.751,1.493-7.133,2.2a6.12,6.12,0,0,1-7.951-4.593q-.926-3.724-1.679-7.478a1.291,1.291,0,0,0-1.206-1.163c-2.368-.474-4.736-1.048-7.09-1.579a6.245,6.245,0,0,1-4.851-8.382c.574-1.866,1.148-3.732,1.765-5.7-.388-.029-.7-.057-1.019-.057H18.649A3.172,3.172,0,0,1,15.19,76.2V58.048A3.155,3.155,0,0,1,17.616,54.7a2.306,2.306,0,0,0,.545-.23c2.311-1.507,4.607-3.014,6.961-4.55-.144-.5-.273-.976-.416-1.45a6.186,6.186,0,0,1,4.722-8.052c2.454-.56,4.923-1.119,7.391-1.636A1.192,1.192,0,0,0,37.91,37.74c.488-2.411,1.062-4.794,1.593-7.19.919-4.1,4.32-6.114,8.339-4.908,2.382.718,4.765,1.435,7.133,2.21a1.1,1.1,0,0,0,1.363-.373c1.679-1.851,3.387-3.66,5.081-5.483,2.87-3.057,6.731-3.057,9.6,0,1.665,1.765,3.33,3.531,4.952,5.339a1.392,1.392,0,0,0,1.708.488c2.4-.789,4.808-1.521,7.234-2.225A6.146,6.146,0,0,1,92.95,30.32q.84,3.638,1.622,7.291a1.317,1.317,0,0,0,1.177,1.206c2.368.488,4.722,1.048,7.09,1.579,4.133.919,6.143,4.306,4.865,8.324a1.412,1.412,0,0,0,.718,1.981c1.665.976,3.229,2.11,4.851,3.129a10.653,10.653,0,0,0,1.938.976,4.2,4.2,0,0,1,2.067,2.153V77.309ZM66.241,56.57H19.266c-1.88,0-2.1.215-2.1,2.138V75.673c0,1.694.287,1.995,1.952,1.995,6.286,0,12.573-.029,18.844-.029q37.7,0,75.392.029c1.564,0,1.88-.3,1.88-1.851V58.565c0-1.722-.244-1.981-1.938-1.981H66.227ZM100.83,54.5c.789,0,1.407-.043,2.038,0,.66.057.919-.215,1.105-.832.545-1.909,1.191-3.789,1.765-5.7a4.11,4.11,0,0,0-3.258-5.554c-2.655-.6-5.3-1.234-7.966-1.794a2.073,2.073,0,0,1-1.823-1.808c-.56-2.67-1.191-5.31-1.794-7.965a4.111,4.111,0,0,0-5.626-3.258c-2.641.8-5.267,1.593-7.894,2.454a1.939,1.939,0,0,1-2.3-.631c-1.866-2.067-3.775-4.119-5.7-6.143a4.065,4.065,0,0,0-6.3.029c-1.909,2.038-3.818,4.076-5.7,6.143a1.939,1.939,0,0,1-2.311.6c-2.612-.861-5.253-1.665-7.894-2.454a4.071,4.071,0,0,0-5.54,3.129q-.969,3.961-1.808,7.965a2.244,2.244,0,0,1-1.995,1.981c-2.77.56-5.511,1.191-8.253,1.88A3.985,3.985,0,0,0,26.6,47.442c.574,2.182,1.263,4.32,1.952,6.473.072.23.359.531.56.545.775.072,1.564.029,2.483.029-.746-2.4-1.45-4.65-2.138-6.889-.531-1.737-.215-2.253,1.579-2.655,2.5-.56,4.98-1.163,7.478-1.679a4.6,4.6,0,0,0,3.9-3.961c.517-2.6,1.163-5.181,1.765-7.765.33-1.407.9-1.722,2.3-1.292,2.54.789,5.1,1.521,7.607,2.368a4.556,4.556,0,0,0,5.353-1.464c1.694-1.923,3.473-3.76,5.21-5.64,1.249-1.335,1.823-1.32,3.086.043,1.737,1.88,3.516,3.732,5.2,5.655A4.57,4.57,0,0,0,78.3,32.63c2.454-.818,4.937-1.55,7.42-2.311,1.607-.488,2.138-.215,2.512,1.378.588,2.526,1.206,5.038,1.708,7.578A4.705,4.705,0,0,0,94,43.323c2.641.531,5.239,1.163,7.865,1.78a1.4,1.4,0,0,1,1.177,2.052c-.273.919-.588,1.837-.875,2.756-.459,1.478-.9,2.957-1.378,4.564ZM31.623,79.734c-.775,0-1.378.043-1.952,0-.732-.072-1.048.215-1.249.919-.517,1.823-1.119,3.617-1.665,5.425-.875,2.9.416,5.081,3.358,5.741,2.655.6,5.3,1.22,7.965,1.794a1.9,1.9,0,0,1,1.636,1.622c.574,2.626,1.191,5.239,1.78,7.865.7,3.143,2.842,4.392,5.927,3.445,2.382-.732,4.779-1.421,7.119-2.239a2.535,2.535,0,0,1,3.157.8c1.665,1.938,3.459,3.775,5.21,5.64,2.067,2.21,4.607,2.225,6.659,0,1.837-1.966,3.689-3.933,5.483-5.927a1.988,1.988,0,0,1,2.382-.646c2.612.861,5.253,1.651,7.894,2.454a4.118,4.118,0,0,0,5.569-3.258c.6-2.655,1.234-5.3,1.794-7.965A2.045,2.045,0,0,1,94.5,93.6c2.67-.545,5.31-1.177,7.966-1.794s4.062-2.741,3.358-5.253c-.574-2.081-1.263-4.119-1.938-6.171-.072-.23-.33-.56-.531-.588-.775-.072-1.564-.029-2.44-.029.1.445.158.732.244,1,.588,1.938,1.191,3.861,1.794,5.8.574,1.866.3,2.311-1.651,2.756-2.583.588-5.167,1.191-7.765,1.78a4.167,4.167,0,0,0-3.387,3.373c-.632,2.784-1.263,5.569-1.923,8.339-.316,1.306-.9,1.622-2.182,1.22-2.626-.818-5.267-1.622-7.879-2.469a4.347,4.347,0,0,0-4.952,1.32c-1.808,1.995-3.66,3.961-5.5,5.927-1.076,1.148-1.823,1.148-2.913,0-1.823-1.938-3.66-3.861-5.425-5.856a4.507,4.507,0,0,0-5.21-1.363c-2.368.775-4.751,1.493-7.119,2.225-2.11.66-2.526.4-3.014-1.765-.588-2.583-1.163-5.181-1.78-7.765a3.992,3.992,0,0,0-3.2-3.172q-3.918-.9-7.865-1.794c-2.024-.459-2.268-.875-1.665-2.813.675-2.182,1.349-4.363,2.1-6.731ZM25.667,51.991c-1.277.847-2.411,1.579-3.76,2.469H26.4c-.244-.818-.474-1.564-.746-2.469Zm80.4,2.411H110.5c-1.335-.875-2.483-1.622-3.7-2.411-.258.875-.488,1.593-.732,2.411Z" transform="translate(-15.19 -19.703)" fill="#3d5065"/>
      <path id="Path_762" data-name="Path 762" d="M28.77,52c-.588,2.1-1.177,4.191-1.751,6.3-.057.187-.057.445-.172.56-.359.33-.789.847-1.163.818a1.534,1.534,0,0,1-1.076-.919c-.545-1.952-.962-3.933-1.435-5.9-.057-.244-.129-.5-.2-.746h-.344v6.444c0,.746-.23,1.392-1.062,1.392-.919,0-1.076-.689-1.033-1.478.158-2.583.273-5.181.445-7.765a1.772,1.772,0,0,1,3.5-.373c.287.919.5,1.851.732,2.784s.431,1.88.689,3c.474-1.823.919-3.473,1.349-5.138.072-.258.144-.5.23-.761a1.668,1.668,0,0,1,1.866-1.306,1.712,1.712,0,0,1,1.607,1.737c.1,1.464.158,2.913.23,4.377.057,1.062.1,2.124.158,3.186.043.789-.043,1.507-1.019,1.636-.761.1-1.191-.373-1.206-1.435-.043-2.124,0-4.248,0-6.372-.1-.014-.215-.043-.316-.057Z" transform="translate(-12.868 -6.993)" fill="#3d5065"/>
      <path id="Path_763" data-name="Path 763" d="M42.674,55.9V50.422c0-.761.115-1.464,1.062-1.478.919,0,1.134.675,1.134,1.435v7.865a1.51,1.51,0,0,1-1.22,1.694c-.847.172-1.363-.33-1.722-1.048-1.019-2.067-2.038-4.148-3.172-6.444v6.128c0,.761-.287,1.363-1.105,1.363s-1.091-.631-1.091-1.378V51.082c0-1.349.344-1.952,1.191-2.124,1.019-.215,1.607.129,2.225,1.378.9,1.823,1.794,3.66,2.7,5.526Z" transform="translate(-5.889 -6.996)" fill="#3d5065"/>
      <path id="Path_764" data-name="Path 764" d="M63,54.046a2.9,2.9,0,0,1,1.593,3.416A3.225,3.225,0,0,1,61.5,59.873,17.215,17.215,0,0,1,58.92,60a1.537,1.537,0,0,1-1.665-1.708c-.014-2.583-.029-5.181,0-7.765A1.5,1.5,0,0,1,58.92,48.85a18.291,18.291,0,0,1,3.071.172,2.645,2.645,0,0,1,1.22,4.794c-.072.057-.115.144-.215.244Zm-3.4,2.626c.086.617-.23,1.493.89,1.507a1.6,1.6,0,0,0,1.751-1.493c.014-.9-.66-1.478-1.708-1.493-1.134-.014-.861.832-.933,1.478Zm-.029-4.679c.086.488-.129,1.306.933,1.277a1.4,1.4,0,0,0,1.536-1.335c-.029-.718-.646-1.163-1.55-1.163-.761,0-.962.431-.9,1.206Z" transform="translate(3.111 -7.017)" fill="#3d5065"/>
      <path id="Path_765" data-name="Path 765" d="M38.676,54.477c-.172,3.086-1.694,5.181-4.205,5.64a4.254,4.254,0,0,1-4.751-2.282,6.9,6.9,0,0,1,.072-6.674,4.281,4.281,0,0,1,4.277-2.339,4.1,4.1,0,0,1,3.818,2.713,24.812,24.812,0,0,1,.775,2.957Zm-2.44,0a14.328,14.328,0,0,0-.761-2.483,1.879,1.879,0,0,0-3.43-.129,5.091,5.091,0,0,0,0,5.224,1.86,1.86,0,0,0,3.373-.057A15.2,15.2,0,0,0,36.236,54.477Z" transform="translate(-9.225 -7.033)" fill="#3d5065"/>
      <path id="Path_766" data-name="Path 766" d="M78.622,52.809c.316-.488.632-.962.947-1.45.387-.617.746-1.263,1.148-1.851a1.124,1.124,0,0,1,1.651-.373,1.038,1.038,0,0,1,.258,1.636,20.761,20.761,0,0,1-1.378,1.952,1.424,1.424,0,0,0-.086,1.88c.66,1.105,1.263,2.253,1.866,3.4.474.89.33,1.536-.388,1.851-.8.359-1.335-.029-1.708-.718-.445-.847-.832-1.737-1.32-2.555a1.172,1.172,0,0,0-.9-.5c-.187,0-.474.5-.517.8-.086.66,0,1.32-.043,1.995a1.127,1.127,0,1,1-2.253.014c-.029-2.914-.014-5.841,0-8.755A1.044,1.044,0,0,1,77,48.992a1.066,1.066,0,0,1,1.163,1.191c.014.847,0,1.694,0,2.526.158.043.316.072.474.115Z" transform="translate(11.223 -6.986)" fill="#3d5065"/>
      <path id="Path_767" data-name="Path 767" d="M71.518,58.99c-.2.2-.488.732-.861.789a2.2,2.2,0,0,1-1.363-.459c-.187-.115-.215-.531-.287-.818-.4-1.45-.416-1.392-1.895-1.464-.947-.043-1.45.3-1.564,1.234-.029.2-.086.388-.129.574-.215.732-.66,1.206-1.464.962-.775-.23-.933-.847-.718-1.593.718-2.583,1.407-5.181,2.138-7.765a1.928,1.928,0,0,1,1.938-1.55,1.785,1.785,0,0,1,1.851,1.378c.789,2.7,1.536,5.425,2.3,8.123a5.041,5.041,0,0,1,.072.56Zm-5.31-3.933h1.966c-.316-1.22-.6-2.311-.875-3.387a1.393,1.393,0,0,0-.244.014c-.273,1.105-.545,2.21-.847,3.373Z" transform="translate(5.683 -6.995)" fill="#3d5065"/>
      <path id="Path_768" data-name="Path 768" d="M43.62,54.526V50.637c0-1.134.5-1.636,1.636-1.665,1.062-.014,2.124,0,3.186,0,.718,0,1.277.258,1.263,1.062s-.574,1.033-1.292,1.019c-.431,0-.861.014-1.292,0-.818-.043-1.234.273-1.22,1.148s.517,1.033,1.249,1a2.944,2.944,0,0,1,1.378.057,1.624,1.624,0,0,1,.89,1.062c.029.287-.517.8-.89.919a5.446,5.446,0,0,1-1.679.072c-.919,0-.933.631-.933,1.306s.129,1.191.976,1.163c.6-.029,1.191,0,1.794,0,.732,0,1.234.33,1.249,1.119s-.474,1.105-1.22,1.105c-1.191,0-2.4.014-3.588,0a1.356,1.356,0,0,1-1.493-1.478c-.029-1.32,0-2.655,0-3.99Z" transform="translate(-2.817 -6.967)" fill="#3d5065"/>
      <path id="Path_769" data-name="Path 769" d="M75.495,50.886c-2.3-.086-3.617,1.263-3.559,3.631.057,2.4,1.378,3.631,3.732,3.445.746-.057,1.378,0,1.464.9.086.861-.5,1.134-1.249,1.206-2.282.244-4.334-.115-5.612-2.3a6.7,6.7,0,0,1,.459-7.061,5.332,5.332,0,0,1,5.554-1.78,1.494,1.494,0,0,1,.875,1.076c.043.646-.488.947-1.163.89-.172,0-.33-.029-.5-.029Z" transform="translate(8.437 -7.044)" fill="#3d5065"/>
      <path id="Path_770" data-name="Path 770" d="M56.454,49.909c-.172.445-.258.7-.373.933a15.558,15.558,0,0,1-.875,1.679,9.076,9.076,0,0,0-1.478,6.042c.1,1.019-.675,1.694-1.435,1.306a1.571,1.571,0,0,1-.789-1.177c.33-2.569-.66-4.736-1.823-6.889-.215-.4-.4-.832-.6-1.263a1.013,1.013,0,0,1,.488-1.507,1.088,1.088,0,0,1,1.579.574c.359.789.632,1.607.976,2.4a3.909,3.909,0,0,0,.588.718,4.389,4.389,0,0,0,.545-.761c.316-.761.56-1.564.875-2.325a.988.988,0,0,1,1.378-.617c.388.172.66.6.947.89Z" transform="translate(-0.509 -6.999)" fill="#3d5065"/>
    </g>
  </g>
</svg>
