<svg xmlns="http://www.w3.org/2000/svg" xmlns:xlink="http://www.w3.org/1999/xlink" width="143.767" height="143.767" viewBox="0 0 143.767 143.767">
  <defs>
    <clipPath id="clip-path">
      <circle id="Ellipse_104" data-name="Ellipse 104" cx="71.884" cy="71.884" r="71.884" fill="#e0fbfd"/>
    </clipPath>
  </defs>
  <g id="Mask_Group_44" data-name="Mask Group 44" clip-path="url(#clip-path)">
    <g id="Layer_1-2" transform="translate(0 0)">
      <circle id="Ellipse_103" data-name="Ellipse 103" cx="71.884" cy="71.884" r="71.884" transform="translate(0 0)" fill="#e0fbfd"/>
      <g id="Group_615" data-name="Group 615" transform="translate(30.983 30.969)">
        <path id="Path_784" data-name="Path 784" d="M62.5,103.341a40.835,40.835,0,1,0,.014,0Zm40.943,37.812a37.769,37.769,0,1,0-37.812-37.7,37.874,37.874,0,0,0,37.812,37.7Z" transform="translate(-62.498 -62.469)" fill="#3d5065"/>
        <path id="Path_785" data-name="Path 785" d="M74.986,109.651a34.644,34.644,0,0,1,29.042-34.128,34.154,34.154,0,0,1,26.082,6.163l.638.425a1.623,1.623,0,0,1,.227,2.748c-2.238,2.238-4.491,4.463-6.729,6.7q-13.813,13.813-27.612,27.654-5.908,5.908-11.815,11.8a1.614,1.614,0,0,1-2.692-.213,35.005,35.005,0,0,1-7.14-21.166Zm50.576-24.1c.609-.6,1.247-1.2,1.87-1.813-10.413-7.664-28.093-8.3-40.093,3.768C75.27,99.649,76.19,117.316,83.77,127.53c.227-.212.468-.425.694-.652,2.9-2.89,5.78-5.808,8.7-8.684a2.349,2.349,0,0,0,.751-1.856q-.043-15.13,0-30.247c0-1.658.468-2.125,2.1-2.125h7.4c1.629,0,2.111.468,2.111,2.111v16.405c.85,0,1.587-.042,2.309,0a2.07,2.07,0,0,0,1.842-.779c1.162-1.233,2.366-2.423,3.6-3.6a2,2,0,0,0,.666-1.6c-.028-3.428-.014-6.843,0-10.271,0-1.856.425-2.281,2.224-2.281h7.2c1.488,0,1.842.255,2.238,1.573Zm-28.476,1.6V113.8c2.663-2.663,5.426-5.426,8.132-8.146h-.68c-1.686.028-2.182-.453-2.168-2.111V88.089c0-.312-.028-.609-.057-.935Zm19.961,7.183c1.587-1.6,2.947-3.074,4.42-4.42a2.632,2.632,0,0,0,.808-2.734h-5.228Z" transform="translate(-68.795 -68.808)" fill="#3d5065"/>
        <path id="Path_786" data-name="Path 786" d="M156.293,121.685a34.6,34.6,0,0,1-29.142,34.128c-10.37,1.658-19.636-1.02-27.81-7.565a1.571,1.571,0,0,1-.142-2.621q10.965-10.965,21.945-21.916,12.219-12.219,24.424-24.452a1.6,1.6,0,0,1,2.692.142,35.091,35.091,0,0,1,8.047,22.285Zm-9.619-19.069c-2.848,2.848-5.638,5.667-8.472,8.458a2.558,2.558,0,0,0-.85,2.012q.042,13.77,0,27.555a6.388,6.388,0,0,1-6.7,6.7c-6.078,0-12.155.057-18.247-.042a6.931,6.931,0,0,1-3.443-.935,17.5,17.5,0,0,1-2.89-2.791c-.992.978-2.153,2.139-3.3,3.273a31.464,31.464,0,0,0,43.89-44.23Zm-12.424,12.51c-.269.213-.368.283-.453.368q-12.219,12.219-24.424,24.452a1.819,1.819,0,0,0-.425,1.261c.156,1.828,1.615,2.989,3.7,2.989H130.41c2.522,0,3.839-1.318,3.839-3.853V115.111Z" transform="translate(-80.684 -80.685)" fill="#3d5065"/>
      </g>
    </g>
  </g>
</svg>
