<svg xmlns="http://www.w3.org/2000/svg" xmlns:xlink="http://www.w3.org/1999/xlink" width="146" height="146" viewBox="0 0 146 146">
  <defs>
    <clipPath id="clip-path">
      <circle id="Ellipse_106" data-name="Ellipse 106" cx="73" cy="73" r="73" transform="translate(-0.474 -0.491)" fill="#fff"/>
    </clipPath>
  </defs>
  <g id="Mask_Group_45" data-name="Mask Group 45" transform="translate(0.474 0.491)" clip-path="url(#clip-path)">
    <g id="Layer_1-2" transform="translate(0 0)">
      <circle id="Ellipse_105" data-name="Ellipse 105" cx="73" cy="73" r="73" transform="translate(-0.474 -0.491)" fill="#e0fbfd"/>
      <g id="Group_616" data-name="Group 616" transform="translate(36.257 36.205)">
        <path id="Path_787" data-name="Path 787" d="M112.619,169.535c-1.335-.187-2.684-.33-4.019-.545A35.662,35.662,0,0,1,91.493,161.1c-.287-.244-.574-.488-.962-.8-.746.789-1.464,1.536-2.182,2.3a2.271,2.271,0,0,1-2.655.66,2.22,2.22,0,0,1-1.421-2.325c.014-2.411,0-4.808,0-7.219a2.277,2.277,0,0,1,2.512-2.469h7.147a2.285,2.285,0,0,1,2.339,1.421,2.246,2.246,0,0,1-.646,2.655l-1.808,1.765a30.6,30.6,0,0,0,7.061,4.708A31.446,31.446,0,0,0,118.1,164.8a32.051,32.051,0,0,0,27.542-23.351,31.63,31.63,0,0,0-.043-17.223,4.187,4.187,0,0,1-.129-1.88,2.256,2.256,0,0,1,4.334.043c.531,2.454.962,4.937,1.435,7.42.057.316.1.646.144.976v4.435a3.693,3.693,0,0,0-.115.545,34.367,34.367,0,0,1-3.3,12.558c-5.526,11.3-14.467,18.213-26.81,20.653-1.349.273-2.727.387-4.09.574h-4.435Z" transform="translate(-78.205 -96.304)" fill="#3d5065"/>
        <path id="Path_788" data-name="Path 788" d="M132.985,81.322c.746-.775,1.464-1.493,2.167-2.239a2.274,2.274,0,0,1,2.713-.689,2.238,2.238,0,0,1,1.407,2.339c-.014,2.382,0,4.765,0,7.147a2.279,2.279,0,0,1-2.54,2.512h-7.076a2.31,2.31,0,0,1-1.708-4.09c.588-.56,1.177-1.119,1.837-1.751-.847-.675-1.579-1.306-2.368-1.866a31.093,31.093,0,0,0-21.069-5.913,32.032,32.032,0,0,0-28.389,40.66,4.285,4.285,0,0,1,.158,1.751,2.254,2.254,0,0,1-4.349.072,49.428,49.428,0,0,1-1.234-5.712,36.627,36.627,0,0,1,31.431-41.1,35.472,35.472,0,0,1,28.561,8.468c.129.1.258.215.5.416Z" transform="translate(-72.192 -72.088)" fill="#3d5065"/>
      </g>
    </g>
  </g>
</svg>
