<svg xmlns="http://www.w3.org/2000/svg" xmlns:xlink="http://www.w3.org/1999/xlink" width="146" height="146" viewBox="0 0 146 146">
  <defs>
    <clipPath id="clip-path">
      <circle id="Ellipse_38" data-name="Ellipse 38" cx="73" cy="73" r="73" transform="translate(0.289 0)" fill="#eaeaea"/>
    </clipPath>
  </defs>
  <g id="Mask_Group_36" data-name="Mask Group 36" transform="translate(-0.289 0)" clip-path="url(#clip-path)">
    <g id="Layer_1-2" transform="translate(0 0)">
      <g id="Group_590" data-name="Group 590" transform="translate(0)">
        <circle id="Ellipse_90" data-name="Ellipse 90" cx="73" cy="73" r="73" transform="translate(0.289 0)" fill="#e0fbfd"/>
        <path id="Path_746" data-name="Path 746" d="M57.011,98.544a4.446,4.446,0,0,1,3.791-3.2,6.01,6.01,0,0,1,5.334-5.3c.245-.043.5-.418.634-.692a8.691,8.691,0,0,1,13.406-3.171,13.931,13.931,0,0,1,2.508,3.243,1.254,1.254,0,0,0,.98.663c.951.144,1.86.461,2.869.721A6.228,6.228,0,0,1,93.6,89.4a6.321,6.321,0,0,1,3.964,5.867h37.624V66.844c0-2.379-1.139-3.517-3.532-3.517H125.47a2.987,2.987,0,0,0-3.186,3.229v5.608c.115.072.173.144.216.13,1.629-.3,2.523.649,3.373,1.845a15.649,15.649,0,0,1,3,7.352.932.932,0,0,0,.807.937,3.976,3.976,0,0,1,3.027,3.791c.029.735.014,1.47,0,2.206,0,1.225-.418,1.629-1.658,1.629H105.4c-1.283,0-1.658-.4-1.672-1.7V86.406a3.984,3.984,0,0,1,3.1-3.993.823.823,0,0,0,.721-.822,15.952,15.952,0,0,1,3.6-8.217,2.266,2.266,0,0,1,2.249-1.052,6.367,6.367,0,0,0,.75,0V71.256a59.918,59.918,0,0,1,.159-6.444,10.963,10.963,0,0,1,9.168-9.471,2.341,2.341,0,0,0,.4-.159h9.73a.731.731,0,0,0,.231.13A11.337,11.337,0,0,1,143.389,67c-.13,9.082-.029,18.164-.029,27.231v1.023c2.465.346,3.863,1.5,4.18,3.489a12.493,12.493,0,0,1,.058,1.946c0,3.128-1.139,4.483-4.238,4.988v.937c0,4.512.058,9.024-.029,13.536A17.3,17.3,0,0,1,138,132.579a54.7,54.7,0,0,1-4.656,3.7c.346.807.764,1.744,1.139,2.71a4.782,4.782,0,1,1-8.822,3.69c-.562-1.269-1.124-2.537-1.6-3.82a1.2,1.2,0,0,0-1.341-.894q-20.391.043-40.767.014h-.995c-.663,1.542-1.3,3.071-1.946,4.57a4.786,4.786,0,1,1-8.793-3.734c.375-.908.764-1.816,1.139-2.71a2.879,2.879,0,0,0-.288-.216c-6.516-3.662-9.745-9.255-9.788-16.708-.014-4.181,0-8.375,0-12.556v-.937c-2.407-.346-3.085-.879-4.238-3.258V98.544Zm83.841,7.136H63.729c0,4.8-.043,9.543,0,14.286a15.677,15.677,0,0,0,15.6,15.525c15.324.043,30.662.086,45.985-.029,6.1-.043,10.653-3,13.651-8.3a14.394,14.394,0,0,0,1.86-7.02c.043-4.8,0-9.6,0-14.459ZM102.2,103.143h39.787c2.984,0,3.143-.144,3.085-3.157a2.5,2.5,0,0,0-.533-1.672,2.655,2.655,0,0,0-1.7-.461q-40.176-.022-80.366-.014c-2.811,0-2.984.187-2.984,3.013,0,1.831.461,2.292,2.306,2.292H102.2Zm38.662-7.813V85.354c0-6.328.029-12.671,0-19a8.362,8.362,0,0,0-7.265-8.462,67.817,67.817,0,0,0-8.563-.173,8.343,8.343,0,0,0-8.13,6.718,64.082,64.082,0,0,0-.375,7.842h3.287v-5.8a5.465,5.465,0,0,1,5.593-5.593c2.061-.014,4.123,0,6.184,0,3.878,0,6.083,2.206,6.083,6.083V95.358h3.186Zm-77.44,0H95.01a3.834,3.834,0,0,0-2.624-3.719,3.932,3.932,0,0,0-4.512,1.528c-.764,1.067-1.341,1.139-2.306.3a3.3,3.3,0,0,0-2.681-.865c-1.514.187-1.7.072-2.133-1.355a6.267,6.267,0,0,0-11.994-.1c-.461,1.427-.519,1.47-1.975,1.442a3.228,3.228,0,0,0-3.359,2.782Zm46.533-13.075h16.506a12.779,12.779,0,0,0-3.027-7.136,1.082,1.082,0,0,0-.764-.274c-2.97-.014-5.939-.029-8.923,0a1.287,1.287,0,0,0-.865.432,12.708,12.708,0,0,0-2.926,6.977Zm-3.748,5.29H130.2c.144-2.292-.3-2.782-2.465-2.782H108.2c-1.413,0-1.975.577-1.975,2v.778Zm-32.593,49.6c-.447,1.052-.937,2.09-1.312,3.171a2.263,2.263,0,0,0,1.254,2.8,2.2,2.2,0,0,0,2.9-.951c.663-1.326,1.2-2.71,1.788-4.094-1.557-.317-3.027-.605-4.613-.923Zm52.775.923c.476,1.153.951,2.263,1.413,3.359.086.187.159.375.259.562a2.266,2.266,0,0,0,2.9,1.153,2.206,2.206,0,0,0,1.369-2.725c-.375-1.139-.894-2.22-1.341-3.272-1.571.317-3.042.605-4.613.923Z" transform="translate(-28.252 -27.671)" fill="#3d5065"/>
      </g>
    </g>
  </g>
</svg>
