<svg xmlns="http://www.w3.org/2000/svg" xmlns:xlink="http://www.w3.org/1999/xlink" width="146" height="146" viewBox="0 0 146 146">
  <defs>
    <clipPath id="clip-path">
      <circle id="Ellipse_40" data-name="Ellipse 40" cx="73" cy="73" r="73" transform="translate(0.289 0.412)" fill="#eaeaea"/>
    </clipPath>
  </defs>
  <g id="Mask_Group_37" data-name="Mask Group 37" transform="translate(-0.289 -0.412)" clip-path="url(#clip-path)">
    <g id="Layer_1-2" transform="translate(0 0)">
      <g id="Group_592" data-name="Group 592" transform="translate(0)">
        <circle id="Ellipse_91" data-name="Ellipse 91" cx="73" cy="73" r="73" transform="translate(0.289 0.412)" fill="#e0fbfd"/>
        <g id="Group_591" data-name="Group 591" transform="translate(30.776 24.461)">
          <path id="Path_747" data-name="Path 747" d="M136.252,109.275c1.153.288,2.191.548,3.229.822a11.252,11.252,0,0,1,8.649,11.143c.029,5.8,0,11.576,0,17.371,0,1.932-.447,2.393-2.364,2.393H77.509c-.678,0-1.341.014-2.018,0a1.586,1.586,0,0,1-1.687-1.73V120.49a1.043,1.043,0,0,1,.014-.3c.75-1.86-.029-3.3-1.2-4.7a25.572,25.572,0,0,1-1.586-2.335c-.778-1.182-.663-1.888.447-2.768,3.46-2.739,6.905-5.478,10.394-8.188a1.638,1.638,0,0,0,.634-1.427c.144-2.984.288-5.968.634-8.938.793-6.819,1.773-13.608,2.523-20.427a25.531,25.531,0,0,1,22.445-22.358A25.272,25.272,0,0,1,135.892,69.6c.706,3.69,1.023,7.467,1.485,11.2.649,5.1,1.225,10.221,1.9,15.324a17.855,17.855,0,0,1-2.8,12.7c-.072.115-.13.231-.259.461ZM122.284,105.8c3.344.836,6.631,1.672,9.932,2.451a1.3,1.3,0,0,0,1.038-.476,14.173,14.173,0,0,0,2.912-10.812c-1.023-8.347-2.133-16.693-3.143-25.04a22.19,22.19,0,0,0-44.068-.461c-.966,7.986-2,15.958-2.984,23.944-.144,1.182-.231,2.364-.36,3.863,2.422-1.917,4.555-3.633,6.746-5.3a1.114,1.114,0,0,0,.432-1.413,36.8,36.8,0,0,1-1.153-6.314c-.187-3.835-.072-7.669-.043-11.518a12.417,12.417,0,0,1,2.638-7.7c5.045-6.545,12.383-5.579,16.073-.894a9.3,9.3,0,0,0,6.6,3.546c2.638.231,5.3.173,7.957.2,3.589.029,5.507,1.917,5.507,5.463,0,3.272-.029,6.53,0,9.8a19.488,19.488,0,0,1-7.6,16.29,1.39,1.39,0,0,0-.461.908c-.058,1.11-.029,2.22-.029,3.46Zm-7.972-4.036a1.734,1.734,0,0,0,.274,0c6.271-1.341,11.677-6.862,12.282-13.19.432-4.613.216-9.284.245-13.925a1.549,1.549,0,0,0-1.672-1.528c-.908-.029-1.816.014-2.725,0a58.4,58.4,0,0,1-6.746-.3,14.448,14.448,0,0,1-8.693-5.118,5.916,5.916,0,0,0-7.7-1.2,9.181,9.181,0,0,0-4.728,7.871c-.13,4.166-.087,8.347,0,12.527a31.674,31.674,0,0,0,.721,4.454c1.5-1.168,2.71-2.191,4.008-3.085a9.472,9.472,0,0,1,10.307-.692,9.242,9.242,0,0,1,5.276,8.765,37.268,37.268,0,0,1-.865,5.435Zm-39.945,10.48c.49.735.923,1.413,1.384,2.076a7.646,7.646,0,0,0,9.255,3.171c4.829-1.586,8.938-.447,12.34,3.3,1.9,2.09,3.762,4.224,5.636,6.343a6.013,6.013,0,0,1,.533.807,14.017,14.017,0,0,0,.836-2.191,1.141,1.141,0,0,0-.4-1.47,6.523,6.523,0,0,1-2.451-4.4c-.2-2.58-.2-5.175-.2-7.756a8,8,0,0,1,8.274-8.275c.577,0,.735-.216.865-.721.418-1.658.923-3.3,1.326-4.959a6.7,6.7,0,0,0-10.754-6.948q-3.46,2.7-6.891,5.435C87.571,101.836,81.027,107,74.381,112.244Zm45.063,5.507q6.227,8.282,12.368,16.434a35.174,35.174,0,0,0,.187-4.209c0-1.182.649-1.9,1.629-1.9s1.6.735,1.6,1.917V137.7h9.7V121.614c0-4.469-2.306-7.438-6.646-8.52-3.46-.865-6.905-1.73-10.365-2.595-1.845-.461-3.69-.908-5.622-1.384a11.755,11.755,0,0,1-2.854,8.606Zm-42.3,19.937h9.6v-.764c0-2.393-.014-4.786,0-7.179a1.574,1.574,0,0,1,1.643-1.672,1.61,1.61,0,0,1,1.571,1.643c.029.375,0,.735,0,1.11v6.891h23.108c-1.917-3.5-3.777-6.919-5.766-10.567-.418,1.542-.75,2.739-1.052,3.935-.2.807-.476,1.571-1.413,1.788-.894.2-1.427-.36-1.961-.966-2.681-3.027-5.348-6.055-8.058-9.053a7.614,7.614,0,0,0-8.678-2.321,10.945,10.945,0,0,1-6.155.418c-.937-.216-1.831-.577-2.854-.908v17.645Zm33.458-11.345c.187.375.332.678.49.966,1.73,3.186,3.489,6.372,5.2,9.572a1.417,1.417,0,0,0,1.47.894c3.878-.043,7.741-.014,11.619-.014h1.081c-4.454-5.925-8.765-11.662-13.19-17.529a8.354,8.354,0,0,1-6.66,6.112Zm3.6-11.158c0-1.11.014-2.22,0-3.33a4.837,4.837,0,0,0-9.673-.029c-.029,2.191-.029,4.368,0,6.559a4.844,4.844,0,0,0,9.687.029c.029-1.081,0-2.148,0-3.229Zm3.316-.418c2.436-3.445,1.182-7.309,1.586-11.013-1.759.533-3.359,1.009-5.1,1.528,3.359,2.379,3.662,5.824,3.517,9.471Z" transform="translate(-65.731 -48.91)" fill="#3d5065"/>
          <path id="Path_748" data-name="Path 748" d="M73.868,143.727c-.187.231-.461.836-.923,1.1-2.119,1.139-4.3,2.206-6.473,3.243a1.586,1.586,0,1,1-1.384-2.854c2.148-1.11,4.3-2.191,6.473-3.229,1.11-.519,2.278.245,2.292,1.759Z" transform="translate(-62.58 -94.953)" fill="#3d5065"/>
          <path id="Path_749" data-name="Path 749" d="M65.783,132.172c-1.009,0-2.018.014-3.027,0a1.614,1.614,0,1,1,.029-3.215c2.047-.014,4.108-.014,6.155,0a1.6,1.6,0,0,1,1.744,1.571,1.653,1.653,0,0,1-1.773,1.658H65.783Z" transform="translate(-61.01 -88.573)" fill="#3d5065"/>
          <path id="Path_750" data-name="Path 750" d="M127.847,107.331c-.735-.375-1.312-.649-1.86-.966a1.575,1.575,0,0,1-.778-2.119,1.553,1.553,0,0,1,2.206-.735c1.6.764,3.2,1.542,4.772,2.393a1.568,1.568,0,0,1,0,2.883c-1.571.851-3.171,1.629-4.772,2.393a1.553,1.553,0,0,1-2.206-.735,1.577,1.577,0,0,1,.764-2.119c.288-.173.605-.3.894-.461.259-.144.519-.288.951-.519Z" transform="translate(-92.745 -75.869)" fill="#3d5065"/>
          <path id="Path_751" data-name="Path 751" d="M165.562,107.354c.75.389,1.326.663,1.874.98a1.562,1.562,0,0,1,.706,2.148,1.528,1.528,0,0,1-2.133.706c-1.643-.778-3.272-1.571-4.858-2.436a1.545,1.545,0,0,1-.014-2.825c1.615-.879,3.287-1.687,4.945-2.465a1.506,1.506,0,0,1,2.047.721,1.554,1.554,0,0,1-.591,2.1,10.44,10.44,0,0,1-.98.5c-.288.159-.562.317-1.009.562Z" transform="translate(-110.177 -75.864)" fill="#3d5065"/>
          <path id="Path_752" data-name="Path 752" d="M104.185,161.294c-.461-.447-1.124-.793-1.269-1.3a2.156,2.156,0,0,1,.4-1.7,13.254,13.254,0,0,1,1.961-1.73c2.984-2.566,5.982-5.132,8.966-7.683.072-.072.144-.13.231-.2a1.643,1.643,0,0,1,2.422,0,1.663,1.663,0,0,1-.346,2.479c-2.854,2.465-5.723,4.9-8.577,7.352-.793.678-1.571,1.384-2.379,2.033a9.671,9.671,0,0,1-1.4.764Z" transform="translate(-81.754 -98.089)" fill="#3d5065"/>
        </g>
      </g>
    </g>
  </g>
</svg>
