<svg xmlns="http://www.w3.org/2000/svg" xmlns:xlink="http://www.w3.org/1999/xlink" width="147" height="146" viewBox="0 0 147 146">
  <defs>
    <clipPath id="clip-path">
      <ellipse id="Ellipse_37" data-name="Ellipse 37" cx="73.5" cy="73" rx="73.5" ry="73" transform="translate(-0.446)" fill="#eaeaea"/>
    </clipPath>
  </defs>
  <g id="Mask_Group_39" data-name="Mask Group 39" transform="translate(0.446)" clip-path="url(#clip-path)">
    <g id="Layer_1-2" transform="translate(0 0)">
      <g id="Group_596" data-name="Group 596" transform="translate(0)">
        <ellipse id="Ellipse_93" data-name="Ellipse 93" cx="73.5" cy="73" rx="73.5" ry="73" transform="translate(-0.446 0)" fill="#e0fbfd"/>
        <g id="Group_595" data-name="Group 595" transform="translate(30.422 38.9)">
          <path id="Path_757" data-name="Path 757" d="M221.438,133.212a2.5,2.5,0,0,1-1.856,1.453,8.255,8.255,0,0,0-6.187,6.173,3.12,3.12,0,0,1-.849,1.482,1.7,1.7,0,0,1-2.6-.676,9.882,9.882,0,0,1-.388-1.266,8.185,8.185,0,0,0-5.568-5.6c-.2-.058-.4-.115-.59-.173-1.165-.331-1.741-.921-1.755-1.827s.6-1.511,1.8-1.9a12.09,12.09,0,0,0,2.518-1.05,7.847,7.847,0,0,0,3.669-4.906c.072-.259.144-.518.23-.763a1.7,1.7,0,0,1,1.712-1.281,1.725,1.725,0,0,1,1.712,1.281,20.163,20.163,0,0,0,1.18,2.935,7.7,7.7,0,0,0,5.05,3.741,2.615,2.615,0,0,1,1.986,1.453v.892Zm-12.59-.446c.777.806,1.856,1.914,2.647,2.734.835-.835,1.942-1.928,2.719-2.705-.791-.806-1.87-1.914-2.676-2.748-.835.849-1.928,1.942-2.691,2.719Z" transform="translate(-130.538 -99.911)" fill="#3d5065"/>
          <path id="Path_758" data-name="Path 758" d="M120.085,119.74h7.295a7.62,7.62,0,0,1,1.151.058,1.744,1.744,0,0,1,.187,3.41,4.3,4.3,0,0,1-1.137.115H119.9c-.561,1.137-1.094,2.245-1.7,3.468h17.352a7.06,7.06,0,0,1,1.237.086,1.7,1.7,0,0,1,1.381,1.626,1.724,1.724,0,0,1-1.309,1.77,5.82,5.82,0,0,1-1.324.13H112.344c-.144.576-.273,1.108-.432,1.64a10.522,10.522,0,0,1-4.245,5.827.953.953,0,0,0-.432,1.237c.6,2.259,1.151,4.518,1.712,6.791a1.862,1.862,0,0,1-1.525,2.59q-10.942,2.784-21.9,5.54a1.855,1.855,0,0,1-2.561-1.568c-.619-2.4-1.223-4.791-1.813-7.079a27.032,27.032,0,0,1-3.957-.863,9.275,9.275,0,0,1-5.942-6.762c-.576-2.23-1.165-4.46-1.7-6.691a.863.863,0,0,0-.878-.777,9.435,9.435,0,0,1-8.216-9.137q-.065-17.309,0-34.6c.029-5.266,4.36-9.266,9.87-9.28q14.158-.022,28.3,0c3.87,0,7.755-.014,11.626,0a9.476,9.476,0,0,1,9.727,8.288,11.383,11.383,0,0,1,.086,1.856V119.74Zm-14.964,25.626c-.619-2.446-1.209-4.791-1.8-7.137a1.928,1.928,0,0,1,1.137-2.619c3.54-1.9,4.993-4.921,4.058-8.791-1.54-6.345-3.18-12.662-4.806-18.978a2.134,2.134,0,1,0-4.1,1.079c.518,2.086,1.05,4.187,1.583,6.273s1.065,4.173,1.568,6.273a1.774,1.774,0,1,1-3.424.921c-.072-.216-.129-.46-.187-.691L93.064,97.654c-.273-1.079-.532-2.187-.906-3.237a1.828,1.828,0,0,0-1.885-1.209,1.786,1.786,0,0,0-1.827,1.281,3.507,3.507,0,0,0,0,1.727c1.036,4.245,2.144,8.475,3.209,12.7.4,1.626.835,3.266,1.151,4.906a1.637,1.637,0,0,1-1.338,1.9,1.724,1.724,0,0,1-2.043-1.151,12.984,12.984,0,0,1-.36-1.281c-1.8-7.093-3.583-14.2-5.41-21.295a4,4,0,0,0-.95-1.727,1.834,1.834,0,0,0-2.3-.129,2.128,2.128,0,0,0-.82,2.576q2.827,11.2,5.669,22.417a1.812,1.812,0,1,1-3.468.892c-.36-1.367-.705-2.748-1.05-4.115-1.108-4.374-2.216-8.762-3.338-13.137a2.057,2.057,0,0,0-2.633-1.712,2.1,2.1,0,0,0-1.353,2.763c.388,1.611.806,3.209,1.209,4.806,1.05,4.158,2.086,8.3,3.151,12.446a1.876,1.876,0,0,1-.388,1.9,1.745,1.745,0,0,1-3.036-.849c-.633-2.3-1.194-4.633-1.784-6.95-.547-2.144-1.079-4.3-1.626-6.446-.417-1.626-1.727-2.36-3.036-1.712-1.007.489-1.309,1.439-.95,2.906q2.633,10.424,5.281,20.863c.921,3.611,1.784,7.223,2.82,10.791a5.758,5.758,0,0,0,5.885,3.957c2.95-.23,2.978-.2,3.683,2.662.489,1.957.993,3.928,1.511,5.928,6.36-1.611,12.633-3.194,19.021-4.82Zm-6.906-41.942c4.043-2.388,8.3-.245,9.165,4.144.691,3.525,1.727,6.993,2.619,10.489q1.079,4.23,2.158,8.475a5.821,5.821,0,0,0,4.345-6.014V87.252c0-3.87-2.446-6.345-6.3-6.36q-19.921-.022-39.841,0c-3.87,0-6.316,2.475-6.316,6.331-.014,4.561,0,9.108,0,13.669a7.4,7.4,0,0,0,.086.777,6.094,6.094,0,0,1,5.453-2.446c.374-3.928,2.59-5.77,6.345-5.9-.1-3.87,1.094-5.957,3.856-6.806a5.512,5.512,0,0,1,3.568.058,5.892,5.892,0,0,1,3.683,4.014c.2-.086.3-.144.4-.187a5.629,5.629,0,0,1,8.345,3.439c.288.935.489,1.885.734,2.834.561,2.23,1.137,4.446,1.727,6.762ZM64.23,109.971h-.187c0,3.655-.014,7.309,0,10.964a6.173,6.173,0,0,0,.317,1.827c.59,1.9,2.417,3.554,4.014,3.655-1.4-5.5-2.777-10.964-4.158-16.446Z" transform="translate(-60.422 -77.26)" fill="#3d5065"/>
          <path id="Path_759" data-name="Path 759" d="M197.124,93.7c-.863.029-1.5-.576-1.856-1.6a11.553,11.553,0,0,0-1.079-2.388,5.576,5.576,0,0,0-3.525-2.345,1.962,1.962,0,0,1-1.669-1.381c-.288-1.079.288-1.957,1.626-2.288a6.036,6.036,0,0,0,3.986-2.993,10.089,10.089,0,0,0,.691-1.8,1.9,1.9,0,0,1,1.8-1.554,1.8,1.8,0,0,1,1.784,1.554,6.316,6.316,0,0,0,4.863,4.849,1.763,1.763,0,0,1,1.525,1.8,1.8,1.8,0,0,1-1.568,1.77,6.238,6.238,0,0,0-4.806,4.791,1.863,1.863,0,0,1-1.755,1.611Zm.058-9.856c-.633.547-1.324,1.122-1.842,1.568.6.647,1.223,1.309,1.669,1.77.6-.561,1.252-1.165,1.842-1.712C198.289,84.926,197.656,84.308,197.181,83.847Z" transform="translate(-124.223 -77.309)" fill="#3d5065"/>
          <path id="Path_760" data-name="Path 760" d="M219.526,179.431a1.692,1.692,0,0,1-1.683-1.784,1.729,1.729,0,0,1,1.727-1.755,1.762,1.762,0,0,1,1.727,1.856,1.7,1.7,0,0,1-1.77,1.7Z" transform="translate(-138.583 -126.231)" fill="#3d5065"/>
        </g>
      </g>
    </g>
  </g>
</svg>
