<svg xmlns="http://www.w3.org/2000/svg" xmlns:xlink="http://www.w3.org/1999/xlink" width="146" height="146" viewBox="0 0 146 146">
  <defs>
    <clipPath id="clip-path">
      <circle id="Ellipse_102" data-name="Ellipse 102" cx="73" cy="73" r="73" transform="translate(0 -0.491)" fill="#fff"/>
    </clipPath>
  </defs>
  <g id="Mask_Group_43" data-name="Mask Group 43" transform="translate(0 0.491)" clip-path="url(#clip-path)">
    <g id="Layer_1-2" transform="translate(0 0)">
      <circle id="Ellipse_101" data-name="Ellipse 101" cx="73" cy="73" r="73" transform="translate(0 -0.491)" fill="#e0fbfd"/>
      <g id="Group_614" data-name="Group 614" transform="translate(31.517 45.611)">
        <path id="Path_780" data-name="Path 780" d="M154.622,139.328a3.121,3.121,0,0,1-3.416,2.11c-2.081-.057-4.176,0-6.258-.029a.829.829,0,0,0-.933.66,10.617,10.617,0,0,1-20.107,0,.821.821,0,0,0-.933-.66c-4.779.014-9.559.029-14.338,0a.917.917,0,0,0-1.019.761,10.55,10.55,0,0,1-9.673,7.1,10.265,10.265,0,0,1-9.975-6.243,2.217,2.217,0,0,0-2.626-1.636c-1.579.115-3.186.057-4.779.014a2.656,2.656,0,0,1-2.813-2.44,2.628,2.628,0,0,1,2.77-2.885c1.292-.043,2.583,0,3.875,0h2.526a31.667,31.667,0,0,1,2.7-4.377,10.557,10.557,0,0,1,17.969,3.43,1.189,1.189,0,0,0,1.378.962c4.593-.029,9.171-.029,13.764,0a1,1,0,0,0,1.163-.8,10.6,10.6,0,0,1,20.151.072.888.888,0,0,0,1.033.732c1.363-.043,2.741,0,4.234,0v-.861c0-4.033,0-8.08-.014-12.113a2.231,2.231,0,0,0-.431-1.263c-.947-1.306-1.995-2.555-2.957-3.861a1.35,1.35,0,0,0-1.234-.6c-6.43.014-12.86,0-19.289,0-2.354,0-3.3-.947-3.3-3.287V96.128h-41a6.257,6.257,0,0,1-1.464-.144,2.631,2.631,0,0,1,.416-5.124,8.88,8.88,0,0,1,1.062-.043h42.856c2.526,0,3.445.9,3.445,3.4v1.923h.933c3.272,0,6.545.043,9.8-.014a3.228,3.228,0,0,1,3.258,1.995c2.138,4.334,4.349,8.626,6.473,12.96a23.252,23.252,0,0,0,2.942,4.636c.933,1.119,1.823,2.282,2.67,3.459.431.588.746,1.263,1.119,1.895v18.3Zm-27.169-27.341h14.969c-1.737-3.459-3.416-6.817-5.124-10.161a1.053,1.053,0,0,0-.761-.4c-1.564-.043-3.129-.014-4.693-.014h-4.377v10.578ZM134,133.372a5.3,5.3,0,1,0,5.3,5.3A5.311,5.311,0,0,0,134,133.372Zm-31.087,5.3a5.306,5.306,0,1,0,0,.014Z" transform="translate(-70.216 -90.818)" fill="#3d5065"/>
        <path id="Path_781" data-name="Path 781" d="M76.719,138.594H66a5.666,5.666,0,0,1-1.306-.1,2.638,2.638,0,0,1-.115-5.052,4.312,4.312,0,0,1,1.22-.158h21.93a4.381,4.381,0,0,1,1.22.158,2.633,2.633,0,0,1-.5,5.124,9,9,0,0,1-1.076.043H76.734Z" transform="translate(-62.754 -111.956)" fill="#3d5065"/>
        <path id="Path_782" data-name="Path 782" d="M85.384,112.451H96.507a2.649,2.649,0,1,1,.416,5.282,5.07,5.07,0,0,1-.66.014H74.419a2.85,2.85,0,0,1-2.626-1.234,2.645,2.645,0,0,1,2.21-4.09H85.369Z" transform="translate(-67.026 -101.572)" fill="#3d5065"/>
        <path id="Path_783" data-name="Path 783" d="M80.126,154.152c2.081,0,4.176-.057,6.258.014a2.635,2.635,0,0,1-.158,5.267c-4.062.029-8.138.029-12.2,0a2.658,2.658,0,0,1-2.67-2.684,2.619,2.619,0,0,1,2.655-2.6c2.038-.043,4.062,0,6.1,0h0Z" transform="translate(-67.036 -122.333)" fill="#3d5065"/>
      </g>
    </g>
  </g>
</svg>
