<svg xmlns="http://www.w3.org/2000/svg" xmlns:xlink="http://www.w3.org/1999/xlink" width="145" height="145" viewBox="0 0 145 145">
  <defs>
    <clipPath id="clip-path">
      <circle id="Ellipse_39" data-name="Ellipse 39" cx="72.5" cy="72.5" r="72.5" transform="translate(-0.334 0.411)" fill="#eaeaea"/>
    </clipPath>
  </defs>
  <g id="Mask_Group_38" data-name="Mask Group 38" transform="translate(0.334 -0.411)" clip-path="url(#clip-path)">
    <g id="Layer_1-2" transform="translate(0 0.472)">
      <g id="Group_594" data-name="Group 594" transform="translate(0 0)">
        <ellipse id="Ellipse_92" data-name="Ellipse 92" cx="72.2" cy="72.2" rx="72.2" ry="72.2" fill="#e0fbfd"/>
        <g id="Group_593" data-name="Group 593" transform="translate(32.379 30.209)">
          <path id="Path_753" data-name="Path 753" d="M145.732,114.916c-.313,1.622-.5,3.273-.968,4.852a50.588,50.588,0,0,1-2.049,5.279,1.558,1.558,0,0,1-2.191.925,1.6,1.6,0,0,1-.612-2.362,24.249,24.249,0,0,0,2.675-11.8c-.043-2.632,0-5.265-.014-7.9a2.228,2.228,0,0,0-4.312-.825,4,4,0,0,0-.157,1.238c0,3.031-.028,6.048,0,9.078a12.386,12.386,0,0,1-3.856,9.349c-2.874,2.817-5.706,5.692-8.552,8.538a3.231,3.231,0,0,1-.939.7,1.38,1.38,0,0,1-1.708-.441,1.421,1.421,0,0,1-.2-1.75,3.753,3.753,0,0,1,.655-.783c2.832-2.832,5.663-5.649,8.481-8.5a2.691,2.691,0,1,0-3.87-3.728c-2.191,2.206-4.4,4.383-6.574,6.6a2.731,2.731,0,0,1-1.992.911c-5.165.256-8.438,3.244-10.757,7.542a16.613,16.613,0,0,0-1.921,7.727,1.6,1.6,0,0,1-1.608,1.693,1.628,1.628,0,0,1-1.551-1.665c-.043-.626-.057-1.266-.128-1.893a16.527,16.527,0,0,0-4.667-9.861,11.211,11.211,0,0,0-7.926-3.543,2.621,2.621,0,0,1-1.864-.84c-2.234-2.262-4.5-4.511-6.759-6.759a2.59,2.59,0,0,0-2.9-.655,2.545,2.545,0,0,0-1.722,2.334,2.787,2.787,0,0,0,.939,2.248q4.2,4.183,8.381,8.367a6.231,6.231,0,0,1,.583.64,1.526,1.526,0,0,1-.2,2.021,1.507,1.507,0,0,1-2.021.128,5.579,5.579,0,0,1-.526-.484c-2.889-2.889-5.763-5.777-8.666-8.652a12.236,12.236,0,0,1-3.757-9.064c0-3.187.014-6.375,0-9.548a2.212,2.212,0,0,0-3.045-2.22,1.969,1.969,0,0,0-1.394,1.85c.057,4.283-.071,8.595.327,12.849a20.048,20.048,0,0,0,5.863,12.067c3.116,3.244,6.346,6.389,9.52,9.576a4.159,4.159,0,0,1,.583.64,1.592,1.592,0,0,1-.171,2.021,1.568,1.568,0,0,1-1.964.2,2.618,2.618,0,0,1-.313-.242c-3.643-3.685-7.428-7.243-10.886-11.1a24.366,24.366,0,0,1-6.147-16.094c-.085-3.216-.043-6.417-.014-9.633a5.386,5.386,0,0,1,10.772-.128c.028.939,0,1.878.085,2.86a34.823,34.823,0,0,1,7.954-10.416c-.939-1.2-1.85-2.334-2.7-3.444a30.074,30.074,0,0,1-3.088.811A9.3,9.3,0,0,1,67.47,86.671a3.379,3.379,0,0,0-.711-1.338A7.535,7.535,0,0,1,77.5,74.789a2.505,2.505,0,0,0,1.067.569,9.315,9.315,0,0,1,5.194,14.913c-.285.37-.384.6-.043,1,.811.968,1.579,1.964,2.391,3a32.9,32.9,0,0,1,17.531-6.161v-4.2c-.982.3-1.949.7-2.946.9a9.45,9.45,0,0,1-10.829-6.574,9.547,9.547,0,0,1,5.322-11.469,2.3,2.3,0,0,0,.982-.9,10.467,10.467,0,0,1,7.57-5.265c.142-.028.285-.1.427-.142h2.206a1.514,1.514,0,0,0,.356.128,10.341,10.341,0,0,1,7.755,5.493,1.837,1.837,0,0,0,.8.669,9.5,9.5,0,1,1-7.755,17.332c-.2-.1-.413-.171-.64-.27v4.283a33.042,33.042,0,0,1,17.531,6.161c.811-1.025,1.565-2.021,2.376-2.988a.655.655,0,0,0,0-1,9.311,9.311,0,0,1,5.151-14.927,2.827,2.827,0,0,0,1.138-.6,7.538,7.538,0,0,1,12.237,3.159c.142.441.27.9.4,1.338v2.049a9.39,9.39,0,0,1-1.907,4,3.408,3.408,0,0,0-.726,1.338,9.3,9.3,0,0,1-10.444,6.987,31.161,31.161,0,0,1-3.031-.811c-.854,1.081-1.764,2.234-2.718,3.429a35.353,35.353,0,0,1,7.954,10.416c.085-1.01.057-1.992.1-2.974a5.342,5.342,0,0,1,4.767-5.151,5.4,5.4,0,0,1,5.763,3.814c.071.256.157.5.242.74v11.839Zm-40.469,16.762c.612-1.067,1.124-2.092,1.75-3.045,2.817-4.269,6.588-7.029,11.825-7.456a.983.983,0,0,0,.583-.185c.868-.825,1.708-1.679,2.647-2.618-.512-.413-.911-.783-1.366-1.081-1.138-.768-2.334-1.437-3.429-2.248a11.063,11.063,0,0,1,2.4-19.352c.2-.085.4-.157.655-.256A28.971,28.971,0,0,0,84.674,99.8a14.181,14.181,0,0,0,1.893.1,6.716,6.716,0,0,1,4.881,2.248,6.989,6.989,0,0,1-.74,10.231,6.362,6.362,0,0,0-2.675,4.8,1.706,1.706,0,0,0,.413,1.081,28.119,28.119,0,0,0,2.348,2.348,3.184,3.184,0,0,0,1.295.6c1.11.285,2.291.384,3.372.768,4.482,1.551,7.342,4.852,9.42,8.936.128.242.256.484.4.783Zm1.878-51.71a12.121,12.121,0,0,0,1.01.8,6.107,6.107,0,0,0,6.787.057,6.3,6.3,0,0,0-1.352-11.355,2.691,2.691,0,0,1-1.722-1.565,7.182,7.182,0,0,0-13.148.014A2.6,2.6,0,0,1,97,69.467a6.319,6.319,0,0,0,.157,12.052,6.1,6.1,0,0,0,5.35-.825c-.185-.2-.3-.327-.427-.455-1.025-1.025-2.063-2.035-3.059-3.074a1.55,1.55,0,0,1-.043-2.262,1.6,1.6,0,0,1,2.262.043c.3.27.555.555.84.84.512.5,1.01,1,1.636,1.594v-6.6c0-1.153.612-1.85,1.594-1.836.953,0,1.551.7,1.551,1.793v4.34c0,.185.043.37.085.8a9.765,9.765,0,0,1,.7-.84,1.62,1.62,0,0,1,2.376-.142,1.58,1.58,0,0,1-.171,2.376c-.868.882-1.764,1.736-2.732,2.689Zm17.3,36.072c2.547-3.116,5.564-4.653,9.52-2.021-.043-.242-.057-.4-.1-.555a29.2,29.2,0,0,0-9.32-15.041,1.066,1.066,0,0,0-.768-.27,14.269,14.269,0,0,0-3.429.726,7.432,7.432,0,0,0-4.582,6.574,7.516,7.516,0,0,0,3.458,7.086c1.679,1.167,3.4,2.277,5.222,3.486ZM82.7,84.408a6.124,6.124,0,0,0-5.18-6.048,3.176,3.176,0,0,1-1.992-1.1,4.308,4.308,0,0,0-6.161-.157,4.251,4.251,0,0,0-.043,6.2,3.819,3.819,0,0,1,1.21,2.277A6.138,6.138,0,0,0,82.7,84.408Zm45.179.028a6.136,6.136,0,0,0,12.152,1.224,4,4,0,0,1,1.238-2.362,4.33,4.33,0,1,0-6.275-5.962,2.748,2.748,0,0,1-1.793,1A6.169,6.169,0,0,0,127.874,84.437Zm-42.7,30.551a10.248,10.248,0,0,1,3.586-5.108,3.756,3.756,0,0,0,1.167-4.283,3.874,3.874,0,0,0-3.629-2.561q-2.049-.043-4.1,0a1.131,1.131,0,0,0-.811.455c-.726,1.067-1.437,2.134-2.063,3.259a26.941,26.941,0,0,0-2.746,7.271c3.145-2.077,5.962-1.708,8.58.968Z" transform="translate(-64.802 -60.46)" fill="#3d5065"/>
          <path id="Path_754" data-name="Path 754" d="M187.189,212.718a3.356,3.356,0,0,1,.5-.854q2.113-2.177,4.3-4.312a1.573,1.573,0,1,1,2.22,2.22c-1.423,1.451-2.86,2.874-4.3,4.3a1.5,1.5,0,0,1-1.807.356,1.609,1.609,0,0,1-.9-1.708Z" transform="translate(-126.037 -133.787)" fill="#3d5065"/>
          <path id="Path_755" data-name="Path 755" d="M209.172,198.523a1.537,1.537,0,0,1-1.523,1.579,1.573,1.573,0,1,1-.043-3.145,1.549,1.549,0,0,1,1.551,1.565Z" transform="translate(-135.47 -128.755)" fill="#3d5065"/>
          <path id="Path_756" data-name="Path 756" d="M127.642,160.683a7.984,7.984,0,0,1,1.722-6.033,6.8,6.8,0,0,1,7.058-2.447,6.425,6.425,0,0,1,4.966,5.066,6.351,6.351,0,0,1-.612,4.582c-.512.982-1.039,1.935-1.594,2.9a6.122,6.122,0,0,1-11.54-2.561c-.043-.526,0-1.053,0-1.523Zm3.1-.114h.071c0,.555-.043,1.11,0,1.651a2.95,2.95,0,0,0,5.478,1.21c.612-1.039,1.21-2.092,1.736-3.173a3.524,3.524,0,0,0-2.334-4.98,4.067,4.067,0,0,0-4.81,3.33C130.786,159.246,130.786,159.914,130.744,160.569Z" transform="translate(-96.229 -106.255)" fill="#3d5065"/>
        </g>
      </g>
    </g>
  </g>
</svg>
